<svg width="269" height="220" viewBox="0 0 269 220" fill="none" xmlns="http://www.w3.org/2000/svg">
<path d="M149.447 24.037C76.0157 10.6201 34.7842 51.8938 23.3473 74.2078C6.59101 106.9 13.095 140.186 50.6709 173.987C97.6408 216.238 224.67 157.207 248.083 126.349C271.496 95.4921 241.236 40.8081 149.447 24.037Z" fill="#DEE0E9"/>
<g filter="url(#filter0_d)">
<rect x="43" y="41" width="182" height="137" rx="8" fill="#50566A"/>
<path fill-rule="evenodd" clip-rule="evenodd" d="M59.6799 66.8655L61.2791 68.1227C61.4558 68.2616 61.4558 68.4868 61.2791 68.6257C61.1025 68.7646 60.816 68.7646 60.6393 68.6257L58.7199 67.1168C58.5432 66.9779 58.5432 66.7527 58.7199 66.6138C58.7242 66.6104 58.7285 66.6072 58.7328 66.604L60.6398 65.1048C60.8165 64.9659 61.1029 64.9659 61.2796 65.1048C61.4563 65.2437 61.4563 65.4689 61.2796 65.6078L59.6799 66.8655Z" fill="white"/>
<path fill-rule="evenodd" clip-rule="evenodd" d="M207.907 66.8644L206.308 65.6071C206.132 65.4682 206.132 65.243 206.308 65.1042C206.485 64.9653 206.771 64.9653 206.948 65.1042L208.867 66.6131C209.044 66.752 209.044 66.9772 208.867 67.1161C208.863 67.12 208.858 67.1237 208.853 67.1273L206.947 68.6251C206.771 68.764 206.484 68.764 206.308 68.6251C206.131 68.4862 206.131 68.261 206.308 68.1221L207.907 66.8644Z" fill="white"/>
<rect x="63.2214" y="66.0299" width="7.20817" height="1.54461" rx="0.772304" fill="#E62161"/>
<path fill-rule="evenodd" clip-rule="evenodd" d="M111.166 73.5587L112.765 74.8159C112.942 74.9548 112.942 75.18 112.765 75.3189C112.588 75.4578 112.302 75.4578 112.125 75.3189L110.206 73.8099C110.029 73.671 110.029 73.4458 110.206 73.3069C110.211 73.3029 110.216 73.299 110.221 73.2952L112.126 71.798C112.303 71.6591 112.589 71.6591 112.766 71.798C112.942 71.9369 112.942 72.1621 112.766 72.301L111.166 73.5587Z" fill="white"/>
<rect width="3.2554" height="0.813849" rx="0.406925" transform="matrix(0.647527 -0.762043 0.893357 0.449347 112.83 74.5237)" fill="white"/>
<path fill-rule="evenodd" clip-rule="evenodd" d="M125.194 73.5578L123.595 72.3007C123.418 72.1618 123.418 71.9366 123.595 71.7977C123.772 71.6588 124.058 71.6588 124.235 71.7977L126.154 73.3066C126.331 73.4455 126.331 73.6707 126.154 73.8096C126.149 73.8137 126.144 73.8176 126.139 73.8214L124.234 75.3186C124.058 75.4575 123.771 75.4575 123.594 75.3186C123.418 75.1797 123.418 74.9545 123.594 74.8156L125.194 73.5578Z" fill="white"/>
<rect x="115.738" y="72.7235" width="7.20817" height="1.54461" rx="0.772304" fill="#E62161"/>
<path fill-rule="evenodd" clip-rule="evenodd" d="M59.6792 73.5587L61.2784 74.8159C61.4551 74.9548 61.4551 75.18 61.2784 75.3189C61.1017 75.4578 60.8153 75.4578 60.6386 75.3189L58.7192 73.8099C58.5425 73.671 58.5425 73.4458 58.7192 73.3069C58.7243 73.3029 58.7296 73.299 58.7349 73.2952L60.6393 71.798C60.816 71.6591 61.1024 71.6591 61.2791 71.798C61.4558 71.9369 61.4558 72.1621 61.2791 72.301L59.6792 73.5587Z" fill="#514E41"/>
<path fill-rule="evenodd" clip-rule="evenodd" d="M107.171 73.5578L105.572 72.3007C105.396 72.1618 105.396 71.9366 105.572 71.7977C105.749 71.6588 106.035 71.6588 106.212 71.7977L108.131 73.3066C108.308 73.4455 108.308 73.6707 108.131 73.8096C108.126 73.814 108.12 73.8182 108.114 73.8223L106.211 75.3186C106.034 75.4575 105.748 75.4575 105.571 75.3186C105.395 75.1797 105.395 74.9545 105.571 74.8156L107.171 73.5578Z" fill="#E62161"/>
<rect x="63.2214" y="72.7235" width="3.60408" height="1.54461" rx="0.772304" fill="#514E41"/>
<rect x="100.291" y="72.7235" width="3.60408" height="1.54461" rx="0.772304" fill="#E62161"/>
<rect x="68.8853" y="72.7235" width="29.3475" height="1.54461" rx="0.772304" fill="#96D428"/>
<rect x="71.9739" y="66.0299" width="4.63382" height="1.54461" rx="0.772304" fill="#96D428"/>
<rect x="86.4954" y="65.9499" width="116.83" height="1.89968" rx="0.94984" fill="#CDC161"/>
<rect x="78.1526" y="66.0299" width="2.05948" height="1.54461" rx="0.772304" fill="#E62161"/>
<rect x="79.5344" y="97.9526" width="3.67695" height="1.54461" rx="0.772304" fill="#E62161"/>
<rect x="99.7588" y="104.646" width="3.67695" height="1.54461" rx="0.772304" fill="#E62161"/>
<rect x="89.9543" y="97.9526" width="3.67695" height="1.54461" rx="0.772304" fill="#64D9EF"/>
<rect x="69.7297" y="97.9526" width="8.57954" height="1.54461" rx="0.772304" fill="#96D428"/>
<rect x="69.7297" y="104.646" width="26.3514" height="1.54461" rx="0.772304" fill="#96D428"/>
<rect x="58.6992" y="91.259" width="22.0617" height="1.54461" rx="0.772304" fill="#96D428"/>
<rect x="87.502" y="91.259" width="28.1899" height="1.54461" rx="0.772304" fill="#96D428"/>
<rect x="121.82" y="91.259" width="28.1899" height="1.54461" rx="0.772304" fill="#CDC161"/>
<rect x="110.176" y="104.646" width="25.1258" height="1.54461" rx="0.772304" fill="#CDC161"/>
<rect x="82.5996" y="91.259" width="2.4513" height="1.54461" rx="0.772304" fill="white"/>
<rect x="152.462" y="91.259" width="2.4513" height="1.54461" rx="0.772304" fill="white"/>
<rect x="96.0828" y="97.9526" width="2.4513" height="1.54461" rx="0.772304" fill="white"/>
<path fill-rule="evenodd" clip-rule="evenodd" d="M120.069 89.1998C118.909 89.1998 117.968 90.1219 117.968 91.2593C117.968 92.3967 118.909 93.3188 120.069 93.3188C120.359 93.3188 120.595 93.5493 120.595 93.8336C120.595 94.118 120.359 94.3485 120.069 94.3485C118.329 94.3485 116.918 92.9654 116.918 91.2593C116.918 89.5532 118.329 88.1701 120.069 88.1701C120.359 88.1701 120.595 88.4006 120.595 88.6849C120.595 88.9693 120.359 89.1998 120.069 89.1998Z" fill="white"/>
<path d="M159.909 94.074C159.047 93.8708 158.616 93.4032 158.616 92.6712V92.0708C158.616 91.6464 158.403 91.4343 157.977 91.4343V90.8098C158.394 90.8098 158.607 90.6097 158.616 90.2094V89.5699C158.616 89.1978 158.724 88.8971 158.94 88.6678C159.155 88.4386 159.478 88.2726 159.909 88.1701L160.11 88.6558C159.928 88.7121 159.791 88.8106 159.697 88.9514C159.604 89.0902 159.555 89.2833 159.55 89.5307V90.1642C159.55 90.6187 159.336 90.9375 158.907 91.1205C159.336 91.3055 159.55 91.6263 159.55 92.0829V92.7224C159.562 93.1931 159.749 93.4807 160.11 93.5853L159.909 94.074Z" fill="white"/>
<path fill-rule="evenodd" clip-rule="evenodd" d="M63.808 114.428C64.9685 114.428 65.9092 113.506 65.9092 112.369C65.9092 111.231 64.9685 110.309 63.808 110.309C63.5179 110.309 63.2828 110.079 63.2828 109.794C63.2828 109.51 63.5179 109.279 63.808 109.279C65.5487 109.279 66.9597 110.663 66.9597 112.369C66.9597 114.075 65.5487 115.458 63.808 115.458C63.5179 115.458 63.2828 115.227 63.2828 114.943C63.2828 114.659 63.5179 114.428 63.808 114.428Z" fill="white"/>
<path d="M58.8997 109.554C59.7615 109.757 60.1924 110.225 60.1924 110.957L60.1924 111.557C60.1924 111.981 60.4054 112.194 60.8315 112.194L60.8315 112.818C60.415 112.818 60.202 113.018 60.1924 113.418L60.1924 114.058C60.1924 114.43 60.0847 114.731 59.8692 114.96C59.6538 115.189 59.3306 115.355 58.8997 115.458L58.6986 114.972C58.8806 114.916 59.0182 114.817 59.1116 114.677C59.2049 114.538 59.254 114.345 59.2588 114.097L59.2588 113.464C59.2588 113.009 59.473 112.69 59.9015 112.507C59.473 112.322 59.2588 112.002 59.2588 111.545L59.2588 110.905C59.2468 110.435 59.0601 110.147 58.6986 110.043L58.8997 109.554Z" fill="white"/>
<rect x="78.8359" y="153.877" width="3.67695" height="1.54461" rx="0.772304" fill="#E62161"/>
<rect x="99.0603" y="160.57" width="3.67695" height="1.54461" rx="0.772304" fill="#E62161"/>
<rect x="89.2559" y="153.877" width="3.67695" height="1.54461" rx="0.772304" fill="#64D9EF"/>
<rect x="69.0315" y="153.877" width="8.57954" height="1.54461" rx="0.772304" fill="#96D428"/>
<rect x="69.0315" y="160.57" width="26.3514" height="1.54461" rx="0.772304" fill="#96D428"/>
<rect x="58.001" y="147.183" width="22.0617" height="1.54461" rx="0.772304" fill="#96D428"/>
<rect x="86.8037" y="147.183" width="28.1899" height="1.54461" rx="0.772304" fill="#96D428"/>
<rect x="121.122" y="147.183" width="28.1899" height="1.54461" rx="0.772304" fill="#CDC161"/>
<rect x="109.478" y="160.57" width="25.1258" height="1.54461" rx="0.772304" fill="#CDC161"/>
<rect x="81.9014" y="147.183" width="2.4513" height="1.54461" rx="0.772304" fill="white"/>
<rect x="151.764" y="147.183" width="2.4513" height="1.54461" rx="0.772304" fill="white"/>
<rect x="95.3843" y="153.877" width="2.4513" height="1.54461" rx="0.772304" fill="white"/>
<path fill-rule="evenodd" clip-rule="evenodd" d="M119.371 145.124C118.211 145.124 117.27 146.046 117.27 147.184C117.27 148.321 118.211 149.243 119.371 149.243C119.661 149.243 119.896 149.474 119.896 149.758C119.896 150.042 119.661 150.273 119.371 150.273C117.631 150.273 116.219 148.89 116.219 147.184C116.219 145.477 117.631 144.094 119.371 144.094C119.661 144.094 119.896 144.325 119.896 144.609C119.896 144.894 119.661 145.124 119.371 145.124Z" fill="white"/>
<path d="M159.211 149.998C158.349 149.795 157.918 149.327 157.918 148.595V147.995C157.918 147.571 157.705 147.358 157.279 147.358V146.734C157.695 146.734 157.908 146.534 157.918 146.134V145.494C157.918 145.122 158.026 144.821 158.241 144.592C158.457 144.363 158.78 144.197 159.211 144.094L159.412 144.58C159.23 144.636 159.092 144.735 158.999 144.876C158.905 145.014 158.856 145.208 158.852 145.455V146.088C158.852 146.543 158.637 146.862 158.209 147.045C158.637 147.23 158.852 147.551 158.852 148.007V148.647C158.864 149.117 159.05 149.405 159.412 149.509L159.211 149.998Z" fill="white"/>
<path fill-rule="evenodd" clip-rule="evenodd" d="M63.1098 170.352C64.2702 170.352 65.2109 169.43 65.2109 168.293C65.2109 167.155 64.2702 166.233 63.1098 166.233C62.8197 166.233 62.5845 166.003 62.5845 165.719C62.5845 165.434 62.8197 165.204 63.1098 165.204C64.8504 165.204 66.2615 166.587 66.2615 168.293C66.2615 169.999 64.8504 171.382 63.1098 171.382C62.8197 171.382 62.5845 171.152 62.5845 170.867C62.5845 170.583 62.8197 170.352 63.1098 170.352Z" fill="white"/>
<path d="M58.2012 165.478C59.063 165.681 59.4939 166.149 59.4939 166.881L59.4939 167.481C59.4939 167.906 59.707 168.118 60.1331 168.118L60.1331 168.742C59.7165 168.742 59.5035 168.943 59.4939 169.343L59.4939 169.982C59.4939 170.354 59.3862 170.655 59.1707 170.884C58.9553 171.114 58.6321 171.28 58.2012 171.382L58.0001 170.896C58.1821 170.84 58.3197 170.742 58.4131 170.601C58.5064 170.462 58.5555 170.269 58.5603 170.022L58.5603 169.388C58.5603 168.933 58.7746 168.615 59.203 168.432C58.7746 168.247 58.5603 167.926 58.5603 167.469L58.5603 166.83C58.5483 166.359 58.3616 166.072 58.0001 165.967L58.2012 165.478Z" fill="white"/>
<path fill-rule="evenodd" clip-rule="evenodd" d="M59.6799 125.561L61.2791 126.819C61.4558 126.957 61.4558 127.183 61.2791 127.322C61.1025 127.46 60.816 127.46 60.6393 127.322L58.7199 125.813C58.5432 125.674 58.5432 125.448 58.7199 125.31C58.7242 125.306 58.7285 125.303 58.7328 125.3L60.6398 123.801C60.8165 123.662 61.1029 123.662 61.2796 123.801C61.4563 123.94 61.4563 124.165 61.2796 124.304L59.6799 125.561Z" fill="white"/>
<path fill-rule="evenodd" clip-rule="evenodd" d="M207.908 125.755L206.309 124.497C206.132 124.358 206.132 124.133 206.309 123.994C206.485 123.855 206.772 123.855 206.948 123.994L208.868 125.503C209.044 125.642 209.044 125.867 208.868 126.006C208.863 126.01 208.857 126.014 208.852 126.018L206.948 127.515C206.771 127.654 206.484 127.654 206.308 127.515C206.131 127.376 206.131 127.151 206.308 127.012L207.908 125.755Z" fill="white"/>
<rect x="63.2214" y="124.726" width="7.20817" height="1.54461" rx="0.772304" fill="#E62161"/>
<path fill-rule="evenodd" clip-rule="evenodd" d="M111.166 132.255L112.765 133.512C112.942 133.651 112.942 133.876 112.765 134.015C112.588 134.154 112.302 134.154 112.125 134.015L110.206 132.506C110.029 132.367 110.029 132.142 110.206 132.003C110.211 131.999 110.216 131.995 110.221 131.991L112.126 130.494C112.303 130.355 112.589 130.355 112.766 130.494C112.942 130.633 112.942 130.858 112.766 130.997L111.166 132.255Z" fill="white"/>
<rect width="3.2554" height="0.813849" rx="0.406925" transform="matrix(0.647527 -0.762043 0.893357 0.449347 112.83 133.22)" fill="white"/>
<path fill-rule="evenodd" clip-rule="evenodd" d="M125.194 132.254L123.595 130.996C123.418 130.857 123.418 130.632 123.595 130.493C123.772 130.354 124.058 130.354 124.235 130.493L126.154 132.002C126.331 132.141 126.331 132.366 126.154 132.505C126.149 132.509 126.144 132.513 126.139 132.517L124.234 134.014C124.058 134.153 123.771 134.153 123.594 134.014C123.418 133.875 123.418 133.65 123.594 133.511L125.194 132.254Z" fill="white"/>
<rect x="115.738" y="131.419" width="7.20817" height="1.54461" rx="0.772304" fill="#E62161"/>
<path fill-rule="evenodd" clip-rule="evenodd" d="M59.6792 132.255L61.2784 133.512C61.4551 133.651 61.4551 133.876 61.2784 134.015C61.1017 134.154 60.8153 134.154 60.6386 134.015L58.7192 132.506C58.5425 132.367 58.5425 132.142 58.7192 132.003C58.7243 131.999 58.7296 131.995 58.7349 131.991L60.6393 130.494C60.816 130.355 61.1024 130.355 61.2791 130.494C61.4558 130.633 61.4558 130.858 61.2791 130.997L59.6792 132.255Z" fill="#514E41"/>
<path fill-rule="evenodd" clip-rule="evenodd" d="M107.171 132.254L105.572 130.996C105.396 130.857 105.396 130.632 105.572 130.493C105.749 130.354 106.035 130.354 106.212 130.493L108.131 132.002C108.308 132.141 108.308 132.366 108.131 132.505C108.126 132.51 108.12 132.514 108.114 132.518L106.211 134.014C106.034 134.153 105.748 134.153 105.571 134.014C105.395 133.875 105.395 133.65 105.571 133.511L107.171 132.254Z" fill="#E62161"/>
<rect x="63.2214" y="131.419" width="3.60408" height="1.54461" rx="0.772304" fill="#514E41"/>
<rect x="100.291" y="131.419" width="3.60408" height="1.54461" rx="0.772304" fill="#E62161"/>
<rect x="68.8853" y="131.419" width="29.3475" height="1.54461" rx="0.772304" fill="#96D428"/>
<rect x="71.9739" y="124.726" width="4.63382" height="1.54461" rx="0.772304" fill="#96D428"/>
<rect x="86.4954" y="124.84" width="116.83" height="1.89968" rx="0.94984" fill="#CDC161"/>
<rect x="78.1526" y="124.726" width="2.05948" height="1.54461" rx="0.772304" fill="#E62161"/>
<path fill-rule="evenodd" clip-rule="evenodd" d="M51 41C46.5817 41 43 44.5817 43 49V60H225V49C225 44.5817 221.418 41 217 41H51Z" fill="#3C4256"/>
<circle cx="63.5" cy="50.5" r="2.5" fill="#2F374A"/>
<circle cx="71.5" cy="50.5" r="2.5" fill="#2F374A"/>
<circle cx="79.5" cy="50.5" r="2.5" fill="#2F374A"/>
</g>
<defs>
<filter id="filter0_d" x="33" y="33" width="202" height="157" filterUnits="userSpaceOnUse" color-interpolation-filters="sRGB">
<feFlood flood-opacity="0" result="BackgroundImageFix"/>
<feColorMatrix in="SourceAlpha" type="matrix" values="0 0 0 0 0 0 0 0 0 0 0 0 0 0 0 0 0 0 127 0"/>
<feOffset dy="2"/>
<feGaussianBlur stdDeviation="5"/>
<feColorMatrix type="matrix" values="0 0 0 0 0 0 0 0 0 0 0 0 0 0 0 0 0 0 0.1 0"/>
<feBlend mode="normal" in2="BackgroundImageFix" result="effect1_dropShadow"/>
<feBlend mode="normal" in="SourceGraphic" in2="effect1_dropShadow" result="shape"/>
</filter>
</defs>
</svg>
