<svg width="79" height="77" viewBox="0 0 79 77" fill="none" xmlns="http://www.w3.org/2000/svg">
<path fill-rule="evenodd" clip-rule="evenodd" d="M32.8471 1.68173C32.8471 0.752937 33.6001 0 34.5289 0H44.1989C45.1277 0 45.8807 0.752935 45.8807 1.68173V7.91913C45.8807 8.77468 46.4835 9.50973 47.31 9.7308C48.1357 9.95165 49.0154 9.61376 49.4428 8.87353L52.5614 3.47191C53.0258 2.66755 54.0544 2.39196 54.8587 2.85635L63.2332 7.69139C64.0376 8.15579 64.3132 9.18432 63.8488 9.98867L60.7255 15.3984C60.2984 16.1381 60.4487 17.0714 61.0526 17.6754C61.6566 18.2793 62.5899 18.4296 63.3296 18.0026L68.7394 14.8792C69.5438 14.4148 70.5723 14.6904 71.0367 15.4948L75.8717 23.8693C76.3361 24.6736 76.0605 25.7022 75.2562 26.1666L69.8543 29.2853C69.1141 29.7127 68.7762 30.5924 68.9971 31.4181C69.2181 32.2446 69.9531 32.8474 70.8087 32.8474H77.0459C77.9746 32.8474 78.7276 33.6003 78.7276 34.5291V44.1992C78.7276 45.128 77.9746 45.8809 77.0459 45.8809H70.8085C69.953 45.8809 69.218 46.4837 68.9969 47.3101C68.776 48.1358 69.1139 49.0155 69.8541 49.4429L75.2557 52.5615C76.06 53.0259 76.3356 54.0544 75.8712 54.8588L71.0362 63.2333C70.5718 64.0377 69.5433 64.3133 68.7389 63.8489L63.3291 60.7255C62.5894 60.2985 61.6562 60.4487 61.0523 61.0526C60.4484 61.6565 60.2981 62.5898 60.7251 63.3294L63.8484 68.739C64.3128 69.5434 64.0372 70.5719 63.2328 71.0363L54.8583 75.8713C54.0539 76.3357 53.0254 76.0602 52.561 75.2558L52.528 75.1986L43.4555 54.9948C42.9389 53.8444 43.6119 52.5138 44.7713 52.0177C49.6812 49.9169 53.1214 45.0421 53.1214 39.3637C53.1214 31.7657 46.962 25.6063 39.364 25.6063C31.766 25.6063 25.6067 31.7657 25.6067 39.3637C25.6067 45.042 29.0468 49.9168 33.9565 52.0176C35.1159 52.5138 35.7889 53.8442 35.2723 54.9947L26.2007 75.1964L26.1663 75.2559C25.702 76.0603 24.6734 76.3359 23.8691 75.8715L15.4945 71.0364C14.6902 70.572 14.4146 69.5435 14.879 68.7391L18.0024 63.3292C18.4295 62.5895 18.2792 61.6562 17.6753 61.0523C17.0713 60.4483 16.138 60.298 15.3984 60.7251L9.98857 63.8484C9.18421 64.3128 8.15568 64.0372 7.69129 63.2329L2.85624 54.8583C2.39185 54.054 2.66744 53.0255 3.4718 52.5611L8.87371 49.4423C9.61386 49.015 9.95172 48.1353 9.73089 47.3097C9.50986 46.4833 8.77488 45.8805 7.91941 45.8805H1.68173C0.752936 45.8805 0 45.1276 0 44.1988V34.5287C0 33.5999 0.752935 32.847 1.68173 32.847H7.91929C8.77485 32.847 9.5099 32.2442 9.73097 31.4177C9.95183 30.592 9.61393 29.7122 8.8737 29.2849L3.47206 26.1662C2.6677 25.7018 2.39211 24.6733 2.8565 23.8689L7.69155 15.4944C8.15594 14.69 9.18447 14.4144 9.98883 14.8788L15.3987 18.0022C16.1384 18.4293 17.0716 18.279 17.6756 17.6751C18.2795 17.0711 18.4298 16.1378 18.0028 15.3982L14.8795 9.98855C14.4151 9.18419 14.6907 8.15566 15.4951 7.69127L23.8696 2.85623C24.674 2.39183 25.7025 2.66742 26.1669 3.47178L29.2857 8.87365C29.713 9.61373 30.5925 9.95157 31.4181 9.73076C32.2444 9.50974 32.8471 8.77482 32.8471 7.91943V1.68173Z" fill="#2F374A"/>
<path d="M46.6046 39.5615C46.6046 43.5605 43.3627 46.8024 39.3637 46.8024C35.3647 46.8024 32.1228 43.5605 32.1228 39.5615C32.1228 35.5624 35.3647 32.3206 39.3637 32.3206C43.3627 32.3206 46.6046 35.5624 46.6046 39.5615Z" fill="#F8C62C"/>
</svg>
