<svg width="269" height="220" viewBox="0 0 269 220" fill="none" xmlns="http://www.w3.org/2000/svg">
<path d="M149.447 24.037C76.0157 10.6201 34.7842 51.8938 23.3473 74.2078C6.59101 106.9 13.095 140.186 50.6709 173.987C97.6408 216.238 224.67 157.207 248.083 126.349C271.496 95.4921 241.236 40.8081 149.447 24.037Z" fill="#DEE0E9"/>
<rect x="50" y="40" width="182" height="137" rx="8" fill="white"/>
<path fill-rule="evenodd" clip-rule="evenodd" d="M58 40C53.5817 40 50 43.5817 50 48V59H232V48C232 43.5817 228.418 40 224 40H58Z" fill="#F7F7F7"/>
<circle cx="70.5" cy="49.5" r="2.5" fill="#D8D8D8"/>
<circle cx="78.5" cy="49.5" r="2.5" fill="#D8D8D8"/>
<circle cx="86.5" cy="49.5" r="2.5" fill="#D8D8D8"/>
<g opacity="0.7">
<path d="M73.436 87.7355C73.436 86.4273 74.4965 85.3668 75.8047 85.3668H126.669C127.978 85.3668 129.038 86.4273 129.038 87.7355V100.202C129.038 101.51 127.978 102.571 126.669 102.571H75.8047C74.4965 102.571 73.436 101.51 73.436 100.202V87.7355Z" fill="#7185B5"/>
<path fill-rule="evenodd" clip-rule="evenodd" d="M73 87.7355C73 86.1863 74.2559 84.9304 75.805 84.9304H126.67C128.219 84.9304 129.475 86.1863 129.475 87.7355V100.202C129.475 101.751 128.219 103.007 126.67 103.007H75.805C74.2559 103.007 73 101.751 73 100.202V87.7355ZM75.805 85.8031C74.7378 85.8031 73.8727 86.6682 73.8727 87.7355V100.202C73.8727 101.27 74.7378 102.135 75.805 102.135H126.67C127.737 102.135 128.602 101.27 128.602 100.202V87.7355C128.602 86.6682 127.737 85.8031 126.67 85.8031H75.805Z" fill="#2F374A"/>
<path d="M73.436 87.7355C73.436 86.4273 74.4965 85.3668 75.8047 85.3668H116.945C118.253 85.3668 119.314 86.4273 119.314 87.7355V100.202C119.314 101.51 118.253 102.571 116.945 102.571H75.8047C74.4965 102.571 73.436 101.51 73.436 100.202V87.7355Z" fill="white"/>
<path fill-rule="evenodd" clip-rule="evenodd" d="M73 87.7355C73 86.1863 74.2559 84.9304 75.805 84.9304H116.946C118.495 84.9304 119.751 86.1863 119.751 87.7355V100.202C119.751 101.751 118.495 103.007 116.946 103.007H75.805C74.2559 103.007 73 101.751 73 100.202V87.7355ZM75.805 85.8031C74.7378 85.8031 73.8727 86.6682 73.8727 87.7355V100.202C73.8727 101.27 74.7378 102.135 75.805 102.135H116.946C118.013 102.135 118.878 101.27 118.878 100.202V87.7355C118.878 86.6682 118.013 85.8031 116.946 85.8031H75.805Z" fill="#2F374A"/>
<path fill-rule="evenodd" clip-rule="evenodd" d="M111.46 96.7116C112.975 96.7116 114.203 95.4837 114.203 93.9689C114.203 92.4541 112.975 91.2262 111.46 91.2262C110.16 91.2262 109.071 92.1311 108.789 93.3456H103.419C103.178 93.3456 102.983 93.5409 102.983 93.7819V94.0312C102.983 94.2722 103.178 94.4676 103.419 94.4676H108.763C108.997 95.7442 110.116 96.7116 111.46 96.7116Z" fill="#7185B5"/>
<path fill-rule="evenodd" clip-rule="evenodd" d="M111.46 95.8389C112.493 95.8389 113.33 95.0017 113.33 93.9689C113.33 92.9361 112.493 92.0989 111.46 92.0989C110.427 92.0989 109.59 92.9361 109.59 93.9689C109.59 95.0017 110.427 95.8389 111.46 95.8389ZM111.46 96.7116C112.975 96.7116 114.203 95.4837 114.203 93.9689C114.203 92.4541 112.975 91.2262 111.46 91.2262C109.945 91.2262 108.718 92.4541 108.718 93.9689C108.718 95.4837 109.945 96.7116 111.46 96.7116Z" fill="#2F374A"/>
<path d="M81.3215 90.964C81.4765 90.6957 81.8196 90.6038 82.0879 90.7587V90.7587C82.3562 90.9136 82.4482 91.2567 82.2932 91.525L79.1765 96.9233C79.0216 97.1917 78.6785 97.2836 78.4102 97.1287V97.1287C78.1419 96.9738 78.0499 96.6307 78.2048 96.3623L81.3215 90.964Z" fill="#7185B5"/>
<path d="M85.6851 90.964C85.84 90.6957 86.1831 90.6038 86.4514 90.7587V90.7587C86.7197 90.9136 86.8117 91.2567 86.6568 91.525L83.5401 96.9233C83.3851 97.1917 83.042 97.2836 82.7737 97.1287V97.1287C82.5054 96.9738 82.4134 96.6307 82.5684 96.3623L85.6851 90.964Z" fill="#7185B5"/>
<path d="M89.9238 90.964C90.0788 90.6957 90.4219 90.6038 90.6902 90.7587V90.7587C90.9585 90.9136 91.0505 91.2567 90.8955 91.525L87.7788 96.9233C87.6239 97.1917 87.2808 97.2836 87.0125 97.1287V97.1287C86.7441 96.9738 86.6522 96.6307 86.8071 96.3623L89.9238 90.964Z" fill="#7185B5"/>
<path d="M94.2871 90.964C94.442 90.6957 94.7851 90.6038 95.0535 90.7587V90.7587C95.3218 90.9136 95.4137 91.2567 95.2588 91.525L92.1421 96.9233C91.9872 97.1917 91.6441 97.2836 91.3758 97.1287V97.1287C91.1074 96.9738 91.0155 96.6307 91.1704 96.3623L94.2871 90.964Z" fill="#7185B5"/>
<path d="M98.5256 90.964C98.6806 90.6957 99.0237 90.6038 99.292 90.7587V90.7587C99.5603 90.9136 99.6523 91.2567 99.4973 91.525L96.3806 96.9233C96.2257 97.1917 95.8826 97.2836 95.6143 97.1287V97.1287C95.346 96.9738 95.254 96.6307 95.4089 96.3623L98.5256 90.964Z" fill="#7185B5"/>
<path d="M122.182 91.1639C122.182 90.854 122.433 90.6028 122.743 90.6028V90.6028C123.052 90.6028 123.304 90.854 123.304 91.1639V96.6493C123.304 96.9591 123.052 97.2103 122.743 97.2103V97.2103C122.433 97.2103 122.182 96.9591 122.182 96.6493V91.1639Z" fill="#F8C62C"/>
<path d="M125.423 91.1639C125.423 90.854 125.674 90.6028 125.984 90.6028V90.6028C126.294 90.6028 126.545 90.854 126.545 91.1639V96.6493C126.545 96.9591 126.294 97.2103 125.984 97.2103V97.2103C125.674 97.2103 125.423 96.9591 125.423 96.6493V91.1639Z" fill="#2F374A"/>
<path d="M73.4363 106.934C73.4363 105.626 74.4968 104.566 75.805 104.566H126.67C127.978 104.566 129.038 105.626 129.038 106.934V119.401C129.038 120.709 127.978 121.77 126.67 121.77H75.805C74.4968 121.77 73.4363 120.709 73.4363 119.401V106.934Z" fill="#7185B5"/>
<path fill-rule="evenodd" clip-rule="evenodd" d="M73 106.934C73 105.385 74.2559 104.129 75.805 104.129H126.67C128.219 104.129 129.475 105.385 129.475 106.934V119.401C129.475 120.95 128.219 122.206 126.67 122.206H75.805C74.2559 122.206 73 120.95 73 119.401V106.934ZM75.805 105.002C74.7378 105.002 73.8727 105.867 73.8727 106.934V119.401C73.8727 120.468 74.7378 121.334 75.805 121.334H126.67C127.737 121.334 128.602 120.468 128.602 119.401V106.934C128.602 105.867 127.737 105.002 126.67 105.002H75.805Z" fill="#2F374A"/>
<path d="M73.4363 106.934C73.4363 105.626 74.4968 104.566 75.805 104.566H116.946C118.254 104.566 119.314 105.626 119.314 106.934V119.401C119.314 120.709 118.254 121.77 116.946 121.77H75.805C74.4968 121.77 73.4363 120.709 73.4363 119.401V106.934Z" fill="white"/>
<path fill-rule="evenodd" clip-rule="evenodd" d="M73 106.934C73 105.385 74.2559 104.129 75.805 104.129H116.946C118.495 104.129 119.751 105.385 119.751 106.934V119.401C119.751 120.95 118.495 122.206 116.946 122.206H75.805C74.2559 122.206 73 120.95 73 119.401V106.934ZM75.805 105.002C74.7378 105.002 73.8727 105.867 73.8727 106.934V119.401C73.8727 120.468 74.7378 121.334 75.805 121.334H116.946C118.013 121.334 118.878 120.468 118.878 119.401V106.934C118.878 105.867 118.013 105.002 116.946 105.002H75.805Z" fill="#2F374A"/>
<path fill-rule="evenodd" clip-rule="evenodd" d="M111.46 115.911C112.975 115.911 114.203 114.683 114.203 113.168C114.203 111.653 112.975 110.425 111.46 110.425C110.16 110.425 109.071 111.33 108.789 112.544H103.419C103.178 112.544 102.983 112.74 102.983 112.981V113.23C102.983 113.471 103.178 113.666 103.419 113.666H108.763C108.997 114.943 110.116 115.911 111.46 115.911Z" fill="#7185B5"/>
<path fill-rule="evenodd" clip-rule="evenodd" d="M111.46 115.038C112.493 115.038 113.33 114.201 113.33 113.168C113.33 112.135 112.493 111.298 111.46 111.298C110.427 111.298 109.59 112.135 109.59 113.168C109.59 114.201 110.427 115.038 111.46 115.038ZM111.46 115.911C112.975 115.911 114.203 114.683 114.203 113.168C114.203 111.653 112.975 110.425 111.46 110.425C109.945 110.425 108.718 111.653 108.718 113.168C108.718 114.683 109.945 115.911 111.46 115.911Z" fill="#2F374A"/>
<path d="M81.3218 110.163C81.4767 109.895 81.8198 109.803 82.0881 109.958V109.958C82.3565 110.113 82.4484 110.456 82.2935 110.724L79.1768 116.122C79.0219 116.391 78.6788 116.483 78.4104 116.328V116.328C78.1421 116.173 78.0502 115.83 78.2051 115.561L81.3218 110.163Z" fill="#7185B5"/>
<path d="M85.6851 110.163C85.84 109.895 86.1831 109.803 86.4514 109.958V109.958C86.7197 110.113 86.8117 110.456 86.6568 110.724L83.5401 116.122C83.3851 116.391 83.042 116.483 82.7737 116.328V116.328C82.5054 116.173 82.4134 115.83 82.5684 115.561L85.6851 110.163Z" fill="#7185B5"/>
<path d="M89.9241 110.163C90.079 109.895 90.4221 109.803 90.6904 109.958V109.958C90.9588 110.113 91.0507 110.456 90.8958 110.724L87.7791 116.122C87.6242 116.391 87.281 116.483 87.0127 116.328V116.328C86.7444 116.173 86.6525 115.83 86.8074 115.561L89.9241 110.163Z" fill="#7185B5"/>
<path d="M94.2874 110.163C94.4423 109.895 94.7854 109.803 95.0537 109.958V109.958C95.322 110.113 95.414 110.456 95.2591 110.724L92.1424 116.122C91.9874 116.391 91.6443 116.483 91.376 116.328V116.328C91.1077 116.173 91.0157 115.83 91.1707 115.561L94.2874 110.163Z" fill="#7185B5"/>
<path d="M98.5259 110.163C98.6808 109.895 99.0239 109.803 99.2922 109.958V109.958C99.5606 110.113 99.6525 110.456 99.4976 110.724L96.3809 116.122C96.226 116.391 95.8829 116.483 95.6145 116.328V116.328C95.3462 116.173 95.2543 115.83 95.4092 115.561L98.5259 110.163Z" fill="#7185B5"/>
<path d="M122.182 110.363C122.182 110.053 122.433 109.802 122.743 109.802V109.802C123.052 109.802 123.304 110.053 123.304 110.363V115.848C123.304 116.158 123.052 116.409 122.743 116.409V116.409C122.433 116.409 122.182 116.158 122.182 115.848V110.363Z" fill="#2F374A"/>
<path d="M125.423 110.363C125.423 110.053 125.675 109.802 125.984 109.802V109.802C126.294 109.802 126.545 110.053 126.545 110.363V115.848C126.545 116.158 126.294 116.409 125.984 116.409V116.409C125.675 116.409 125.423 116.158 125.423 115.848V110.363Z" fill="#F8C62C"/>
<path d="M78.6724 120.523C78.6724 119.766 79.2863 119.152 80.0437 119.152H104.105C104.862 119.152 105.476 119.766 105.476 120.523V121.895C105.476 122.652 104.862 123.266 104.105 123.266H80.0437C79.2863 123.266 78.6724 122.652 78.6724 121.895V120.523Z" fill="#2F374A"/>
<path d="M75.4309 102.571H127.168V104.69H75.4309V102.571Z" fill="#2F374A"/>
<path d="M75.4309 121.77H127.168V123.889H75.4309V121.77Z" fill="#2F374A"/>
<path d="M73.4363 125.635C73.4363 124.326 74.4968 123.266 75.805 123.266H126.67C127.978 123.266 129.038 124.326 129.038 125.635V138.101C129.038 139.41 127.978 140.47 126.67 140.47H75.805C74.4968 140.47 73.4363 139.41 73.4363 138.101V125.635Z" fill="#7185B5"/>
<path fill-rule="evenodd" clip-rule="evenodd" d="M73 125.635C73 124.085 74.2559 122.83 75.805 122.83H126.67C128.219 122.83 129.475 124.085 129.475 125.635V138.101C129.475 139.651 128.219 140.907 126.67 140.907H75.805C74.2559 140.907 73 139.651 73 138.101V125.635ZM75.805 123.702C74.7378 123.702 73.8727 124.567 73.8727 125.635V138.101C73.8727 139.169 74.7378 140.034 75.805 140.034H126.67C127.737 140.034 128.602 139.169 128.602 138.101V125.635C128.602 124.567 127.737 123.702 126.67 123.702H75.805Z" fill="#2F374A"/>
<path d="M73.4363 125.635C73.4363 124.326 74.4968 123.266 75.805 123.266H116.946C118.254 123.266 119.314 124.326 119.314 125.635V138.101C119.314 139.41 118.254 140.47 116.946 140.47H75.805C74.4968 140.47 73.4363 139.41 73.4363 138.101V125.635Z" fill="white"/>
<path fill-rule="evenodd" clip-rule="evenodd" d="M73 125.635C73 124.085 74.2559 122.83 75.805 122.83H116.946C118.495 122.83 119.751 124.085 119.751 125.635V138.101C119.751 139.651 118.495 140.907 116.946 140.907H75.805C74.2559 140.907 73 139.651 73 138.101V125.635ZM75.805 123.702C74.7378 123.702 73.8727 124.567 73.8727 125.635V138.101C73.8727 139.169 74.7378 140.034 75.805 140.034H116.946C118.013 140.034 118.878 139.169 118.878 138.101V125.635C118.878 124.567 118.013 123.702 116.946 123.702H75.805Z" fill="#2F374A"/>
<path fill-rule="evenodd" clip-rule="evenodd" d="M111.46 134.611C112.975 134.611 114.203 133.383 114.203 131.868C114.203 130.353 112.975 129.125 111.46 129.125C110.16 129.125 109.071 130.03 108.789 131.245H103.419C103.178 131.245 102.983 131.44 102.983 131.681V131.93C102.983 132.171 103.178 132.367 103.419 132.367H108.763C108.997 133.643 110.116 134.611 111.46 134.611Z" fill="#7185B5"/>
<path fill-rule="evenodd" clip-rule="evenodd" d="M111.46 133.738C112.493 133.738 113.33 132.901 113.33 131.868C113.33 130.835 112.493 129.998 111.46 129.998C110.427 129.998 109.59 130.835 109.59 131.868C109.59 132.901 110.427 133.738 111.46 133.738ZM111.46 134.611C112.975 134.611 114.203 133.383 114.203 131.868C114.203 130.353 112.975 129.125 111.46 129.125C109.945 129.125 108.718 130.353 108.718 131.868C108.718 133.383 109.945 134.611 111.46 134.611Z" fill="#2F374A"/>
<path d="M81.3218 128.863C81.4767 128.595 81.8198 128.503 82.0881 128.658V128.658C82.3565 128.813 82.4484 129.156 82.2935 129.424L79.1768 134.823C79.0219 135.091 78.6788 135.183 78.4104 135.028V135.028C78.1421 134.873 78.0502 134.53 78.2051 134.261L81.3218 128.863Z" fill="#7185B5"/>
<path d="M85.6851 128.863C85.84 128.595 86.1831 128.503 86.4514 128.658V128.658C86.7197 128.813 86.8117 129.156 86.6568 129.424L83.5401 134.823C83.3851 135.091 83.042 135.183 82.7737 135.028V135.028C82.5054 134.873 82.4134 134.53 82.5684 134.261L85.6851 128.863Z" fill="#7185B5"/>
<path d="M89.9241 128.863C90.079 128.595 90.4221 128.503 90.6904 128.658V128.658C90.9588 128.813 91.0507 129.156 90.8958 129.424L87.7791 134.823C87.6242 135.091 87.281 135.183 87.0127 135.028V135.028C86.7444 134.873 86.6525 134.53 86.8074 134.261L89.9241 128.863Z" fill="#7185B5"/>
<path d="M94.2874 128.863C94.4423 128.595 94.7854 128.503 95.0537 128.658V128.658C95.322 128.813 95.414 129.156 95.2591 129.424L92.1424 134.823C91.9874 135.091 91.6443 135.183 91.376 135.028V135.028C91.1077 134.873 91.0157 134.53 91.1707 134.261L94.2874 128.863Z" fill="#7185B5"/>
<path d="M98.5259 128.863C98.6808 128.595 99.0239 128.503 99.2922 128.658V128.658C99.5606 128.813 99.6525 129.156 99.4976 129.424L96.3809 134.823C96.226 135.091 95.8829 135.183 95.6145 135.028V135.028C95.3462 134.873 95.2543 134.53 95.4092 134.261L98.5259 128.863Z" fill="#7185B5"/>
<path d="M122.182 129.063C122.182 128.753 122.433 128.502 122.743 128.502V128.502C123.052 128.502 123.304 128.753 123.304 129.063V134.548C123.304 134.858 123.052 135.109 122.743 135.109V135.109C122.433 135.109 122.182 134.858 122.182 134.548V129.063Z" fill="#2F374A"/>
<path d="M125.423 129.063C125.423 128.753 125.675 128.502 125.984 128.502V128.502C126.294 128.502 126.545 128.753 126.545 129.063V134.548C126.545 134.858 126.294 135.109 125.984 135.109V135.109C125.675 135.109 125.423 134.858 125.423 134.548V129.063Z" fill="#F8C62C"/>
<path d="M78.6724 139.224C78.6724 138.466 79.2863 137.852 80.0437 137.852H104.105C104.862 137.852 105.476 138.466 105.476 139.224V140.595C105.476 141.352 104.862 141.966 104.105 141.966H80.0437C79.2863 141.966 78.6724 141.352 78.6724 140.595V139.224Z" fill="#2F374A"/>
<path d="M75.4309 140.47H127.168V142.59H75.4309V140.47Z" fill="#2F374A"/>
<path d="M73.4363 144.335C73.4363 143.027 74.4968 141.966 75.805 141.966H126.67C127.978 141.966 129.038 143.027 129.038 144.335V156.802C129.038 158.11 127.978 159.17 126.67 159.17H75.805C74.4968 159.17 73.4363 158.11 73.4363 156.802V144.335Z" fill="#7185B5"/>
<path fill-rule="evenodd" clip-rule="evenodd" d="M73 144.335C73 142.786 74.2559 141.53 75.805 141.53H126.67C128.219 141.53 129.475 142.786 129.475 144.335V156.802C129.475 158.351 128.219 159.607 126.67 159.607H75.805C74.2559 159.607 73 158.351 73 156.802V144.335ZM75.805 142.403C74.7378 142.403 73.8727 143.268 73.8727 144.335V156.802C73.8727 157.869 74.7378 158.734 75.805 158.734H126.67C127.737 158.734 128.602 157.869 128.602 156.802V144.335C128.602 143.268 127.737 142.403 126.67 142.403H75.805Z" fill="#2F374A"/>
<path d="M73.4363 144.335C73.4363 143.027 74.4968 141.966 75.805 141.966H116.946C118.254 141.966 119.314 143.027 119.314 144.335V156.802C119.314 158.11 118.254 159.17 116.946 159.17H75.805C74.4968 159.17 73.4363 158.11 73.4363 156.802V144.335Z" fill="white"/>
<path fill-rule="evenodd" clip-rule="evenodd" d="M73 144.335C73 142.786 74.2559 141.53 75.805 141.53H116.946C118.495 141.53 119.751 142.786 119.751 144.335V156.802C119.751 158.351 118.495 159.607 116.946 159.607H75.805C74.2559 159.607 73 158.351 73 156.802V144.335ZM75.805 142.403C74.7378 142.403 73.8727 143.268 73.8727 144.335V156.802C73.8727 157.869 74.7378 158.734 75.805 158.734H116.946C118.013 158.734 118.878 157.869 118.878 156.802V144.335C118.878 143.268 118.013 142.403 116.946 142.403H75.805Z" fill="#2F374A"/>
<path fill-rule="evenodd" clip-rule="evenodd" d="M111.46 153.311C112.975 153.311 114.203 152.083 114.203 150.568C114.203 149.054 112.975 147.826 111.46 147.826C110.16 147.826 109.071 148.731 108.789 149.945H103.419C103.178 149.945 102.983 150.14 102.983 150.381V150.631C102.983 150.872 103.178 151.067 103.419 151.067H108.763C108.997 152.344 110.116 153.311 111.46 153.311Z" fill="#7185B5"/>
<path fill-rule="evenodd" clip-rule="evenodd" d="M111.46 152.438C112.493 152.438 113.33 151.601 113.33 150.568C113.33 149.536 112.493 148.698 111.46 148.698C110.427 148.698 109.59 149.536 109.59 150.568C109.59 151.601 110.427 152.438 111.46 152.438ZM111.46 153.311C112.975 153.311 114.203 152.083 114.203 150.568C114.203 149.054 112.975 147.826 111.46 147.826C109.945 147.826 108.718 149.054 108.718 150.568C108.718 152.083 109.945 153.311 111.46 153.311Z" fill="#2F374A"/>
<path d="M81.3218 147.563C81.4767 147.295 81.8198 147.203 82.0881 147.358V147.358C82.3565 147.513 82.4484 147.856 82.2935 148.124L79.1768 153.523C79.0219 153.791 78.6788 153.883 78.4104 153.728V153.728C78.1421 153.573 78.0502 153.23 78.2051 152.962L81.3218 147.563Z" fill="#7185B5"/>
<path d="M85.6851 147.563C85.84 147.295 86.1831 147.203 86.4514 147.358V147.358C86.7197 147.513 86.8117 147.856 86.6568 148.124L83.5401 153.523C83.3851 153.791 83.042 153.883 82.7737 153.728V153.728C82.5054 153.573 82.4134 153.23 82.5684 152.962L85.6851 147.563Z" fill="#7185B5"/>
<path d="M89.9241 147.563C90.079 147.295 90.4221 147.203 90.6904 147.358V147.358C90.9588 147.513 91.0507 147.856 90.8958 148.124L87.7791 153.523C87.6242 153.791 87.281 153.883 87.0127 153.728V153.728C86.7444 153.573 86.6525 153.23 86.8074 152.962L89.9241 147.563Z" fill="#7185B5"/>
<path d="M94.2874 147.563C94.4423 147.295 94.7854 147.203 95.0537 147.358V147.358C95.322 147.513 95.414 147.856 95.2591 148.124L92.1424 153.523C91.9874 153.791 91.6443 153.883 91.376 153.728V153.728C91.1077 153.573 91.0157 153.23 91.1707 152.962L94.2874 147.563Z" fill="#7185B5"/>
<path d="M98.5259 147.563C98.6808 147.295 99.0239 147.203 99.2922 147.358V147.358C99.5606 147.513 99.6525 147.856 99.4976 148.124L96.3809 153.523C96.226 153.791 95.8829 153.883 95.6145 153.728V153.728C95.3462 153.573 95.2543 153.23 95.4092 152.962L98.5259 147.563Z" fill="#7185B5"/>
<path d="M122.182 147.763C122.182 147.453 122.433 147.202 122.743 147.202V147.202C123.052 147.202 123.304 147.453 123.304 147.763V153.249C123.304 153.559 123.052 153.81 122.743 153.81V153.81C122.433 153.81 122.182 153.559 122.182 153.249V147.763Z" fill="#F8C62C"/>
<path d="M125.423 147.763C125.423 147.453 125.675 147.202 125.984 147.202V147.202C126.294 147.202 126.545 147.453 126.545 147.763V153.249C126.545 153.559 126.294 153.81 125.984 153.81V153.81C125.675 153.81 125.423 153.559 125.423 153.249V147.763Z" fill="#2F374A"/>
<path d="M78.6724 157.924C78.6724 157.166 79.2863 156.552 80.0437 156.552H104.105C104.862 156.552 105.476 157.166 105.476 157.924V159.295C105.476 160.053 104.862 160.666 104.105 160.666H80.0437C79.2863 160.666 78.6724 160.053 78.6724 159.295V157.924Z" fill="#2F374A"/>
<path d="M75.4309 159.17H127.168V161.29H75.4309V159.17Z" fill="#2F374A"/>
<path fill-rule="evenodd" clip-rule="evenodd" d="M129.739 97.1439C128.442 95.4834 126.722 94.3068 125.545 93.7384L125.925 92.9526C127.2 93.5686 129.033 94.8231 130.427 96.6066C131.825 98.3968 132.801 100.75 132.272 103.525C130.971 110.354 125.23 111.972 122.736 112.292L122.625 111.426C124.993 111.122 130.222 109.623 131.415 103.362C131.884 100.901 131.031 98.7976 129.739 97.1439Z" fill="#2F374A"/>
<path fill-rule="evenodd" clip-rule="evenodd" d="M129.924 114.491C128.43 113.636 126.863 113.288 125.896 113.229L125.948 112.358C127.038 112.424 128.737 112.806 130.357 113.734C131.984 114.665 133.55 116.159 134.315 118.453C136.218 124.163 132.645 129.439 126.709 130.859L126.506 130.01C132.04 128.687 135.199 123.865 133.487 118.729C132.805 116.684 131.41 115.342 129.924 114.491Z" fill="#F8C62C"/>
<path fill-rule="evenodd" clip-rule="evenodd" d="M126.707 133.402C125.148 132.53 123.484 132.109 122.444 131.99L122.543 131.123C123.684 131.253 125.461 131.705 127.133 132.64C128.807 133.577 130.415 135.021 131.135 137.152C132.883 142.333 130.935 147.433 125.984 149.778L125.61 148.99C130.133 146.847 131.925 142.223 130.308 137.431C129.681 135.572 128.266 134.274 126.707 133.402Z" fill="#2F374A"/>
</g>
<path d="M101.598 74.3168C101.598 72.7699 102.852 71.516 104.399 71.516H164.543C166.09 71.516 167.344 72.7699 167.344 74.3168V89.058C167.344 90.6048 166.09 91.8588 164.543 91.8588H104.399C102.852 91.8588 101.598 90.6048 101.598 89.058V74.3168Z" fill="#7185B5"/>
<path fill-rule="evenodd" clip-rule="evenodd" d="M101.083 74.3168C101.083 72.485 102.568 71 104.4 71H164.544C166.376 71 167.861 72.485 167.861 74.3168V89.058C167.861 90.8898 166.376 92.3747 164.544 92.3747H104.4C102.568 92.3747 101.083 90.8898 101.083 89.058V74.3168ZM104.4 72.0319C103.138 72.0319 102.115 73.0549 102.115 74.3168V89.058C102.115 90.3199 103.138 91.3428 104.4 91.3428H164.544C165.806 91.3428 166.829 90.3199 166.829 89.058V74.3168C166.829 73.0549 165.806 72.0319 164.544 72.0319H104.4Z" fill="#2F374A"/>
<path d="M101.598 74.3168C101.598 72.7699 102.852 71.516 104.399 71.516H153.045C154.592 71.516 155.846 72.7699 155.846 74.3168V89.058C155.846 90.6048 154.592 91.8588 153.045 91.8588H104.399C102.852 91.8588 101.598 90.6048 101.598 89.058V74.3168Z" fill="white"/>
<path fill-rule="evenodd" clip-rule="evenodd" d="M101.083 74.3168C101.083 72.485 102.568 71 104.4 71H153.046C154.878 71 156.362 72.485 156.362 74.3168V89.058C156.362 90.8898 154.878 92.3747 153.046 92.3747H104.4C102.568 92.3747 101.083 90.8898 101.083 89.058V74.3168ZM104.4 72.0319C103.138 72.0319 102.115 73.0549 102.115 74.3168V89.058C102.115 90.3199 103.138 91.3428 104.4 91.3428H153.046C154.308 91.3428 155.331 90.3199 155.331 89.058V74.3168C155.331 73.0549 154.308 72.0319 153.046 72.0319H104.4Z" fill="#2F374A"/>
<path fill-rule="evenodd" clip-rule="evenodd" d="M146.559 84.9305C148.35 84.9305 149.802 83.4785 149.802 81.6874C149.802 79.8963 148.35 78.4443 146.559 78.4443C145.021 78.4443 143.733 79.5143 143.4 80.9503H137.051C136.766 80.9503 136.535 81.1813 136.535 81.4663V81.7611C136.535 82.0461 136.766 82.277 137.051 82.277H143.369C143.646 83.7866 144.969 84.9305 146.559 84.9305Z" fill="#7185B5"/>
<path fill-rule="evenodd" clip-rule="evenodd" d="M146.559 83.8986C147.78 83.8986 148.77 82.9086 148.77 81.6874C148.77 80.4662 147.78 79.4762 146.559 79.4762C145.338 79.4762 144.348 80.4662 144.348 81.6874C144.348 82.9086 145.338 83.8986 146.559 83.8986ZM146.559 84.9305C148.35 84.9305 149.802 83.4785 149.802 81.6874C149.802 79.8963 148.35 78.4443 146.559 78.4443C144.768 78.4443 143.316 79.8963 143.316 81.6874C143.316 83.4785 144.768 84.9305 146.559 84.9305Z" fill="#2F374A"/>
<path d="M110.922 78.1344C111.105 77.8171 111.511 77.7084 111.828 77.8916V77.8916C112.145 78.0747 112.254 78.4804 112.071 78.7977L108.385 85.1808C108.202 85.4981 107.797 85.6068 107.479 85.4236V85.4236C107.162 85.2405 107.053 84.8348 107.236 84.5175L110.922 78.1344Z" fill="#7185B5"/>
<path d="M116.081 78.1344C116.265 77.8171 116.67 77.7084 116.988 77.8916V77.8916C117.305 78.0747 117.414 78.4804 117.23 78.7977L113.545 85.1808C113.362 85.4981 112.956 85.6068 112.639 85.4236V85.4236C112.322 85.2405 112.213 84.8348 112.396 84.5175L116.081 78.1344Z" fill="#7185B5"/>
<path d="M121.093 78.1344C121.277 77.8171 121.682 77.7084 122 77.8916V77.8916C122.317 78.0747 122.426 78.4804 122.242 78.7977L118.557 85.1808C118.374 85.4981 117.968 85.6068 117.651 85.4236V85.4236C117.334 85.2405 117.225 84.8348 117.408 84.5175L121.093 78.1344Z" fill="#7185B5"/>
<path d="M126.253 78.1344C126.436 77.8171 126.841 77.7084 127.159 77.8916V77.8916C127.476 78.0747 127.585 78.4804 127.402 78.7977L123.716 85.1808C123.533 85.4981 123.127 85.6068 122.81 85.4236V85.4236C122.493 85.2405 122.384 84.8348 122.567 84.5175L126.253 78.1344Z" fill="#7185B5"/>
<path d="M131.265 78.1344C131.448 77.8171 131.853 77.7084 132.171 77.8916V77.8916C132.488 78.0747 132.597 78.4804 132.413 78.7977L128.728 85.1808C128.545 85.4981 128.139 85.6068 127.822 85.4236V85.4236C127.505 85.2405 127.396 84.8348 127.579 84.5175L131.265 78.1344Z" fill="#7185B5"/>
<path d="M159.236 78.3706C159.236 78.0043 159.533 77.7073 159.9 77.7073V77.7073C160.266 77.7073 160.563 78.0043 160.563 78.3706V84.8568C160.563 85.2231 160.266 85.5201 159.9 85.5201V85.5201C159.533 85.5201 159.236 85.2231 159.236 84.8568V78.3706Z" fill="#F8C62C"/>
<path d="M163.069 78.3706C163.069 78.0043 163.366 77.7073 163.732 77.7073V77.7073C164.099 77.7073 164.396 78.0043 164.396 78.3706V84.8568C164.396 85.2231 164.099 85.5201 163.732 85.5201V85.5201C163.366 85.5201 163.069 85.2231 163.069 84.8568V78.3706Z" fill="#2F374A"/>
<path d="M101.598 97.0182C101.598 95.4714 102.852 94.2174 104.398 94.2174H164.543C166.089 94.2174 167.343 95.4714 167.343 97.0182V111.759C167.343 113.306 166.089 114.56 164.543 114.56H104.398C102.852 114.56 101.598 113.306 101.598 111.759V97.0182Z" fill="#7185B5"/>
<path fill-rule="evenodd" clip-rule="evenodd" d="M101.082 97.0182C101.082 95.1864 102.567 93.7015 104.399 93.7015H164.543C166.374 93.7015 167.859 95.1864 167.859 97.0182V111.759C167.859 113.591 166.374 115.076 164.543 115.076H104.399C102.567 115.076 101.082 113.591 101.082 111.759V97.0182ZM104.399 94.7334C103.137 94.7334 102.114 95.7563 102.114 97.0182V111.759C102.114 113.021 103.137 114.044 104.399 114.044H164.543C165.805 114.044 166.828 113.021 166.828 111.759V97.0182C166.828 95.7563 165.805 94.7334 164.543 94.7334H104.399Z" fill="#2F374A"/>
<path d="M101.598 97.0182C101.598 95.4714 102.852 94.2174 104.398 94.2174H153.044C154.591 94.2174 155.845 95.4714 155.845 97.0182V111.759C155.845 113.306 154.591 114.56 153.044 114.56H104.398C102.852 114.56 101.598 113.306 101.598 111.759V97.0182Z" fill="white"/>
<path fill-rule="evenodd" clip-rule="evenodd" d="M101.082 97.0182C101.082 95.1864 102.567 93.7015 104.399 93.7015H153.044C154.876 93.7015 156.361 95.1864 156.361 97.0182V111.759C156.361 113.591 154.876 115.076 153.044 115.076H104.399C102.567 115.076 101.082 113.591 101.082 111.759V97.0182ZM104.399 94.7334C103.137 94.7334 102.114 95.7563 102.114 97.0182V111.759C102.114 113.021 103.137 114.044 104.399 114.044H153.044C154.306 114.044 155.329 113.021 155.329 111.759V97.0182C155.329 95.7563 154.306 94.7334 153.044 94.7334H104.399Z" fill="#2F374A"/>
<path fill-rule="evenodd" clip-rule="evenodd" d="M146.558 107.632C148.349 107.632 149.801 106.18 149.801 104.389C149.801 102.598 148.349 101.146 146.558 101.146C145.021 101.146 143.733 102.216 143.399 103.652H137.05C136.765 103.652 136.534 103.883 136.534 104.168V104.463C136.534 104.747 136.765 104.978 137.05 104.978H143.369C143.646 106.488 144.968 107.632 146.558 107.632Z" fill="#7185B5"/>
<path fill-rule="evenodd" clip-rule="evenodd" d="M146.558 106.6C147.78 106.6 148.77 105.61 148.77 104.389C148.77 103.168 147.78 102.178 146.558 102.178C145.337 102.178 144.347 103.168 144.347 104.389C144.347 105.61 145.337 106.6 146.558 106.6ZM146.558 107.632C148.35 107.632 149.802 106.18 149.802 104.389C149.802 102.598 148.35 101.146 146.558 101.146C144.767 101.146 143.315 102.598 143.315 104.389C143.315 106.18 144.767 107.632 146.558 107.632Z" fill="#2F374A"/>
<path d="M110.921 100.836C111.104 100.518 111.51 100.41 111.827 100.593V100.593C112.145 100.776 112.253 101.182 112.07 101.499L108.385 107.882C108.202 108.2 107.796 108.308 107.479 108.125V108.125C107.161 107.942 107.053 107.536 107.236 107.219L110.921 100.836Z" fill="#7185B5"/>
<path d="M116.081 100.836C116.264 100.518 116.67 100.41 116.987 100.593V100.593C117.305 100.776 117.413 101.182 117.23 101.499L113.545 107.882C113.362 108.2 112.956 108.308 112.639 108.125V108.125C112.321 107.942 112.213 107.536 112.396 107.219L116.081 100.836Z" fill="#7185B5"/>
<path d="M121.093 100.836C121.276 100.518 121.682 100.41 121.999 100.593V100.593C122.317 100.776 122.425 101.182 122.242 101.499L118.557 107.882C118.374 108.2 117.968 108.308 117.651 108.125V108.125C117.333 107.942 117.225 107.536 117.408 107.219L121.093 100.836Z" fill="#7185B5"/>
<path d="M126.252 100.836C126.435 100.518 126.841 100.41 127.158 100.593V100.593C127.476 100.776 127.584 101.182 127.401 101.499L123.716 107.882C123.533 108.2 123.127 108.308 122.81 108.125V108.125C122.493 107.942 122.384 107.536 122.567 107.219L126.252 100.836Z" fill="#7185B5"/>
<path d="M131.264 100.836C131.447 100.518 131.853 100.41 132.17 100.593V100.593C132.488 100.776 132.596 101.182 132.413 101.499L128.728 107.882C128.545 108.2 128.139 108.308 127.822 108.125V108.125C127.504 107.942 127.396 107.536 127.579 107.219L131.264 100.836Z" fill="#7185B5"/>
<path d="M159.236 101.072C159.236 100.706 159.533 100.409 159.899 100.409V100.409C160.266 100.409 160.563 100.706 160.563 101.072V107.558C160.563 107.924 160.266 108.221 159.899 108.221V108.221C159.533 108.221 159.236 107.924 159.236 107.558V101.072Z" fill="#2F374A"/>
<path d="M163.068 101.072C163.068 100.706 163.365 100.409 163.732 100.409V100.409C164.098 100.409 164.395 100.706 164.395 101.072V107.558C164.395 107.924 164.098 108.221 163.732 108.221V108.221C163.365 108.221 163.068 107.924 163.068 107.558V101.072Z" fill="#F8C62C"/>
<path d="M107.789 113.086C107.789 112.191 108.515 111.465 109.411 111.465H137.861C138.757 111.465 139.483 112.191 139.483 113.086V114.708C139.483 115.603 138.757 116.329 137.861 116.329H109.411C108.515 116.329 107.789 115.603 107.789 114.708V113.086Z" fill="#2F374A"/>
<path d="M103.956 91.8588H165.132V94.3648H103.956V91.8588Z" fill="#2F374A"/>
<path d="M103.956 114.56H165.132V117.066H103.956V114.56Z" fill="#2F374A"/>
<path d="M101.598 119.13C101.598 117.583 102.852 116.329 104.398 116.329H164.543C166.089 116.329 167.343 117.583 167.343 119.13V133.871C167.343 135.418 166.089 136.672 164.543 136.672H104.398C102.852 136.672 101.598 135.418 101.598 133.871V119.13Z" fill="#7185B5"/>
<path fill-rule="evenodd" clip-rule="evenodd" d="M101.082 119.13C101.082 117.298 102.567 115.813 104.399 115.813H164.543C166.374 115.813 167.859 117.298 167.859 119.13V133.871C167.859 135.703 166.374 137.188 164.543 137.188H104.399C102.567 137.188 101.082 135.703 101.082 133.871V119.13ZM104.399 116.845C103.137 116.845 102.114 117.868 102.114 119.13V133.871C102.114 135.133 103.137 136.156 104.399 136.156H164.543C165.805 136.156 166.828 135.133 166.828 133.871V119.13C166.828 117.868 165.805 116.845 164.543 116.845H104.399Z" fill="#2F374A"/>
<path d="M101.598 119.13C101.598 117.583 102.852 116.329 104.398 116.329H153.044C154.591 116.329 155.845 117.583 155.845 119.13V133.871C155.845 135.418 154.591 136.672 153.044 136.672H104.398C102.852 136.672 101.598 135.418 101.598 133.871V119.13Z" fill="white"/>
<path fill-rule="evenodd" clip-rule="evenodd" d="M101.082 119.13C101.082 117.298 102.567 115.813 104.399 115.813H153.044C154.876 115.813 156.361 117.298 156.361 119.13V133.871C156.361 135.703 154.876 137.188 153.044 137.188H104.399C102.567 137.188 101.082 135.703 101.082 133.871V119.13ZM104.399 116.845C103.137 116.845 102.114 117.868 102.114 119.13V133.871C102.114 135.133 103.137 136.156 104.399 136.156H153.044C154.306 136.156 155.329 135.133 155.329 133.871V119.13C155.329 117.868 154.306 116.845 153.044 116.845H104.399Z" fill="#2F374A"/>
<path fill-rule="evenodd" clip-rule="evenodd" d="M146.558 129.744C148.349 129.744 149.801 128.292 149.801 126.501C149.801 124.71 148.349 123.258 146.558 123.258C145.021 123.258 143.733 124.328 143.399 125.764H137.05C136.765 125.764 136.534 125.995 136.534 126.28V126.574C136.534 126.859 136.765 127.09 137.05 127.09H143.369C143.646 128.6 144.968 129.744 146.558 129.744Z" fill="#7185B5"/>
<path fill-rule="evenodd" clip-rule="evenodd" d="M146.558 128.712C147.78 128.712 148.77 127.722 148.77 126.501C148.77 125.279 147.78 124.289 146.558 124.289C145.337 124.289 144.347 125.279 144.347 126.501C144.347 127.722 145.337 128.712 146.558 128.712ZM146.558 129.744C148.35 129.744 149.802 128.292 149.802 126.501C149.802 124.71 148.35 123.258 146.558 123.258C144.767 123.258 143.315 124.71 143.315 126.501C143.315 128.292 144.767 129.744 146.558 129.744Z" fill="#2F374A"/>
<path d="M110.921 122.948C111.104 122.63 111.51 122.522 111.827 122.705V122.705C112.145 122.888 112.253 123.294 112.07 123.611L108.385 129.994C108.202 130.311 107.796 130.42 107.479 130.237V130.237C107.161 130.054 107.053 129.648 107.236 129.331L110.921 122.948Z" fill="#7185B5"/>
<path d="M116.081 122.948C116.264 122.63 116.67 122.522 116.987 122.705V122.705C117.305 122.888 117.413 123.294 117.23 123.611L113.545 129.994C113.362 130.311 112.956 130.42 112.639 130.237V130.237C112.321 130.054 112.213 129.648 112.396 129.331L116.081 122.948Z" fill="#7185B5"/>
<path d="M121.093 122.948C121.276 122.63 121.682 122.522 121.999 122.705V122.705C122.317 122.888 122.425 123.294 122.242 123.611L118.557 129.994C118.374 130.311 117.968 130.42 117.651 130.237V130.237C117.333 130.054 117.225 129.648 117.408 129.331L121.093 122.948Z" fill="#7185B5"/>
<path d="M126.252 122.948C126.435 122.63 126.841 122.522 127.158 122.705V122.705C127.476 122.888 127.584 123.294 127.401 123.611L123.716 129.994C123.533 130.311 123.127 130.42 122.81 130.237V130.237C122.493 130.054 122.384 129.648 122.567 129.331L126.252 122.948Z" fill="#7185B5"/>
<path d="M131.264 122.948C131.447 122.63 131.853 122.522 132.17 122.705V122.705C132.488 122.888 132.596 123.294 132.413 123.611L128.728 129.994C128.545 130.311 128.139 130.42 127.822 130.237V130.237C127.504 130.054 127.396 129.648 127.579 129.331L131.264 122.948Z" fill="#7185B5"/>
<path d="M159.236 123.184C159.236 122.817 159.533 122.52 159.899 122.52V122.52C160.266 122.52 160.563 122.817 160.563 123.184V129.67C160.563 130.036 160.266 130.333 159.899 130.333V130.333C159.533 130.333 159.236 130.036 159.236 129.67V123.184Z" fill="#2F374A"/>
<path d="M163.068 123.184C163.068 122.817 163.365 122.52 163.732 122.52V122.52C164.098 122.52 164.395 122.817 164.395 123.184V129.67C164.395 130.036 164.098 130.333 163.732 130.333V130.333C163.365 130.333 163.068 130.036 163.068 129.67V123.184Z" fill="#F8C62C"/>
<path d="M107.789 135.198C107.789 134.302 108.515 133.576 109.411 133.576H137.861C138.757 133.576 139.483 134.302 139.483 135.198V136.819C139.483 137.715 138.757 138.441 137.861 138.441H109.411C108.515 138.441 107.789 137.715 107.789 136.819V135.198Z" fill="#2F374A"/>
<path d="M103.956 136.672H165.132V139.178H103.956V136.672Z" fill="#2F374A"/>
<path d="M101.598 141.242C101.598 139.695 102.852 138.441 104.398 138.441H164.543C166.089 138.441 167.343 139.695 167.343 141.242V155.983C167.343 157.53 166.089 158.784 164.543 158.784H104.398C102.852 158.784 101.598 157.53 101.598 155.983V141.242Z" fill="#7185B5"/>
<path fill-rule="evenodd" clip-rule="evenodd" d="M101.082 141.242C101.082 139.41 102.567 137.925 104.399 137.925H164.543C166.374 137.925 167.859 139.41 167.859 141.242V155.983C167.859 157.815 166.374 159.3 164.543 159.3H104.399C102.567 159.3 101.082 157.815 101.082 155.983V141.242ZM104.399 138.957C103.137 138.957 102.114 139.98 102.114 141.242V155.983C102.114 157.245 103.137 158.268 104.399 158.268H164.543C165.805 158.268 166.828 157.245 166.828 155.983V141.242C166.828 139.98 165.805 138.957 164.543 138.957H104.399Z" fill="#2F374A"/>
<path d="M101.598 141.242C101.598 139.695 102.852 138.441 104.398 138.441H153.044C154.591 138.441 155.845 139.695 155.845 141.242V155.983C155.845 157.53 154.591 158.784 153.044 158.784H104.398C102.852 158.784 101.598 157.53 101.598 155.983V141.242Z" fill="white"/>
<path fill-rule="evenodd" clip-rule="evenodd" d="M101.082 141.242C101.082 139.41 102.567 137.925 104.399 137.925H153.044C154.876 137.925 156.361 139.41 156.361 141.242V155.983C156.361 157.815 154.876 159.3 153.044 159.3H104.399C102.567 159.3 101.082 157.815 101.082 155.983V141.242ZM104.399 138.957C103.137 138.957 102.114 139.98 102.114 141.242V155.983C102.114 157.245 103.137 158.268 104.399 158.268H153.044C154.306 158.268 155.329 157.245 155.329 155.983V141.242C155.329 139.98 154.306 138.957 153.044 138.957H104.399Z" fill="#2F374A"/>
<path fill-rule="evenodd" clip-rule="evenodd" d="M146.558 151.855C148.349 151.855 149.801 150.404 149.801 148.612C149.801 146.821 148.349 145.369 146.558 145.369C145.021 145.369 143.733 146.439 143.399 147.875H137.05C136.765 147.875 136.534 148.106 136.534 148.391V148.686C136.534 148.971 136.765 149.202 137.05 149.202H143.369C143.646 150.712 144.968 151.855 146.558 151.855Z" fill="#7185B5"/>
<path fill-rule="evenodd" clip-rule="evenodd" d="M146.558 150.824C147.78 150.824 148.77 149.834 148.77 148.612C148.77 147.391 147.78 146.401 146.558 146.401C145.337 146.401 144.347 147.391 144.347 148.612C144.347 149.834 145.337 150.824 146.558 150.824ZM146.558 151.855C148.35 151.855 149.802 150.404 149.802 148.612C149.802 146.821 148.35 145.369 146.558 145.369C144.767 145.369 143.315 146.821 143.315 148.612C143.315 150.404 144.767 151.855 146.558 151.855Z" fill="#2F374A"/>
<path d="M110.921 145.059C111.104 144.742 111.51 144.633 111.827 144.817V144.817C112.145 145 112.253 145.405 112.07 145.723L108.385 152.106C108.202 152.423 107.796 152.532 107.479 152.349V152.349C107.161 152.165 107.053 151.76 107.236 151.442L110.921 145.059Z" fill="#7185B5"/>
<path d="M116.081 145.059C116.264 144.742 116.67 144.633 116.987 144.817V144.817C117.305 145 117.413 145.405 117.23 145.723L113.545 152.106C113.362 152.423 112.956 152.532 112.639 152.349V152.349C112.321 152.165 112.213 151.76 112.396 151.442L116.081 145.059Z" fill="#7185B5"/>
<path d="M121.093 145.059C121.276 144.742 121.682 144.633 121.999 144.817V144.817C122.317 145 122.425 145.405 122.242 145.723L118.557 152.106C118.374 152.423 117.968 152.532 117.651 152.349V152.349C117.333 152.165 117.225 151.76 117.408 151.442L121.093 145.059Z" fill="#7185B5"/>
<path d="M126.252 145.059C126.435 144.742 126.841 144.633 127.158 144.817V144.817C127.476 145 127.584 145.405 127.401 145.723L123.716 152.106C123.533 152.423 123.127 152.532 122.81 152.349V152.349C122.493 152.165 122.384 151.76 122.567 151.442L126.252 145.059Z" fill="#7185B5"/>
<path d="M131.264 145.059C131.447 144.742 131.853 144.633 132.17 144.817V144.817C132.488 145 132.596 145.405 132.413 145.723L128.728 152.106C128.545 152.423 128.139 152.532 127.822 152.349V152.349C127.504 152.165 127.396 151.76 127.579 151.442L131.264 145.059Z" fill="#7185B5"/>
<path d="M159.236 145.296C159.236 144.929 159.533 144.632 159.899 144.632V144.632C160.266 144.632 160.563 144.929 160.563 145.296V151.782C160.563 152.148 160.266 152.445 159.899 152.445V152.445C159.533 152.445 159.236 152.148 159.236 151.782V145.296Z" fill="#F8C62C"/>
<path d="M163.068 145.296C163.068 144.929 163.365 144.632 163.732 144.632V144.632C164.098 144.632 164.395 144.929 164.395 145.296V151.782C164.395 152.148 164.098 152.445 163.732 152.445V152.445C163.365 152.445 163.068 152.148 163.068 151.782V145.296Z" fill="#2F374A"/>
<path d="M107.789 157.31C107.789 156.414 108.515 155.688 109.411 155.688H137.861C138.757 155.688 139.483 156.414 139.483 157.31V158.931C139.483 159.827 138.757 160.553 137.861 160.553H109.411C108.515 160.553 107.789 159.827 107.789 158.931V157.31Z" fill="#2F374A"/>
<path d="M103.956 158.784H165.132V161.29H103.956V158.784Z" fill="#2F374A"/>
<path fill-rule="evenodd" clip-rule="evenodd" d="M168.171 85.4416C166.637 83.4782 164.604 82.087 163.213 81.4149L163.661 80.4857C165.169 81.2141 167.337 82.6974 168.985 84.8063C170.638 86.9231 171.792 89.7054 171.167 92.9872C169.629 101.062 162.841 102.975 159.891 103.353L159.76 102.329C162.559 101.97 168.743 100.197 170.153 92.7942C170.708 89.8846 169.699 87.3971 168.171 85.4416Z" fill="#2F374A"/>
<path fill-rule="evenodd" clip-rule="evenodd" d="M168.39 105.953C166.624 104.942 164.771 104.531 163.627 104.462L163.689 103.432C164.977 103.51 166.987 103.961 168.903 105.058C170.826 106.159 172.678 107.926 173.582 110.638C175.833 117.39 171.608 123.629 164.589 125.307L164.349 124.304C170.892 122.739 174.627 117.037 172.603 110.964C171.797 108.546 170.148 106.96 168.39 105.953Z" fill="#F8C62C"/>
<path fill-rule="evenodd" clip-rule="evenodd" d="M164.588 128.314C162.744 127.283 160.776 126.785 159.546 126.645L159.663 125.62C161.012 125.774 163.114 126.308 165.091 127.414C167.071 128.521 168.972 130.228 169.823 132.748C171.89 138.875 169.587 144.905 163.732 147.678L163.29 146.746C168.638 144.212 170.757 138.745 168.845 133.078C168.103 130.881 166.43 129.345 164.588 128.314Z" fill="#2F374A"/>
<g filter="url(#filter0_d_1560_509)">
<rect x="184" y="133.249" width="29.4654" height="27.9347" rx="13.9673" fill="white"/>
</g>
<path fill-rule="evenodd" clip-rule="evenodd" d="M192.577 143.19C191.8 143.922 191.637 145.062 192.109 145.965L192.046 146.024L193.061 147.087L194.311 145.893L193.425 144.965L196.591 141.978L198.933 144.469L198.927 144.475L200.083 145.715C200.086 145.711 200.089 145.706 200.092 145.701L200.094 145.703C200.481 145.099 200.562 144.351 200.331 143.686C200.287 143.557 200.231 143.431 200.163 143.309L200.162 143.31C200.072 143.148 199.96 142.995 199.827 142.854L198.188 141.111C198.078 140.995 197.96 140.893 197.835 140.804L197.836 140.803C196.95 140.176 195.717 140.237 194.896 141.009L192.577 143.19ZM198.586 147.209L197.389 145.925L194.569 148.583C195.444 149.137 196.615 149.055 197.406 148.314L198.586 147.209Z" fill="#2F374A"/>
<path fill-rule="evenodd" clip-rule="evenodd" d="M194.706 153.347C195.438 154.124 196.579 154.287 197.481 153.815L197.541 153.878L198.603 152.863L197.409 151.613L196.481 152.499L193.494 149.333L195.985 146.991L195.991 146.997L197.232 145.841C197.227 145.838 197.222 145.835 197.217 145.832L197.219 145.83C196.684 145.487 196.037 145.384 195.434 145.526C195.224 145.574 195.019 145.653 194.825 145.761L194.826 145.762C194.665 145.853 194.512 145.964 194.371 146.097L192.627 147.737C192.511 147.846 192.409 147.964 192.321 148.089L192.32 148.088C191.692 148.974 191.753 150.207 192.525 151.028L194.706 153.347ZM198.726 147.338L197.441 148.535L200.099 151.354C200.653 150.48 200.571 149.309 199.83 148.518L198.726 147.338Z" fill="#F8C62C"/>
<path fill-rule="evenodd" clip-rule="evenodd" d="M204.887 151.242C205.665 150.51 205.828 149.369 205.356 148.467L205.419 148.408L204.404 147.345L203.154 148.539L204.04 149.467L200.874 152.454L198.531 149.963L198.538 149.957L197.382 148.716C197.378 148.721 197.375 148.726 197.372 148.731L197.37 148.729C197.01 149.292 196.915 149.978 197.09 150.608C197.139 150.785 197.21 150.958 197.302 151.123L197.302 151.122C197.393 151.283 197.505 151.436 197.637 151.577L199.277 153.321C199.386 153.437 199.505 153.539 199.63 153.628L199.629 153.628C200.514 154.256 201.748 154.195 202.569 153.423L204.887 151.242ZM198.879 147.222L200.076 148.507L202.895 145.849C202.02 145.295 200.85 145.377 200.059 146.117L198.879 147.222Z" fill="#2F374A"/>
<path fill-rule="evenodd" clip-rule="evenodd" d="M202.758 141.061C202.026 140.283 200.886 140.12 199.984 140.592L199.924 140.53L198.861 141.545L200.055 142.795L200.983 141.908L203.97 145.074L201.48 147.417L201.473 147.41L200.233 148.567C200.238 148.57 200.242 148.573 200.247 148.576L200.245 148.578C200.818 148.944 201.52 149.036 202.158 148.848C202.324 148.8 202.485 148.733 202.639 148.646L202.638 148.646C202.8 148.555 202.953 148.443 203.094 148.311L204.837 146.671C204.953 146.562 205.056 146.444 205.144 146.319L205.145 146.319C205.772 145.434 205.712 144.2 204.939 143.379L202.758 141.061ZM198.739 147.07L200.023 145.872L197.365 143.053C196.811 143.928 196.893 145.098 197.634 145.89L198.739 147.07Z" fill="#F8C62C"/>
<g filter="url(#filter1_d_1560_509)">
<rect x="184" y="71" width="29.4654" height="27.9347" rx="13.9673" fill="white"/>
</g>
<path d="M191.215 91.4418L191.77 90.7684L205.554 90.808L206.149 91.521C206.545 91.9567 206.162 92.2208 205.911 92.3132H191.572C190.906 92.1548 191.057 91.6663 191.215 91.4418Z" fill="#2F374A"/>
<path d="M194.622 79.7169L198.305 81.2617V85.6982L194.622 84.1533V79.7169Z" fill="#2F374A"/>
<path d="M202.663 79.7169L198.979 81.2617V85.6982L202.663 84.1533V79.7169Z" fill="#2F374A"/>
<path d="M198.662 77.6967L195.176 79.2811L198.662 80.7071L202.187 79.2019L198.662 77.6967Z" fill="#F8C62C"/>
<path fill-rule="evenodd" clip-rule="evenodd" d="M194.067 80.4298H192.8C192.362 80.4298 192.008 80.7845 192.008 81.222V90.1742H205.475V81.222C205.475 80.7845 205.121 80.4298 204.683 80.4298H203.416V81.6182H204.129V88.9066H193.196V81.6182H194.067V80.4298Z" fill="#2F374A"/>
<g filter="url(#filter2_d_1560_509)">
<rect x="184" y="102.124" width="29.4654" height="27.9347" rx="13.9673" fill="white"/>
</g>
<path d="M202.399 116.434C202.091 117.016 201.343 117.512 201.008 117.687C201.527 115.593 200.631 113.393 200.488 113.151C200.311 112.851 199.555 110.31 196.643 110.687C194.283 110.993 193.551 113.165 193.567 114.233C192.938 114.966 192.636 115.912 192.54 116.412C191.513 114.979 190.951 112.918 192.663 110.473C194.374 108.027 198.446 108.027 200.28 110.118C201.748 111.791 202.304 115.033 202.399 116.434Z" fill="#F8C62C"/>
<path d="M197.278 110.832C197.936 110.808 198.74 111.207 199.059 111.41C196.986 112.007 195.547 113.873 195.409 114.117C195.238 114.421 193.415 116.346 195.198 118.68C196.642 120.571 198.887 120.1 199.803 119.552C200.886 119.723 201.807 119.468 202.289 119.301C201.561 120.907 199.976 122.493 197.003 122.233C194.029 121.974 191.993 118.448 192.887 115.814C193.602 113.707 196.112 111.615 197.278 110.832Z" fill="#2F374A"/>
<path d="M194.931 118.042C194.529 117.271 194.566 116.594 194.582 116.216C196.135 117.713 198.47 118.027 198.752 118.024C199.1 118.02 201.678 118.637 202.808 115.925C203.723 113.729 202.225 111.983 201.292 111.463C200.788 110.296 200.164 109.806 199.84 109.519C201.595 109.347 203.721 109.88 204.983 112.586C206.245 115.291 204.209 118.817 201.482 119.36C199.299 119.794 196.191 118.66 194.931 118.042Z" fill="#2F374A"/>
<defs>
<filter id="filter0_d_1560_509" x="176" y="125.249" width="49.4653" height="47.9347" filterUnits="userSpaceOnUse" color-interpolation-filters="sRGB">
<feFlood flood-opacity="0" result="BackgroundImageFix"/>
<feColorMatrix in="SourceAlpha" type="matrix" values="0 0 0 0 0 0 0 0 0 0 0 0 0 0 0 0 0 0 127 0" result="hardAlpha"/>
<feOffset dx="2" dy="2"/>
<feGaussianBlur stdDeviation="5"/>
<feColorMatrix type="matrix" values="0 0 0 0 0 0 0 0 0 0 0 0 0 0 0 0 0 0 0.15 0"/>
<feBlend mode="normal" in2="BackgroundImageFix" result="effect1_dropShadow_1560_509"/>
<feBlend mode="normal" in="SourceGraphic" in2="effect1_dropShadow_1560_509" result="shape"/>
</filter>
<filter id="filter1_d_1560_509" x="176" y="63" width="49.4653" height="47.9347" filterUnits="userSpaceOnUse" color-interpolation-filters="sRGB">
<feFlood flood-opacity="0" result="BackgroundImageFix"/>
<feColorMatrix in="SourceAlpha" type="matrix" values="0 0 0 0 0 0 0 0 0 0 0 0 0 0 0 0 0 0 127 0" result="hardAlpha"/>
<feOffset dx="2" dy="2"/>
<feGaussianBlur stdDeviation="5"/>
<feColorMatrix type="matrix" values="0 0 0 0 0 0 0 0 0 0 0 0 0 0 0 0 0 0 0.15 0"/>
<feBlend mode="normal" in2="BackgroundImageFix" result="effect1_dropShadow_1560_509"/>
<feBlend mode="normal" in="SourceGraphic" in2="effect1_dropShadow_1560_509" result="shape"/>
</filter>
<filter id="filter2_d_1560_509" x="176" y="94.1244" width="49.4653" height="47.9347" filterUnits="userSpaceOnUse" color-interpolation-filters="sRGB">
<feFlood flood-opacity="0" result="BackgroundImageFix"/>
<feColorMatrix in="SourceAlpha" type="matrix" values="0 0 0 0 0 0 0 0 0 0 0 0 0 0 0 0 0 0 127 0" result="hardAlpha"/>
<feOffset dx="2" dy="2"/>
<feGaussianBlur stdDeviation="5"/>
<feColorMatrix type="matrix" values="0 0 0 0 0 0 0 0 0 0 0 0 0 0 0 0 0 0 0.15 0"/>
<feBlend mode="normal" in2="BackgroundImageFix" result="effect1_dropShadow_1560_509"/>
<feBlend mode="normal" in="SourceGraphic" in2="effect1_dropShadow_1560_509" result="shape"/>
</filter>
</defs>
</svg>
