<svg width="72" height="72" viewBox="0 0 72 72" fill="none" xmlns="http://www.w3.org/2000/svg">
<path fill-rule="evenodd" clip-rule="evenodd" d="M3.831 14.958C-0.234999 18.7832 -1.08601 24.7445 1.38117 29.4596L1.05502 29.7712L6.35969 35.3249L12.8922 29.0852L8.25911 24.2347L24.8063 8.62371L37.0507 21.6413L37.016 21.674L43.0603 28.1585C43.0768 28.1332 43.0931 28.1079 43.1094 28.0825L43.119 28.0928C44.9516 25.2268 45.4714 21.7469 44.6515 18.5279C44.3941 17.5109 44.0031 16.5196 43.4775 15.5818L43.4738 15.5852C42.9995 14.7416 42.4162 13.9414 41.7233 13.2048L33.1526 4.09284C32.5821 3.48633 31.9641 2.95133 31.3098 2.4882L31.3136 2.4846C26.6854 -0.795228 20.2382 -0.477398 15.9472 3.55941L3.831 14.958ZM35.2367 35.9658L28.9788 29.2521L14.2437 43.1453C18.8157 46.0416 24.9346 45.6122 29.0688 41.7411L35.2367 35.9658Z" fill="#2F374A"/>
<path fill-rule="evenodd" clip-rule="evenodd" d="M14.9583 68.041C18.7833 72.1069 24.7443 72.958 29.4594 70.4911L29.7715 70.8179L35.3252 65.5132L29.0856 58.9807L24.2355 63.6134L8.62379 47.0653L21.6404 34.8218L21.6741 34.8575L28.1585 28.8132C28.1328 28.7965 28.1071 28.7799 28.0814 28.7634L28.0915 28.7539C25.2012 26.906 21.6867 26.3932 18.4451 27.243C17.457 27.5004 16.494 27.8844 15.5815 28.3958L15.5848 28.3993C14.7411 28.8736 13.9408 29.457 13.2041 30.1499L4.09215 38.7207C3.48607 39.2908 2.95141 39.9083 2.4885 40.5621L2.48493 40.5583C-0.794974 45.1865 -0.477171 51.6338 3.55967 55.9248L14.9583 68.041ZM35.9657 36.6369L29.2522 42.8948L43.1451 57.6295C46.0413 53.0576 45.6119 46.9387 41.7408 42.8045L35.9657 36.6369Z" fill="#F8C62C"/>
<path fill-rule="evenodd" clip-rule="evenodd" d="M68.1688 57.0406C72.2347 53.2154 73.0857 47.2542 70.6187 42.5392L70.9451 42.2273L65.6405 36.6737L59.108 42.9133L63.7409 47.7637L47.1933 63.375L34.9495 50.358L34.9847 50.3248L28.9404 43.8403C28.9238 43.8657 28.9073 43.8913 28.8909 43.9169L28.8806 43.9059C26.9226 46.968 26.4632 50.731 27.5353 54.1277C27.7823 54.9148 28.1115 55.6823 28.5233 56.417L28.5262 56.4143C29.0005 57.2576 29.5836 58.0575 30.2763 58.7939L38.847 67.9058C39.4175 68.5123 40.0355 69.0473 40.6899 69.5105L40.6862 69.514C45.3143 72.7938 51.7616 72.476 56.0525 68.4391L68.1688 57.0406ZM36.764 36.0329L43.022 42.7467L57.7571 28.8534C53.1851 25.9571 47.0662 26.3865 42.932 30.2575L36.764 36.0329Z" fill="#2F374A"/>
<path fill-rule="evenodd" clip-rule="evenodd" d="M57.0422 3.831C53.2173 -0.234755 47.2564 -1.08591 42.5414 1.38073L42.2294 1.05399L36.6757 6.35867L42.9153 12.8912L47.7651 8.2588L63.3767 24.8067L50.3595 37.0507L50.3258 37.0151L43.8415 43.0592C43.8672 43.0759 43.8929 43.0925 43.9187 43.109L43.909 43.1181C46.8484 44.9974 50.4334 45.4958 53.7204 44.5845C54.6503 44.3281 55.5566 43.9589 56.4179 43.4762L56.415 43.4732C57.259 42.9987 58.0595 42.4152 58.7965 41.722L67.9084 33.1513C68.5145 32.5812 69.0491 31.9637 69.512 31.3099L69.5155 31.3137C72.7955 26.6855 72.4777 20.2382 68.4408 15.9472L57.0422 3.831ZM36.0341 35.2356L42.7477 28.9778L28.8543 14.2425C25.9581 18.8144 26.3875 24.9333 30.2586 29.0675L36.0341 35.2356Z" fill="#F8C62C"/>
</svg>
