<svg width="80" height="61" viewBox="0 0 80 61" fill="none" xmlns="http://www.w3.org/2000/svg">
<path fill-rule="evenodd" clip-rule="evenodd" d="M0 9.4262C0 4.22025 4.22025 0 9.4262 0H66.4023C71.6083 0 75.8285 4.22025 75.8285 9.4262V26.9913C73.9527 26.0263 71.9098 25.3404 69.7547 24.9884V24.8724C69.7547 19.3496 65.2776 14.8724 59.7547 14.8724H16.1803C10.6574 14.8724 6.18028 19.3496 6.18028 24.8724V44.253C6.18028 49.7758 10.6574 54.253 16.1803 54.253H47.7845C48.8596 56.4974 50.3286 58.5172 52.102 60.2229H9.4262C4.22025 60.2229 0 56.0027 0 50.7967V9.4262ZM16.1719 7.47553C16.1719 9.24496 14.7375 10.6794 12.9681 10.6794C11.1986 10.6794 9.76423 9.24496 9.76423 7.47553C9.76423 5.70611 11.1986 4.27171 12.9681 4.27171C14.7375 4.27171 16.1719 5.70611 16.1719 7.47553ZM21.2069 10.6794C22.9763 10.6794 24.4107 9.24496 24.4107 7.47553C24.4107 5.70611 22.9763 4.27171 21.2069 4.27171C19.4375 4.27171 18.0031 5.70611 18.0031 7.47553C18.0031 9.24496 19.4375 10.6794 21.2069 10.6794Z" fill="#2F374A"/>
<rect x="61.1262" y="30.6651" width="9.10648" height="26.6985" fill="#F8C62C"/>
<rect x="79.0281" y="39.4612" width="9.10648" height="26.6985" transform="rotate(90 79.0281 39.4612)" fill="#F8C62C"/>
</svg>
