<svg width="269" height="220" viewBox="0 0 269 220" fill="none" xmlns="http://www.w3.org/2000/svg">
<path d="M149.447 24.037C76.0157 10.6201 34.7842 51.8938 23.3473 74.2078C6.59101 106.9 13.095 140.186 50.6709 173.987C97.6408 216.238 224.67 157.207 248.083 126.349C271.496 95.4921 241.236 40.8081 149.447 24.037Z" fill="#DEE0E9"/>
<g filter="url(#filter0_d)">
<rect x="43" y="41" width="182" height="137" rx="8" fill="#F7F7F7"/>
<g filter="url(#filter1_d)">
<rect x="43" y="60" width="182" height="7" fill="white"/>
</g>
<g filter="url(#filter2_d)">
<path fill-rule="evenodd" clip-rule="evenodd" d="M222.259 73.4058H210.757C210.496 73.4058 210.283 73.192 210.283 72.9313V69.1304C210.283 68.8692 210.496 68.6559 210.757 68.6559H222.259C222.52 68.6559 222.733 68.8692 222.733 69.1304V72.9313C222.733 73.192 222.52 73.4058 222.259 73.4058Z" fill="#30374B"/>
<path fill-rule="evenodd" clip-rule="evenodd" d="M220.423 71.5054H212.482C212.221 71.5054 212.008 71.2916 212.008 71.0309C212.008 70.7696 212.221 70.5564 212.482 70.5564H220.423C220.684 70.5564 220.897 70.7696 220.897 71.0309C220.897 71.2916 220.684 71.5054 220.423 71.5054Z" fill="white"/>
<g filter="url(#filter3_d)">
<path fill-rule="evenodd" clip-rule="evenodd" d="M204.759 73.3528H209.401V68.7087H204.759V73.3528Z" fill="white"/>
</g>
<path fill-rule="evenodd" clip-rule="evenodd" d="M207.771 71.5054H206.389C206.128 71.5054 205.915 71.2916 205.915 71.0309C205.915 70.7696 206.128 70.5564 206.389 70.5564H207.771C208.032 70.5564 208.245 70.7696 208.245 71.0309C208.245 71.2916 208.032 71.5054 207.771 71.5054Z" fill="#C1C1C1"/>
<g filter="url(#filter4_d)">
<path fill-rule="evenodd" clip-rule="evenodd" d="M199 73.3528H203.642V68.7087H199V73.3528Z" fill="white"/>
</g>
<path fill-rule="evenodd" clip-rule="evenodd" d="M202.012 71.5054H200.63C200.369 71.5054 200.156 71.2916 200.156 71.0309C200.156 70.7696 200.369 70.5564 200.63 70.5564H202.012C202.273 70.5564 202.486 70.7696 202.486 71.0309C202.486 71.2916 202.273 71.5054 202.012 71.5054Z" fill="#C1C1C1"/>
<path fill-rule="evenodd" clip-rule="evenodd" d="M132.316 64H125.684C125.308 64 125 63.7747 125 63.5C125 63.2247 125.308 63 125.684 63H132.316C132.692 63 133 63.2247 133 63.5C133 63.7747 132.692 64 132.316 64Z" fill="#30374B"/>
<path fill-rule="evenodd" clip-rule="evenodd" d="M210.818 63.4118C210.818 64.7436 209.74 65.8235 208.409 65.8235C207.079 65.8235 206 64.7436 206 63.4118C206 62.0799 207.079 61 208.409 61C209.74 61 210.818 62.0799 210.818 63.4118Z" fill="#30374B"/>
<path fill-rule="evenodd" clip-rule="evenodd" d="M220.273 63.1856H212.233C212.022 63.1856 211.849 63.0127 211.849 62.8011C211.849 62.59 212.022 62.4171 212.233 62.4171H220.273C220.485 62.4171 220.657 62.59 220.657 62.8011C220.657 63.0127 220.485 63.1856 220.273 63.1856Z" fill="#C1C1C1"/>
<path fill-rule="evenodd" clip-rule="evenodd" d="M217.883 63.8706H212.116C211.969 63.8706 211.849 63.9912 211.849 64.1384C211.849 64.2862 211.969 64.4062 212.116 64.4062H217.883C218.031 64.4062 218.151 64.2862 218.151 64.1384C218.151 63.9912 218.031 63.8706 217.883 63.8706Z" fill="#C1C1C1"/>
<path fill-rule="evenodd" clip-rule="evenodd" d="M221.739 63.0863L222.064 63.4119L221.739 63.737C221.697 63.7785 221.697 63.8466 221.739 63.8875C221.78 63.929 221.848 63.929 221.889 63.8875L222.289 63.4872C222.331 63.4458 222.331 63.3781 222.289 63.3361L221.889 62.9358C221.848 62.8944 221.78 62.8944 221.739 62.9358C221.697 62.9773 221.697 63.0449 221.739 63.0863Z" fill="#30374B"/>
<path fill-rule="evenodd" clip-rule="evenodd" d="M45.0713 73.3528H66.9642V68.7087H45.0713V73.3528Z" fill="white"/>
<path fill-rule="evenodd" clip-rule="evenodd" d="M60.4835 71.5054H51.9366C51.6762 71.5054 51.4626 71.2916 51.4626 71.0309C51.4626 70.7696 51.6762 70.5564 51.9366 70.5564H60.4835C60.7445 70.5564 60.9575 70.7696 60.9575 71.0309C60.9575 71.2916 60.7445 71.5054 60.4835 71.5054Z" fill="#30374B"/>
<path fill-rule="evenodd" clip-rule="evenodd" d="M48.4961 71.5054H47.0082C46.7473 71.5054 46.5337 71.2916 46.5337 71.0309C46.5337 70.7696 46.7473 70.5564 47.0082 70.5564H48.4961C48.757 70.5564 48.97 70.7696 48.97 71.0309C48.97 71.2916 48.757 71.5054 48.4961 71.5054Z" fill="#30374B"/>
<path fill-rule="evenodd" clip-rule="evenodd" d="M64.2852 70.7054L64.6105 71.031L64.2852 71.3561C64.2438 71.3975 64.2438 71.4657 64.2852 71.5066C64.3266 71.5481 64.3942 71.5481 64.4356 71.5066L64.836 71.1063C64.8774 71.0648 64.8774 70.9967 64.836 70.9552L64.4356 70.5549C64.3942 70.5134 64.3266 70.5134 64.2852 70.5549C64.2438 70.5963 64.2438 70.664 64.2852 70.7054Z" fill="#30374B"/>
<path fill-rule="evenodd" clip-rule="evenodd" d="M68.8188 73.3528H90.7112V68.7087H68.8188V73.3528Z" fill="white"/>
<path fill-rule="evenodd" clip-rule="evenodd" d="M84.2308 71.5054H75.6839C75.4235 71.5054 75.21 71.2916 75.21 71.0309C75.21 70.7696 75.4235 70.5564 75.6839 70.5564H84.2308C84.4918 70.5564 84.7048 70.7696 84.7048 71.0309C84.7048 71.2916 84.4918 71.5054 84.2308 71.5054Z" fill="#30374B"/>
<path fill-rule="evenodd" clip-rule="evenodd" d="M72.2434 71.5054H70.7555C70.4946 71.5054 70.281 71.2916 70.281 71.0309C70.281 70.7696 70.4946 70.5564 70.7555 70.5564H72.2434C72.5043 70.5564 72.7174 70.7696 72.7174 71.0309C72.7174 71.2916 72.5043 71.5054 72.2434 71.5054Z" fill="#30374B"/>
<path fill-rule="evenodd" clip-rule="evenodd" d="M88.0328 70.7054L88.3575 71.031L88.0328 71.3561C87.9914 71.3975 87.9914 71.4657 88.0328 71.5066C88.0736 71.5481 88.1417 71.5481 88.1831 71.5066L88.5836 71.1063C88.625 71.0648 88.625 70.9967 88.5836 70.9552L88.1831 70.5549C88.1417 70.5134 88.0736 70.5134 88.0328 70.5549C87.9914 70.5963 87.9914 70.664 88.0328 70.7054Z" fill="#30374B"/>
<path fill-rule="evenodd" clip-rule="evenodd" d="M45 134.42H157.555V75.9484H45V134.42Z" fill="white"/>
<path fill-rule="evenodd" clip-rule="evenodd" d="M45 80.436H157.555V75.9484H45V80.436Z" fill="#F8F8F9"/>
<path fill-rule="evenodd" clip-rule="evenodd" d="M55.5545 78.6671H47.0077C46.7473 78.6671 46.5337 78.4533 46.5337 78.1926C46.5337 77.9314 46.7473 77.7181 47.0077 77.7181H55.5545C55.8155 77.7181 56.0285 77.9314 56.0285 78.1926C56.0285 78.4533 55.8155 78.6671 55.5545 78.6671Z" fill="#30374B"/>
<path fill-rule="evenodd" clip-rule="evenodd" d="M46.4377 132.641H88.7597V82.2052H46.4377V132.641Z" fill="#EAEAEA"/>
<g filter="url(#filter5_d)">
<path fill-rule="evenodd" clip-rule="evenodd" d="M46.4377 132.641H88.7597V122.123H46.4377V132.641Z" fill="white"/>
</g>
<path fill-rule="evenodd" clip-rule="evenodd" d="M50.7723 126.465H69.611C69.872 126.465 70.0845 126.679 70.0845 126.939V127.825C70.0845 128.086 69.872 128.3 69.611 128.3H50.7723C50.5114 128.3 50.2983 128.086 50.2983 127.825V126.939C50.2983 126.679 50.5114 126.465 50.7723 126.465Z" fill="#C1C1C1"/>
<path fill-rule="evenodd" clip-rule="evenodd" d="M86.5827 86.7727H82.8263C82.5299 86.7727 82.2864 86.5294 82.2864 86.2322V85.2237C82.2864 84.9265 82.5299 84.6832 82.8263 84.6832H86.5827C86.8796 84.6832 87.122 84.9265 87.122 85.2237V86.2322C87.122 86.5294 86.8796 86.7727 86.5827 86.7727Z" fill="#9E9E9E"/>
<path fill-rule="evenodd" clip-rule="evenodd" d="M75.6389 100.102L67.8117 96.5227C67.7006 96.472 67.5709 96.4726 67.4598 96.5238L61.6865 99.2083C61.4838 99.3027 61.3983 99.5377 61.4963 99.7335C61.5939 99.9293 61.8374 100.011 62.0401 99.9168L67.6385 97.3141L74.491 100.447L67.5976 103.39L59.9464 100.179C59.8205 100.125 59.6751 100.137 59.5601 100.21C59.4452 100.283 59.376 100.407 59.376 100.539V109.053C59.376 109.206 59.4675 109.345 59.6108 109.409L67.4641 112.962C67.4658 112.962 67.4674 112.963 67.4696 112.964C67.4783 112.968 67.4881 112.972 67.4984 112.975L67.5093 112.979C67.5197 112.982 67.53 112.985 67.5409 112.987C67.5447 112.988 67.5475 112.989 67.5507 112.99C67.5622 112.992 67.5736 112.994 67.5856 112.996C67.5883 112.996 67.5911 112.996 67.5938 112.997C67.6079 112.998 67.6221 112.999 67.6368 112.999C67.6521 112.999 67.6662 112.998 67.681 112.997C67.6831 112.996 67.6859 112.996 67.6891 112.996C67.7006 112.994 67.712 112.992 67.7234 112.99C67.7273 112.989 67.73 112.988 67.7333 112.987C67.7441 112.985 67.7545 112.982 67.7648 112.979C67.7692 112.978 67.773 112.976 67.7763 112.975C67.7861 112.971 67.7959 112.968 67.8052 112.963C67.8068 112.963 67.809 112.962 67.8106 112.961L75.6378 109.409C75.7811 109.344 75.8721 109.206 75.8721 109.053V100.457C75.8721 100.306 75.7816 100.167 75.6389 100.102ZM75.0571 108.804L68.0449 111.986V105.779C68.0449 105.562 67.8624 105.386 67.6368 105.386C67.4118 105.386 67.2293 105.562 67.2293 105.779V111.987L60.1916 108.804V101.139L67.4364 104.181C67.541 104.224 67.6597 104.224 67.7638 104.18L75.0571 101.065V108.804Z" fill="#9E9E9E"/>
<path fill-rule="evenodd" clip-rule="evenodd" d="M57.038 87.3349H48.6083C48.3478 87.3349 48.1343 87.1211 48.1343 86.8604V84.2315C48.1343 83.9708 48.3478 83.757 48.6083 83.757H57.038C57.2989 83.757 57.512 83.9708 57.512 84.2315V86.8604C57.512 87.1211 57.2989 87.3349 57.038 87.3349Z" fill="#30374B"/>
<path fill-rule="evenodd" clip-rule="evenodd" d="M55.7722 85.9034H49.7903C49.5936 85.9034 49.4329 85.7425 49.4329 85.5461C49.4329 85.3492 49.5936 85.1884 49.7903 85.1884H55.7722C55.9683 85.1884 56.129 85.3492 56.129 85.5461C56.129 85.7425 55.9683 85.9034 55.7722 85.9034Z" fill="white"/>
<path fill-rule="evenodd" clip-rule="evenodd" d="M83.9264 126.389L84.918 127.382L83.9264 128.375C83.8006 128.502 83.8006 128.708 83.9264 128.835C84.0528 128.961 84.2598 128.961 84.3862 128.835L85.6077 127.612C85.7341 127.486 85.7341 127.279 85.6077 127.152L84.3862 125.929C84.2598 125.802 84.0528 125.802 83.9264 125.929C83.8006 126.056 83.8006 126.263 83.9264 126.389Z" fill="#C1C1C1"/>
<path fill-rule="evenodd" clip-rule="evenodd" d="M155.322 132.123V131.654H155.474V132.276H154.853V132.123H155.322Z" fill="#30374B"/>
<path fill-rule="evenodd" clip-rule="evenodd" d="M93.1012 132.276H92.7964V132.123H93.1012V132.276ZM94.3203 132.276H93.7108V132.123H94.3203V132.276ZM95.5395 132.276H94.9299V132.123H95.5395V132.276ZM96.7587 132.276H96.1491V132.123H96.7587V132.276ZM97.9779 132.276H97.3683V132.123H97.9779V132.276ZM99.197 132.276H98.5874V132.123H99.197V132.276ZM100.416 132.276H99.8066V132.123H100.416V132.276ZM101.635 132.276H101.026V132.123H101.635V132.276ZM102.855 132.276H102.245V132.123H102.855V132.276ZM104.074 132.276H103.464V132.123H104.074V132.276ZM105.293 132.276H104.683V132.123H105.293V132.276ZM106.512 132.276H105.902V132.123H106.512V132.276ZM107.731 132.276H107.122V132.123H107.731V132.276ZM108.95 132.276H108.341V132.123H108.95V132.276ZM110.17 132.276H109.56V132.123H110.17V132.276ZM111.389 132.276H110.779V132.123H111.389V132.276ZM112.608 132.276H111.998V132.123H112.608V132.276ZM113.827 132.276H113.217V132.123H113.827V132.276ZM115.046 132.276H114.437V132.123H115.046V132.276ZM116.265 132.276H115.656V132.123H116.265V132.276ZM117.485 132.276H116.875V132.123H117.485V132.276ZM118.704 132.276H118.094V132.123H118.704V132.276ZM119.923 132.276H119.313V132.123H119.923V132.276ZM121.142 132.276H120.533V132.123H121.142V132.276ZM122.361 132.276H121.752V132.123H122.361V132.276ZM123.58 132.276H122.971V132.123H123.58V132.276ZM124.8 132.276H124.19V132.123H124.8V132.276ZM126.019 132.276H125.409V132.123H126.019V132.276ZM127.238 132.276H126.628V132.123H127.238V132.276ZM128.457 132.276H127.848V132.123H128.457V132.276ZM129.676 132.276H129.067V132.123H129.676V132.276ZM130.895 132.276H130.286V132.123H130.895V132.276ZM132.115 132.276H131.505V132.123H132.115V132.276ZM133.334 132.276H132.724V132.123H133.334V132.276ZM134.553 132.276H133.943V132.123H134.553V132.276ZM135.772 132.276H135.163V132.123H135.772V132.276ZM136.991 132.276H136.382V132.123H136.991V132.276ZM138.21 132.276H137.601V132.123H138.21V132.276ZM139.43 132.276H138.82V132.123H139.43V132.276ZM140.649 132.276H140.039V132.123H140.649V132.276ZM141.868 132.276H141.258V132.123H141.868V132.276ZM143.087 132.276H142.478V132.123H143.087V132.276ZM144.306 132.276H143.697V132.123H144.306V132.276ZM145.525 132.276H144.916V132.123H145.525V132.276ZM146.745 132.276H146.135V132.123H146.745V132.276ZM147.964 132.276H147.354V132.123H147.964V132.276ZM149.183 132.276H148.573V132.123H149.183V132.276ZM150.402 132.276H149.793V132.123H150.402V132.276ZM151.621 132.276H151.012V132.123H151.621V132.276ZM152.841 132.276H152.231V132.123H152.841V132.276ZM153.755 132.276H153.45V132.123H153.755V132.276Z" fill="#30374B"/>
<path fill-rule="evenodd" clip-rule="evenodd" d="M91.7789 132.123V131.654H91.6265V132.276H92.2475V132.123H91.7789Z" fill="#30374B"/>
<path fill-rule="evenodd" clip-rule="evenodd" d="M91.6265 83.5968V83.2937H91.7789V83.5968H91.6265ZM91.6265 84.8089V84.2028H91.7789V84.8089H91.6265ZM91.6265 86.0211V85.415H91.7789V86.0211H91.6265ZM91.6265 87.2332V86.6271H91.7789V87.2332H91.6265ZM91.6265 88.4454V87.8393H91.7789V88.4454H91.6265ZM91.6265 89.6575V89.0514H91.7789V89.6575H91.6265ZM91.6265 90.8697V90.2636H91.7789V90.8697H91.6265ZM91.6265 92.0818V91.4757H91.7789V92.0818H91.6265ZM91.6265 93.294V92.6879H91.7789V93.294H91.6265ZM91.6265 94.5061V93.9H91.7789V94.5061H91.6265ZM91.6265 95.7182V95.1122H91.7789V95.7182H91.6265ZM91.6265 96.9304V96.3243H91.7789V96.9304H91.6265ZM91.6265 98.1425V97.5365H91.7789V98.1425H91.6265ZM91.6265 99.3547V98.7486H91.7789V99.3547H91.6265ZM91.6265 100.567V99.9608H91.7789V100.567H91.6265ZM91.6265 101.779V101.173H91.7789V101.779H91.6265ZM91.6265 102.991V102.385H91.7789V102.991H91.6265ZM91.6265 104.203V103.597H91.7789V104.203H91.6265ZM91.6265 105.415V104.809H91.7789V105.415H91.6265ZM91.6265 106.628V106.022H91.7789V106.628H91.6265ZM91.6265 107.84V107.234H91.7789V107.84H91.6265ZM91.6265 109.052V108.446H91.7789V109.052H91.6265ZM91.6265 110.264V109.658H91.7789V110.264H91.6265ZM91.6265 111.476V110.87H91.7789V111.476H91.6265ZM91.6265 112.688V112.082H91.7789V112.688H91.6265ZM91.6265 113.9V113.294H91.7789V113.9H91.6265ZM91.6265 115.113V114.507H91.7789V115.113H91.6265ZM91.6265 116.325V115.719H91.7789V116.325H91.6265ZM91.6265 117.537V116.931H91.7789V117.537H91.6265ZM91.6265 118.749V118.143H91.7789V118.749H91.6265ZM91.6265 119.961V119.355H91.7789V119.961H91.6265ZM91.6265 121.173V120.567H91.7789V121.173H91.6265ZM91.6265 122.385V121.779H91.7789V122.385H91.6265ZM91.6265 123.598V122.992H91.7789V123.598H91.6265ZM91.6265 124.81V124.204H91.7789V124.81H91.6265ZM91.6265 126.022V125.416H91.7789V126.022H91.6265ZM91.6265 127.234V126.628H91.7789V127.234H91.6265ZM91.6265 128.446V127.84H91.7789V128.446H91.6265ZM91.6265 129.658V129.052H91.7789V129.658H91.6265ZM91.6265 130.567V130.264H91.7789V130.567H91.6265Z" fill="#30374B"/>
<path fill-rule="evenodd" clip-rule="evenodd" d="M91.6265 82.129H92.2475V82.2814H91.7789V82.7506H91.6265V82.129Z" fill="#30374B"/>
<path fill-rule="evenodd" clip-rule="evenodd" d="M93.6503 82.2814H93.3455V82.129H93.6503V82.2814ZM94.8694 82.2814H94.2598V82.129H94.8694V82.2814ZM96.0886 82.2814H95.479V82.129H96.0886V82.2814ZM97.3078 82.2814H96.6982V82.129H97.3078V82.2814ZM98.5269 82.2814H97.9173V82.129H98.5269V82.2814ZM99.7461 82.2814H99.1365V82.129H99.7461V82.2814ZM100.965 82.2814H100.356V82.129H100.965V82.2814ZM102.184 82.2814H101.575V82.129H102.184V82.2814ZM103.404 82.2814H102.794V82.129H103.404V82.2814ZM104.623 82.2814H104.013V82.129H104.623V82.2814ZM105.842 82.2814H105.232V82.129H105.842V82.2814ZM107.061 82.2814H106.452V82.129H107.061V82.2814ZM108.28 82.2814H107.671V82.129H108.28V82.2814ZM109.499 82.2814H108.89V82.129H109.499V82.2814ZM110.719 82.2814H110.109V82.129H110.719V82.2814ZM111.938 82.2814H111.328V82.129H111.938V82.2814ZM113.157 82.2814H112.547V82.129H113.157V82.2814ZM114.376 82.2814H113.767V82.129H114.376V82.2814ZM115.595 82.2814H114.986V82.129H115.595V82.2814ZM116.814 82.2814H116.205V82.129H116.814V82.2814ZM118.034 82.2814H117.424V82.129H118.034V82.2814ZM119.253 82.2814H118.643V82.129H119.253V82.2814ZM120.472 82.2814H119.862V82.129H120.472V82.2814ZM121.691 82.2814H121.082V82.129H121.691V82.2814ZM122.91 82.2814H122.301V82.129H122.91V82.2814ZM124.129 82.2814H123.52V82.129H124.129V82.2814ZM125.349 82.2814H124.739V82.129H125.349V82.2814ZM126.568 82.2814H125.958V82.129H126.568V82.2814ZM127.787 82.2814H127.177V82.129H127.787V82.2814ZM129.006 82.2814H128.397V82.129H129.006V82.2814ZM130.225 82.2814H129.616V82.129H130.225V82.2814ZM131.445 82.2814H130.835V82.129H131.445V82.2814ZM132.664 82.2814H132.054V82.129H132.664V82.2814ZM133.883 82.2814H133.273V82.129H133.883V82.2814ZM135.102 82.2814H134.492V82.129H135.102V82.2814ZM136.321 82.2814H135.712V82.129H136.321V82.2814ZM137.54 82.2814H136.931V82.129H137.54V82.2814ZM138.76 82.2814H138.15V82.129H138.76V82.2814ZM139.979 82.2814H139.369V82.129H139.979V82.2814ZM141.198 82.2814H140.588V82.129H141.198V82.2814ZM142.417 82.2814H141.807V82.129H142.417V82.2814ZM143.636 82.2814H143.027V82.129H143.636V82.2814ZM144.855 82.2814H144.246V82.129H144.855V82.2814ZM146.075 82.2814H145.465V82.129H146.075V82.2814ZM147.294 82.2814H146.684V82.129H147.294V82.2814ZM148.513 82.2814H147.903V82.129H148.513V82.2814ZM149.732 82.2814H149.122V82.129H149.732V82.2814ZM150.951 82.2814H150.342V82.129H150.951V82.2814ZM152.17 82.2814H151.561V82.129H152.17V82.2814ZM153.39 82.2814H152.78V82.129H153.39V82.2814ZM154.304 82.2814H153.999V82.129H154.304V82.2814Z" fill="#30374B"/>
<path fill-rule="evenodd" clip-rule="evenodd" d="M155.322 82.2814H154.853V82.129H155.474V82.7506H155.322V82.2814Z" fill="#30374B"/>
<path fill-rule="evenodd" clip-rule="evenodd" d="M155.322 84.1405V83.8374H155.474V84.1405H155.322ZM155.322 85.3526V84.7465H155.474V85.3526H155.322ZM155.322 86.5648V85.9587H155.474V86.5648H155.322ZM155.322 87.7769V87.1708H155.474V87.7769H155.322ZM155.322 88.9891V88.383H155.474V88.9891H155.322ZM155.322 90.2012V89.5951H155.474V90.2012H155.322ZM155.322 91.4134V90.8073H155.474V91.4134H155.322ZM155.322 92.6255V92.0194H155.474V92.6255H155.322ZM155.322 93.8377V93.2316H155.474V93.8377H155.322ZM155.322 95.0498V94.4437H155.474V95.0498H155.322ZM155.322 96.2619V95.6559H155.474V96.2619H155.322ZM155.322 97.4741V96.868H155.474V97.4741H155.322ZM155.322 98.6862V98.0802H155.474V98.6862H155.322ZM155.322 99.8984V99.2923H155.474V99.8984H155.322ZM155.322 101.111V100.504H155.474V101.111H155.322ZM155.322 102.323V101.717H155.474V102.323H155.322ZM155.322 103.535V102.929H155.474V103.535H155.322ZM155.322 104.747V104.141H155.474V104.747H155.322ZM155.322 105.959V105.353H155.474V105.959H155.322ZM155.322 107.171V106.565H155.474V107.171H155.322ZM155.322 108.383V107.777H155.474V108.383H155.322ZM155.322 109.596V108.99H155.474V109.596H155.322ZM155.322 110.808V110.202H155.474V110.808H155.322ZM155.322 112.02V111.414H155.474V112.02H155.322ZM155.322 113.232V112.626H155.474V113.232H155.322ZM155.322 114.444V113.838H155.474V114.444H155.322ZM155.322 115.656V115.05H155.474V115.656H155.322ZM155.322 116.868V116.262H155.474V116.868H155.322ZM155.322 118.081V117.475H155.474V118.081H155.322ZM155.322 119.293V118.687H155.474V119.293H155.322ZM155.322 120.505V119.899H155.474V120.505H155.322ZM155.322 121.717V121.111H155.474V121.717H155.322ZM155.322 122.929V122.323H155.474V122.929H155.322ZM155.322 124.141V123.535H155.474V124.141H155.322ZM155.322 125.353V124.747H155.474V125.353H155.322ZM155.322 126.566V125.96H155.474V126.566H155.322ZM155.322 127.778V127.172H155.474V127.778H155.322ZM155.322 128.99V128.384H155.474V128.99H155.322ZM155.322 130.202V129.596H155.474V130.202H155.322ZM155.322 131.111V130.808H155.474V131.111H155.322Z" fill="#30374B"/>
<path fill-rule="evenodd" clip-rule="evenodd" d="M45 143.965H214.842V138.476H45V143.965Z" fill="white"/>
<path fill-rule="evenodd" clip-rule="evenodd" d="M52.4392 141.695H48.1571C47.8961 141.695 47.6831 141.482 47.6831 141.22C47.6831 140.96 47.8961 140.746 48.1571 140.746H52.4392C52.7002 140.746 52.9132 140.96 52.9132 141.22C52.9132 141.482 52.7002 141.695 52.4392 141.695Z" fill="#30374B"/>
<path fill-rule="evenodd" clip-rule="evenodd" d="M129.447 141.695H122.944C122.684 141.695 122.47 141.482 122.47 141.22C122.47 140.96 122.684 140.746 122.944 140.746H129.447C129.708 140.746 129.921 140.96 129.921 141.22C129.921 141.482 129.708 141.695 129.447 141.695Z" fill="#30374B"/>
<path fill-rule="evenodd" clip-rule="evenodd" d="M158.63 141.695H152.127C151.866 141.695 151.653 141.482 151.653 141.22C151.653 140.96 151.866 140.746 152.127 140.746H158.63C158.891 140.746 159.104 140.96 159.104 141.22C159.104 141.482 158.891 141.695 158.63 141.695Z" fill="#30374B"/>
<path fill-rule="evenodd" clip-rule="evenodd" d="M194.925 141.695H188.422C188.162 141.695 187.948 141.482 187.948 141.22C187.948 140.96 188.162 140.746 188.422 140.746H194.925C195.186 140.746 195.399 140.96 195.399 141.22C195.399 141.482 195.186 141.695 194.925 141.695Z" fill="#30374B"/>
<path fill-rule="evenodd" clip-rule="evenodd" d="M148.55 143.965H148.728V138.476H148.55V143.965Z" fill="#C1C1C1"/>
<path fill-rule="evenodd" clip-rule="evenodd" d="M118.194 143.965H118.372V138.476H118.194V143.965Z" fill="#C1C1C1"/>
<path fill-rule="evenodd" clip-rule="evenodd" d="M177.365 143.965H177.543V138.476H177.365V143.965Z" fill="#C1C1C1"/>
<path fill-rule="evenodd" clip-rule="evenodd" d="M205.204 143.965H205.382V138.476H205.204V143.965Z" fill="#C1C1C1"/>
<path fill-rule="evenodd" clip-rule="evenodd" d="M45 151H223V146H45V151Z" fill="white"/>
<path fill-rule="evenodd" clip-rule="evenodd" d="M148.55 151H148.728V145.511H148.55V151Z" fill="#C1C1C1"/>
<path fill-rule="evenodd" clip-rule="evenodd" d="M118.194 151H118.372V145.511H118.194V151Z" fill="#C1C1C1"/>
<path fill-rule="evenodd" clip-rule="evenodd" d="M177.365 151H177.543V145.511H177.365V151Z" fill="#C1C1C1"/>
<path fill-rule="evenodd" clip-rule="evenodd" d="M205.204 151H205.382V145.511H205.204V151Z" fill="#C1C1C1"/>
<path fill-rule="evenodd" clip-rule="evenodd" d="M210.518 147.443C210.518 147.605 210.387 147.737 210.224 147.737C210.062 147.737 209.93 147.605 209.93 147.443C209.93 147.28 210.062 147.148 210.224 147.148C210.387 147.148 210.518 147.28 210.518 147.443Z" fill="#9E9E9E"/>
<path fill-rule="evenodd" clip-rule="evenodd" d="M210.518 148.255C210.518 148.418 210.387 148.55 210.224 148.55C210.062 148.55 209.93 148.418 209.93 148.255C209.93 148.093 210.062 147.961 210.224 147.961C210.387 147.961 210.518 148.093 210.518 148.255Z" fill="#9E9E9E"/>
<path fill-rule="evenodd" clip-rule="evenodd" d="M210.518 149.068C210.518 149.23 210.387 149.362 210.224 149.362C210.062 149.362 209.93 149.23 209.93 149.068C209.93 148.905 210.062 148.773 210.224 148.773C210.387 148.773 210.518 148.905 210.518 149.068Z" fill="#9E9E9E"/>
<path fill-rule="evenodd" clip-rule="evenodd" d="M192.941 148.255C192.941 148.956 192.374 149.524 191.674 149.524C190.974 149.524 190.406 148.956 190.406 148.255C190.406 147.554 190.974 146.986 191.674 146.986C192.374 146.986 192.941 147.554 192.941 148.255Z" fill="#209434"/>
<path fill-rule="evenodd" clip-rule="evenodd" d="M160.077 148.863H152.037C151.826 148.863 151.653 148.69 151.653 148.478C151.653 148.267 151.826 148.094 152.037 148.094H160.077C160.288 148.094 160.461 148.267 160.461 148.478C160.461 148.69 160.288 148.863 160.077 148.863Z" fill="#C1C1C1"/>
<path fill-rule="evenodd" clip-rule="evenodd" d="M126.085 148.863H122.854C122.643 148.863 122.47 148.69 122.47 148.478C122.47 148.267 122.643 148.094 122.854 148.094H126.085C126.296 148.094 126.469 148.267 126.469 148.478C126.469 148.69 126.296 148.863 126.085 148.863Z" fill="#C1C1C1"/>
<path fill-rule="evenodd" clip-rule="evenodd" d="M61.3481 148.639H48.0669C47.8556 148.639 47.6829 148.467 47.6829 148.255C47.6829 148.044 47.8556 147.871 48.0669 147.871H61.3481C61.5595 147.871 61.7322 148.044 61.7322 148.255C61.7322 148.467 61.5595 148.639 61.3481 148.639Z" fill="#C1C1C1"/>
<path fill-rule="evenodd" clip-rule="evenodd" d="M45 158.489H223V153.489H45V158.489Z" fill="white"/>
<path fill-rule="evenodd" clip-rule="evenodd" d="M148.55 158.489H148.728V153H148.55V158.489Z" fill="#C1C1C1"/>
<path fill-rule="evenodd" clip-rule="evenodd" d="M118.194 158.489H118.372V153H118.194V158.489Z" fill="#C1C1C1"/>
<path fill-rule="evenodd" clip-rule="evenodd" d="M177.365 158.489H177.543V153H177.365V158.489Z" fill="#C1C1C1"/>
<path fill-rule="evenodd" clip-rule="evenodd" d="M205.204 158.489H205.382V153H205.204V158.489Z" fill="#C1C1C1"/>
<path fill-rule="evenodd" clip-rule="evenodd" d="M210.518 154.932C210.518 155.095 210.387 155.227 210.224 155.227C210.061 155.227 209.93 155.095 209.93 154.932C209.93 154.77 210.061 154.638 210.224 154.638C210.387 154.638 210.518 154.77 210.518 154.932Z" fill="#9E9E9E"/>
<path fill-rule="evenodd" clip-rule="evenodd" d="M210.518 155.745C210.518 155.907 210.387 156.039 210.224 156.039C210.061 156.039 209.93 155.907 209.93 155.745C209.93 155.582 210.061 155.45 210.224 155.45C210.387 155.45 210.518 155.582 210.518 155.745Z" fill="#9E9E9E"/>
<path fill-rule="evenodd" clip-rule="evenodd" d="M210.518 156.557C210.518 156.72 210.387 156.852 210.224 156.852C210.061 156.852 209.93 156.72 209.93 156.557C209.93 156.395 210.061 156.263 210.224 156.263C210.387 156.263 210.518 156.395 210.518 156.557Z" fill="#9E9E9E"/>
<path fill-rule="evenodd" clip-rule="evenodd" d="M192.941 155.745C192.941 156.445 192.374 157.014 191.674 157.014C190.974 157.014 190.406 156.445 190.406 155.745C190.406 155.044 190.974 154.475 191.674 154.475C192.374 154.475 192.941 155.044 192.941 155.745Z" fill="#209434"/>
<path fill-rule="evenodd" clip-rule="evenodd" d="M160.077 156.352H152.037C151.826 156.352 151.653 156.179 151.653 155.968C151.653 155.757 151.826 155.583 152.037 155.583H160.077C160.288 155.583 160.461 155.757 160.461 155.968C160.461 156.179 160.288 156.352 160.077 156.352Z" fill="#C1C1C1"/>
<path fill-rule="evenodd" clip-rule="evenodd" d="M126.085 156.352H122.854C122.643 156.352 122.47 156.179 122.47 155.968C122.47 155.757 122.643 155.583 122.854 155.583H126.085C126.296 155.583 126.469 155.757 126.469 155.968C126.469 156.179 126.296 156.352 126.085 156.352Z" fill="#C1C1C1"/>
<path fill-rule="evenodd" clip-rule="evenodd" d="M61.3481 156.129H48.0669C47.8556 156.129 47.6829 155.956 47.6829 155.744C47.6829 155.533 47.8556 155.36 48.0669 155.36H61.3481C61.5595 155.36 61.7322 155.533 61.7322 155.744C61.7322 155.956 61.5595 156.129 61.3481 156.129Z" fill="#C1C1C1"/>
<path fill-rule="evenodd" clip-rule="evenodd" d="M45 165.489H223V160.489H45V165.489Z" fill="white"/>
<path fill-rule="evenodd" clip-rule="evenodd" d="M148.55 165.489H148.728V160H148.55V165.489Z" fill="#C1C1C1"/>
<path fill-rule="evenodd" clip-rule="evenodd" d="M118.194 165.489H118.372V160H118.194V165.489Z" fill="#C1C1C1"/>
<path fill-rule="evenodd" clip-rule="evenodd" d="M177.365 165.489H177.543V160H177.365V165.489Z" fill="#C1C1C1"/>
<path fill-rule="evenodd" clip-rule="evenodd" d="M205.204 165.489H205.382V160H205.204V165.489Z" fill="#C1C1C1"/>
<path fill-rule="evenodd" clip-rule="evenodd" d="M210.518 161.932C210.518 162.095 210.387 162.227 210.224 162.227C210.061 162.227 209.93 162.095 209.93 161.932C209.93 161.77 210.061 161.638 210.224 161.638C210.387 161.638 210.518 161.77 210.518 161.932Z" fill="#9E9E9E"/>
<path fill-rule="evenodd" clip-rule="evenodd" d="M210.518 162.745C210.518 162.907 210.387 163.039 210.224 163.039C210.061 163.039 209.93 162.907 209.93 162.745C209.93 162.582 210.061 162.45 210.224 162.45C210.387 162.45 210.518 162.582 210.518 162.745Z" fill="#9E9E9E"/>
<path fill-rule="evenodd" clip-rule="evenodd" d="M210.518 163.557C210.518 163.72 210.387 163.852 210.224 163.852C210.061 163.852 209.93 163.72 209.93 163.557C209.93 163.395 210.061 163.263 210.224 163.263C210.387 163.263 210.518 163.395 210.518 163.557Z" fill="#9E9E9E"/>
<path fill-rule="evenodd" clip-rule="evenodd" d="M192.941 162.745C192.941 163.445 192.374 164.014 191.674 164.014C190.974 164.014 190.406 163.445 190.406 162.745C190.406 162.044 190.974 161.475 191.674 161.475C192.374 161.475 192.941 162.044 192.941 162.745Z" fill="#209434"/>
<path fill-rule="evenodd" clip-rule="evenodd" d="M160.077 163.352H152.037C151.826 163.352 151.653 163.179 151.653 162.968C151.653 162.757 151.826 162.583 152.037 162.583H160.077C160.288 162.583 160.461 162.757 160.461 162.968C160.461 163.179 160.288 163.352 160.077 163.352Z" fill="#C1C1C1"/>
<path fill-rule="evenodd" clip-rule="evenodd" d="M126.085 163.352H122.854C122.643 163.352 122.47 163.179 122.47 162.968C122.47 162.757 122.643 162.583 122.854 162.583H126.085C126.296 162.583 126.469 162.757 126.469 162.968C126.469 163.179 126.296 163.352 126.085 163.352Z" fill="#C1C1C1"/>
<path fill-rule="evenodd" clip-rule="evenodd" d="M61.3481 163.129H48.0669C47.8556 163.129 47.6829 162.956 47.6829 162.744C47.6829 162.533 47.8556 162.36 48.0669 162.36H61.3481C61.5595 162.36 61.7322 162.533 61.7322 162.744C61.7322 162.956 61.5595 163.129 61.3481 163.129Z" fill="#C1C1C1"/>
<path fill-rule="evenodd" clip-rule="evenodd" d="M45 173.489H223V168.489H45V173.489Z" fill="white"/>
<path fill-rule="evenodd" clip-rule="evenodd" d="M148.55 173.489H148.728V168H148.55V173.489Z" fill="#C1C1C1"/>
<path fill-rule="evenodd" clip-rule="evenodd" d="M118.194 173.489H118.372V168H118.194V173.489Z" fill="#C1C1C1"/>
<path fill-rule="evenodd" clip-rule="evenodd" d="M177.365 173.489H177.543V168H177.365V173.489Z" fill="#C1C1C1"/>
<path fill-rule="evenodd" clip-rule="evenodd" d="M205.204 173.489H205.382V168H205.204V173.489Z" fill="#C1C1C1"/>
<path fill-rule="evenodd" clip-rule="evenodd" d="M210.518 169.932C210.518 170.095 210.387 170.227 210.224 170.227C210.061 170.227 209.93 170.095 209.93 169.932C209.93 169.77 210.061 169.638 210.224 169.638C210.387 169.638 210.518 169.77 210.518 169.932Z" fill="#9E9E9E"/>
<path fill-rule="evenodd" clip-rule="evenodd" d="M210.518 170.745C210.518 170.907 210.387 171.039 210.224 171.039C210.061 171.039 209.93 170.907 209.93 170.745C209.93 170.582 210.061 170.45 210.224 170.45C210.387 170.45 210.518 170.582 210.518 170.745Z" fill="#9E9E9E"/>
<path fill-rule="evenodd" clip-rule="evenodd" d="M210.518 171.557C210.518 171.72 210.387 171.852 210.224 171.852C210.061 171.852 209.93 171.72 209.93 171.557C209.93 171.395 210.061 171.263 210.224 171.263C210.387 171.263 210.518 171.395 210.518 171.557Z" fill="#9E9E9E"/>
<path fill-rule="evenodd" clip-rule="evenodd" d="M192.941 170.745C192.941 171.445 192.374 172.014 191.674 172.014C190.974 172.014 190.406 171.445 190.406 170.745C190.406 170.044 190.974 169.475 191.674 169.475C192.374 169.475 192.941 170.044 192.941 170.745Z" fill="#209434"/>
<path fill-rule="evenodd" clip-rule="evenodd" d="M160.077 171.352H152.037C151.826 171.352 151.653 171.179 151.653 170.968C151.653 170.757 151.826 170.583 152.037 170.583H160.077C160.288 170.583 160.461 170.757 160.461 170.968C160.461 171.179 160.288 171.352 160.077 171.352Z" fill="#C1C1C1"/>
<path fill-rule="evenodd" clip-rule="evenodd" d="M126.085 171.352H122.854C122.643 171.352 122.47 171.179 122.47 170.968C122.47 170.757 122.643 170.583 122.854 170.583H126.085C126.296 170.583 126.469 170.757 126.469 170.968C126.469 171.179 126.296 171.352 126.085 171.352Z" fill="#C1C1C1"/>
<path fill-rule="evenodd" clip-rule="evenodd" d="M61.3481 171.129H48.0669C47.8556 171.129 47.6829 170.956 47.6829 170.744C47.6829 170.533 47.8556 170.36 48.0669 170.36H61.3481C61.5595 170.36 61.7322 170.533 61.7322 170.744C61.7322 170.956 61.5595 171.129 61.3481 171.129Z" fill="#C1C1C1"/>
<path fill-rule="evenodd" clip-rule="evenodd" d="M135.407 113.39H110.551C110.29 113.39 110.077 113.177 110.077 112.916V109.115C110.077 108.854 110.29 108.641 110.551 108.641H135.407C135.668 108.641 135.881 108.854 135.881 109.115V112.916C135.881 113.177 135.668 113.39 135.407 113.39Z" fill="#30374B"/>
<path fill-rule="evenodd" clip-rule="evenodd" d="M131.661 111.49H114.184C113.923 111.49 113.71 111.276 113.71 111.015C113.71 110.754 113.923 110.541 114.184 110.541H131.661C131.922 110.541 132.134 110.754 132.134 111.015C132.134 111.276 131.922 111.49 131.661 111.49Z" fill="white"/>
<path fill-rule="evenodd" clip-rule="evenodd" d="M128.912 102.584H116.847C116.587 102.584 116.373 102.37 116.373 102.109C116.373 101.848 116.587 101.635 116.847 101.635H128.912C129.173 101.635 129.386 101.848 129.386 102.109C129.386 102.37 129.173 102.584 128.912 102.584Z" fill="#30374B"/>
</g>
<g filter="url(#filter6_d)">
<path fill-rule="evenodd" clip-rule="evenodd" d="M162.384 141.574C162.384 142.921 163.475 144.013 164.822 144.013H221.026C222.373 144.013 223.464 142.921 223.464 141.574V76.7096C223.464 75.3628 222.373 74.271 221.026 74.271H164.822C163.475 74.271 162.384 75.3628 162.384 76.7096V141.574Z" fill="white"/>
<g filter="url(#filter7_d)">
<path fill-rule="evenodd" clip-rule="evenodd" d="M162.384 82.451C162.384 83.7978 163.476 84.8896 164.822 84.8896H221.026C222.373 84.8896 223.465 83.7978 223.465 82.451V82.0186C223.465 80.6718 222.373 79.58 221.026 79.58H164.822C163.476 79.58 162.384 80.6718 162.384 82.0186V82.451Z" fill="white"/>
</g>
<path fill-rule="evenodd" clip-rule="evenodd" d="M170.883 77.487H165.817C165.508 77.487 165.256 77.234 165.256 76.9256C165.256 76.6165 165.508 76.3642 165.817 76.3642H170.883C171.192 76.3642 171.444 76.6165 171.444 76.9256C171.444 77.234 171.192 77.487 170.883 77.487Z" fill="#30374B"/>
<path fill-rule="evenodd" clip-rule="evenodd" d="M221.065 82.7964H218.707C218.399 82.7964 218.146 82.5434 218.146 82.235C218.146 81.9259 218.399 81.6736 218.707 81.6736H221.065C221.373 81.6736 221.625 81.9259 221.625 82.235C221.625 82.5434 221.373 82.7964 221.065 82.7964Z" fill="#30374B"/>
<path fill-rule="evenodd" clip-rule="evenodd" d="M214.165 82.7964H211.808C211.499 82.7964 211.248 82.5434 211.248 82.235C211.248 81.9259 211.499 81.6736 211.808 81.6736H214.165C214.474 81.6736 214.726 81.9259 214.726 82.235C214.726 82.5434 214.474 82.7964 214.165 82.7964Z" fill="#30374B"/>
<path fill-rule="evenodd" clip-rule="evenodd" d="M170.956 92.2084C170.956 93.7843 169.681 95.062 168.106 95.062C166.532 95.062 165.255 93.7843 165.255 92.2084C165.255 90.6326 166.532 89.3549 168.106 89.3549C169.681 89.3549 170.956 90.6326 170.956 92.2084Z" fill="#30374B"/>
<path fill-rule="evenodd" clip-rule="evenodd" d="M182.789 91.7749H173.276C173.026 91.7749 172.822 91.5703 172.822 91.3199C172.822 91.0702 173.026 90.8656 173.276 90.8656H182.789C183.039 90.8656 183.244 91.0702 183.244 91.3199C183.244 91.5703 183.039 91.7749 182.789 91.7749Z" fill="#C1C1C1"/>
<path fill-rule="evenodd" clip-rule="evenodd" d="M179.962 92.9175H173.138C172.965 92.9175 172.822 93.0601 172.822 93.2343C172.822 93.4092 172.965 93.5512 173.138 93.5512H179.962C180.136 93.5512 180.279 93.4092 180.279 93.2343C180.279 93.0601 180.136 92.9175 179.962 92.9175Z" fill="#C1C1C1"/>
<path fill-rule="evenodd" clip-rule="evenodd" d="M221.186 91.2472C221.186 91.4395 221.031 91.5957 220.839 91.5957C220.646 91.5957 220.491 91.4395 220.491 91.2472C220.491 91.0549 220.646 90.8987 220.839 90.8987C221.031 90.8987 221.186 91.0549 221.186 91.2472Z" fill="#9E9E9E"/>
<path fill-rule="evenodd" clip-rule="evenodd" d="M221.186 92.2085C221.186 92.4008 221.031 92.5569 220.839 92.5569C220.646 92.5569 220.491 92.4008 220.491 92.2085C220.491 92.0162 220.646 91.86 220.839 91.86C221.031 91.86 221.186 92.0162 221.186 92.2085Z" fill="#9E9E9E"/>
<path fill-rule="evenodd" clip-rule="evenodd" d="M221.186 93.1698C221.186 93.3621 221.031 93.5183 220.839 93.5183C220.646 93.5183 220.491 93.3621 220.491 93.1698C220.491 92.9775 220.646 92.8214 220.839 92.8214C221.031 92.8214 221.186 92.9775 221.186 93.1698Z" fill="#9E9E9E"/>
<path fill-rule="evenodd" clip-rule="evenodd" d="M162.384 97.7256C162.384 97.784 162.431 97.8314 162.49 97.8314H223.359C223.417 97.8314 223.465 97.784 223.465 97.7256C223.465 97.6671 223.417 97.6197 223.359 97.6197H162.49C162.431 97.6197 162.384 97.6671 162.384 97.7256Z" fill="#C1C1C1"/>
<path fill-rule="evenodd" clip-rule="evenodd" d="M170.956 103.78C170.956 105.356 169.681 106.634 168.106 106.634C166.532 106.634 165.255 105.356 165.255 103.78C165.255 102.205 166.532 100.927 168.106 100.927C169.681 100.927 170.956 102.205 170.956 103.78Z" fill="#30374B"/>
<path fill-rule="evenodd" clip-rule="evenodd" d="M182.789 103.347H173.276C173.026 103.347 172.822 103.142 172.822 102.892C172.822 102.642 173.026 102.437 173.276 102.437H182.789C183.039 102.437 183.244 102.642 183.244 102.892C183.244 103.142 183.039 103.347 182.789 103.347Z" fill="#C1C1C1"/>
<path fill-rule="evenodd" clip-rule="evenodd" d="M179.962 104.489H173.138C172.965 104.489 172.822 104.632 172.822 104.806C172.822 104.98 172.965 105.123 173.138 105.123H179.962C180.136 105.123 180.279 104.98 180.279 104.806C180.279 104.632 180.136 104.489 179.962 104.489Z" fill="#C1C1C1"/>
<path fill-rule="evenodd" clip-rule="evenodd" d="M189.415 102.437H185.493C185.185 102.437 184.932 102.184 184.932 101.876V100.951C184.932 100.642 185.185 100.39 185.493 100.39H189.415C189.723 100.39 189.976 100.642 189.976 100.951V101.876C189.976 102.184 189.723 102.437 189.415 102.437Z" fill="#30374B"/>
<path fill-rule="evenodd" clip-rule="evenodd" d="M189.027 101.618H185.835C185.723 101.618 185.63 101.526 185.63 101.413C185.63 101.301 185.723 101.209 185.835 101.209H189.027C189.14 101.209 189.231 101.301 189.231 101.413C189.231 101.526 189.14 101.618 189.027 101.618Z" fill="white"/>
<path fill-rule="evenodd" clip-rule="evenodd" d="M189.215 90.9514H185.293C184.985 90.9514 184.732 90.6985 184.732 90.39V89.4653C184.732 89.1562 184.985 88.9039 185.293 88.9039H189.215C189.524 88.9039 189.776 89.1562 189.776 89.4653V90.39C189.776 90.6985 189.524 90.9514 189.215 90.9514Z" fill="#30374B"/>
<path fill-rule="evenodd" clip-rule="evenodd" d="M188.828 90.1322H185.636C185.523 90.1322 185.431 90.0399 185.431 89.9276C185.431 89.8153 185.523 89.723 185.636 89.723H188.828C188.94 89.723 189.032 89.8153 189.032 89.9276C189.032 90.0399 188.94 90.1322 188.828 90.1322Z" fill="white"/>
<path fill-rule="evenodd" clip-rule="evenodd" d="M221.186 102.819C221.186 103.011 221.031 103.168 220.839 103.168C220.646 103.168 220.491 103.011 220.491 102.819C220.491 102.627 220.646 102.471 220.839 102.471C221.031 102.471 221.186 102.627 221.186 102.819Z" fill="#9E9E9E"/>
<path fill-rule="evenodd" clip-rule="evenodd" d="M221.186 103.78C221.186 103.973 221.031 104.129 220.839 104.129C220.646 104.129 220.491 103.973 220.491 103.78C220.491 103.588 220.646 103.432 220.839 103.432C221.031 103.432 221.186 103.588 221.186 103.78Z" fill="#9E9E9E"/>
<path fill-rule="evenodd" clip-rule="evenodd" d="M221.186 104.742C221.186 104.934 221.031 105.09 220.839 105.09C220.646 105.09 220.491 104.934 220.491 104.742C220.491 104.549 220.646 104.393 220.839 104.393C221.031 104.393 221.186 104.549 221.186 104.742Z" fill="#9E9E9E"/>
<path fill-rule="evenodd" clip-rule="evenodd" d="M162.384 109.297C162.384 109.356 162.431 109.403 162.49 109.403H223.359C223.417 109.403 223.465 109.356 223.465 109.297C223.465 109.239 223.417 109.192 223.359 109.192H162.49C162.431 109.192 162.384 109.239 162.384 109.297Z" fill="#C1C1C1"/>
<path fill-rule="evenodd" clip-rule="evenodd" d="M170.956 115.352C170.956 116.928 169.681 118.205 168.106 118.205C166.532 118.205 165.255 116.928 165.255 115.352C165.255 113.776 166.532 112.498 168.106 112.498C169.681 112.498 170.956 113.776 170.956 115.352Z" fill="#30374B"/>
<path fill-rule="evenodd" clip-rule="evenodd" d="M182.789 114.919H173.276C173.026 114.919 172.822 114.714 172.822 114.464C172.822 114.213 173.026 114.009 173.276 114.009H182.789C183.039 114.009 183.244 114.213 183.244 114.464C183.244 114.714 183.039 114.919 182.789 114.919Z" fill="#C1C1C1"/>
<path fill-rule="evenodd" clip-rule="evenodd" d="M179.962 116.061H173.138C172.965 116.061 172.822 116.204 172.822 116.378C172.822 116.552 172.965 116.695 173.138 116.695H179.962C180.136 116.695 180.279 116.552 180.279 116.378C180.279 116.204 180.136 116.061 179.962 116.061Z" fill="#C1C1C1"/>
<path fill-rule="evenodd" clip-rule="evenodd" d="M189.415 114.009H185.493C185.185 114.009 184.932 113.756 184.932 113.448V112.523C184.932 112.214 185.185 111.961 185.493 111.961H189.415C189.723 111.961 189.976 112.214 189.976 112.523V113.448C189.976 113.756 189.723 114.009 189.415 114.009Z" fill="#00AF50"/>
<path fill-rule="evenodd" clip-rule="evenodd" d="M189.027 113.189H185.835C185.723 113.189 185.63 113.097 185.63 112.985C185.63 112.872 185.723 112.78 185.835 112.78H189.027C189.14 112.78 189.231 112.872 189.231 112.985C189.231 113.097 189.14 113.189 189.027 113.189Z" fill="white"/>
<path fill-rule="evenodd" clip-rule="evenodd" d="M221.186 114.39C221.186 114.583 221.031 114.739 220.839 114.739C220.646 114.739 220.491 114.583 220.491 114.39C220.491 114.198 220.646 114.042 220.839 114.042C221.031 114.042 221.186 114.198 221.186 114.39Z" fill="#9E9E9E"/>
<path fill-rule="evenodd" clip-rule="evenodd" d="M221.186 115.352C221.186 115.544 221.031 115.7 220.839 115.7C220.646 115.7 220.491 115.544 220.491 115.352C220.491 115.16 220.646 115.003 220.839 115.003C221.031 115.003 221.186 115.16 221.186 115.352Z" fill="#9E9E9E"/>
<path fill-rule="evenodd" clip-rule="evenodd" d="M221.186 116.313C221.186 116.505 221.031 116.662 220.839 116.662C220.646 116.662 220.491 116.505 220.491 116.313C220.491 116.121 220.646 115.965 220.839 115.965C221.031 115.965 221.186 116.121 221.186 116.313Z" fill="#9E9E9E"/>
<path fill-rule="evenodd" clip-rule="evenodd" d="M162.384 120.869C162.384 120.927 162.431 120.975 162.49 120.975H223.359C223.417 120.975 223.465 120.927 223.465 120.869C223.465 120.811 223.417 120.763 223.359 120.763H162.49C162.431 120.763 162.384 120.811 162.384 120.869Z" fill="#C1C1C1"/>
<path fill-rule="evenodd" clip-rule="evenodd" d="M170.956 126.924C170.956 128.5 169.681 129.777 168.106 129.777C166.532 129.777 165.255 128.5 165.255 126.924C165.255 125.348 166.532 124.07 168.106 124.07C169.681 124.07 170.956 125.348 170.956 126.924Z" fill="#30374B"/>
<path fill-rule="evenodd" clip-rule="evenodd" d="M182.789 126.49H173.276C173.026 126.49 172.822 126.286 172.822 126.035C172.822 125.785 173.026 125.58 173.276 125.58H182.789C183.039 125.58 183.244 125.785 183.244 126.035C183.244 126.286 183.039 126.49 182.789 126.49Z" fill="#C1C1C1"/>
<path fill-rule="evenodd" clip-rule="evenodd" d="M179.962 127.633H173.138C172.965 127.633 172.822 127.775 172.822 127.95C172.822 128.124 172.965 128.266 173.138 128.266H179.962C180.136 128.266 180.279 128.124 180.279 127.95C180.279 127.775 180.136 127.633 179.962 127.633Z" fill="#C1C1C1"/>
<path fill-rule="evenodd" clip-rule="evenodd" d="M189.415 125.581H185.493C185.185 125.581 184.932 125.328 184.932 125.019V124.094C184.932 123.785 185.185 123.533 185.493 123.533H189.415C189.723 123.533 189.976 123.785 189.976 124.094V125.019C189.976 125.328 189.723 125.581 189.415 125.581Z" fill="#30374B"/>
<path fill-rule="evenodd" clip-rule="evenodd" d="M189.027 124.761H185.835C185.723 124.761 185.63 124.669 185.63 124.557C185.63 124.444 185.723 124.352 185.835 124.352H189.027C189.14 124.352 189.231 124.444 189.231 124.557C189.231 124.669 189.14 124.761 189.027 124.761Z" fill="white"/>
<path fill-rule="evenodd" clip-rule="evenodd" d="M221.186 125.962C221.186 126.155 221.031 126.311 220.839 126.311C220.646 126.311 220.491 126.155 220.491 125.962C220.491 125.77 220.646 125.614 220.839 125.614C221.031 125.614 221.186 125.77 221.186 125.962Z" fill="#9E9E9E"/>
<path fill-rule="evenodd" clip-rule="evenodd" d="M221.186 126.924C221.186 127.116 221.031 127.272 220.839 127.272C220.646 127.272 220.491 127.116 220.491 126.924C220.491 126.731 220.646 126.575 220.839 126.575C221.031 126.575 221.186 126.731 221.186 126.924Z" fill="#9E9E9E"/>
<path fill-rule="evenodd" clip-rule="evenodd" d="M221.186 127.885C221.186 128.077 221.031 128.234 220.839 128.234C220.646 128.234 220.491 128.077 220.491 127.885C220.491 127.693 220.646 127.537 220.839 127.537C221.031 127.537 221.186 127.693 221.186 127.885Z" fill="#9E9E9E"/>
<path fill-rule="evenodd" clip-rule="evenodd" d="M162.384 132.441C162.384 132.499 162.431 132.547 162.49 132.547H223.359C223.417 132.547 223.465 132.499 223.465 132.441C223.465 132.382 223.417 132.335 223.359 132.335H162.49C162.431 132.335 162.384 132.382 162.384 132.441Z" fill="#C1C1C1"/>
<path fill-rule="evenodd" clip-rule="evenodd" d="M170.956 138.495C170.956 140.071 169.681 141.349 168.106 141.349C166.532 141.349 165.255 140.071 165.255 138.495C165.255 136.919 166.532 135.642 168.106 135.642C169.681 135.642 170.956 136.919 170.956 138.495Z" fill="#30374B"/>
<path fill-rule="evenodd" clip-rule="evenodd" d="M182.789 138.062H173.276C173.026 138.062 172.822 137.857 172.822 137.607C172.822 137.357 173.026 137.152 173.276 137.152H182.789C183.039 137.152 183.244 137.357 183.244 137.607C183.244 137.857 183.039 138.062 182.789 138.062Z" fill="#C1C1C1"/>
<path fill-rule="evenodd" clip-rule="evenodd" d="M179.962 139.205H173.138C172.965 139.205 172.822 139.347 172.822 139.521C172.822 139.696 172.965 139.838 173.138 139.838H179.962C180.136 139.838 180.279 139.696 180.279 139.521C180.279 139.347 180.136 139.205 179.962 139.205Z" fill="#C1C1C1"/>
<path fill-rule="evenodd" clip-rule="evenodd" d="M189.415 137.152H185.493C185.185 137.152 184.932 136.899 184.932 136.591V135.666C184.932 135.357 185.185 135.105 185.493 135.105H189.415C189.723 135.105 189.976 135.357 189.976 135.666V136.591C189.976 136.899 189.723 137.152 189.415 137.152Z" fill="#7A7A7A"/>
<path fill-rule="evenodd" clip-rule="evenodd" d="M189.027 136.333H185.835C185.723 136.333 185.63 136.241 185.63 136.128C185.63 136.015 185.723 135.924 185.835 135.924H189.027C189.14 135.924 189.231 136.015 189.231 136.128C189.231 136.241 189.14 136.333 189.027 136.333Z" fill="white"/>
<path fill-rule="evenodd" clip-rule="evenodd" d="M221.186 137.534C221.186 137.726 221.031 137.882 220.839 137.882C220.646 137.882 220.491 137.726 220.491 137.534C220.491 137.342 220.646 137.185 220.839 137.185C221.031 137.185 221.186 137.342 221.186 137.534Z" fill="#9E9E9E"/>
<path fill-rule="evenodd" clip-rule="evenodd" d="M221.186 138.495C221.186 138.688 221.031 138.844 220.839 138.844C220.646 138.844 220.491 138.688 220.491 138.495C220.491 138.303 220.646 138.147 220.839 138.147C221.031 138.147 221.186 138.303 221.186 138.495Z" fill="#9E9E9E"/>
<path fill-rule="evenodd" clip-rule="evenodd" d="M221.186 139.457C221.186 139.649 221.031 139.805 220.839 139.805C220.646 139.805 220.491 139.649 220.491 139.457C220.491 139.264 220.646 139.108 220.839 139.108C221.031 139.108 221.186 139.264 221.186 139.457Z" fill="#9E9E9E"/>
</g>
<path fill-rule="evenodd" clip-rule="evenodd" d="M51 41C46.5817 41 43 44.5817 43 49V60H225V49C225 44.5817 221.418 41 217 41H51Z" fill="#F7F7F7"/>
<circle cx="63.5" cy="50.5" r="2.5" fill="#D8D8D8"/>
<circle cx="71.5" cy="50.5" r="2.5" fill="#D8D8D8"/>
<circle cx="79.5" cy="50.5" r="2.5" fill="#D8D8D8"/>
</g>
<defs>
<filter id="filter0_d" x="33" y="33" width="202" height="157" filterUnits="userSpaceOnUse" color-interpolation-filters="sRGB">
<feFlood flood-opacity="0" result="BackgroundImageFix"/>
<feColorMatrix in="SourceAlpha" type="matrix" values="0 0 0 0 0 0 0 0 0 0 0 0 0 0 0 0 0 0 127 0"/>
<feOffset dy="2"/>
<feGaussianBlur stdDeviation="5"/>
<feColorMatrix type="matrix" values="0 0 0 0 0 0 0 0 0 0 0 0 0 0 0 0 0 0 0.1 0"/>
<feBlend mode="normal" in2="BackgroundImageFix" result="effect1_dropShadow"/>
<feBlend mode="normal" in="SourceGraphic" in2="effect1_dropShadow" result="shape"/>
</filter>
<filter id="filter1_d" x="33" y="52" width="202" height="27" filterUnits="userSpaceOnUse" color-interpolation-filters="sRGB">
<feFlood flood-opacity="0" result="BackgroundImageFix"/>
<feColorMatrix in="SourceAlpha" type="matrix" values="0 0 0 0 0 0 0 0 0 0 0 0 0 0 0 0 0 0 127 0"/>
<feOffset dy="2"/>
<feGaussianBlur stdDeviation="5"/>
<feColorMatrix type="matrix" values="0 0 0 0 0 0 0 0 0 0 0 0 0 0 0 0 0 0 0.1 0"/>
<feBlend mode="normal" in2="BackgroundImageFix" result="effect1_dropShadow"/>
<feBlend mode="normal" in="SourceGraphic" in2="effect1_dropShadow" result="shape"/>
</filter>
<filter id="filter2_d" x="35" y="53" width="198" height="132.489" filterUnits="userSpaceOnUse" color-interpolation-filters="sRGB">
<feFlood flood-opacity="0" result="BackgroundImageFix"/>
<feColorMatrix in="SourceAlpha" type="matrix" values="0 0 0 0 0 0 0 0 0 0 0 0 0 0 0 0 0 0 127 0"/>
<feOffset dy="2"/>
<feGaussianBlur stdDeviation="5"/>
<feColorMatrix type="matrix" values="0 0 0 0 0 0 0 0 0 0 0 0 0 0 0 0 0 0 0.1 0"/>
<feBlend mode="normal" in2="BackgroundImageFix" result="effect1_dropShadow"/>
<feBlend mode="normal" in="SourceGraphic" in2="effect1_dropShadow" result="shape"/>
</filter>
<filter id="filter3_d" x="194.759" y="60.7087" width="24.6417" height="24.6441" filterUnits="userSpaceOnUse" color-interpolation-filters="sRGB">
<feFlood flood-opacity="0" result="BackgroundImageFix"/>
<feColorMatrix in="SourceAlpha" type="matrix" values="0 0 0 0 0 0 0 0 0 0 0 0 0 0 0 0 0 0 127 0"/>
<feOffset dy="2"/>
<feGaussianBlur stdDeviation="5"/>
<feColorMatrix type="matrix" values="0 0 0 0 0 0 0 0 0 0 0 0 0 0 0 0 0 0 0.1 0"/>
<feBlend mode="normal" in2="BackgroundImageFix" result="effect1_dropShadow"/>
<feBlend mode="normal" in="SourceGraphic" in2="effect1_dropShadow" result="shape"/>
</filter>
<filter id="filter4_d" x="189" y="60.7087" width="24.6417" height="24.6441" filterUnits="userSpaceOnUse" color-interpolation-filters="sRGB">
<feFlood flood-opacity="0" result="BackgroundImageFix"/>
<feColorMatrix in="SourceAlpha" type="matrix" values="0 0 0 0 0 0 0 0 0 0 0 0 0 0 0 0 0 0 127 0"/>
<feOffset dy="2"/>
<feGaussianBlur stdDeviation="5"/>
<feColorMatrix type="matrix" values="0 0 0 0 0 0 0 0 0 0 0 0 0 0 0 0 0 0 0.1 0"/>
<feBlend mode="normal" in2="BackgroundImageFix" result="effect1_dropShadow"/>
<feBlend mode="normal" in="SourceGraphic" in2="effect1_dropShadow" result="shape"/>
</filter>
<filter id="filter5_d" x="36.4377" y="114.123" width="62.3219" height="30.5181" filterUnits="userSpaceOnUse" color-interpolation-filters="sRGB">
<feFlood flood-opacity="0" result="BackgroundImageFix"/>
<feColorMatrix in="SourceAlpha" type="matrix" values="0 0 0 0 0 0 0 0 0 0 0 0 0 0 0 0 0 0 127 0"/>
<feOffset dy="2"/>
<feGaussianBlur stdDeviation="5"/>
<feColorMatrix type="matrix" values="0 0 0 0 0 0 0 0 0 0 0 0 0 0 0 0 0 0 0.1 0"/>
<feBlend mode="normal" in2="BackgroundImageFix" result="effect1_dropShadow"/>
<feBlend mode="normal" in="SourceGraphic" in2="effect1_dropShadow" result="shape"/>
</filter>
<filter id="filter6_d" x="152.384" y="66.271" width="81.0811" height="89.7416" filterUnits="userSpaceOnUse" color-interpolation-filters="sRGB">
<feFlood flood-opacity="0" result="BackgroundImageFix"/>
<feColorMatrix in="SourceAlpha" type="matrix" values="0 0 0 0 0 0 0 0 0 0 0 0 0 0 0 0 0 0 127 0"/>
<feOffset dy="2"/>
<feGaussianBlur stdDeviation="5"/>
<feColorMatrix type="matrix" values="0 0 0 0 0 0 0 0 0 0 0 0 0 0 0 0 0 0 0.1 0"/>
<feBlend mode="normal" in2="BackgroundImageFix" result="effect1_dropShadow"/>
<feBlend mode="normal" in="SourceGraphic" in2="effect1_dropShadow" result="shape"/>
</filter>
<filter id="filter7_d" x="152.384" y="71.58" width="81.0808" height="25.3096" filterUnits="userSpaceOnUse" color-interpolation-filters="sRGB">
<feFlood flood-opacity="0" result="BackgroundImageFix"/>
<feColorMatrix in="SourceAlpha" type="matrix" values="0 0 0 0 0 0 0 0 0 0 0 0 0 0 0 0 0 0 127 0"/>
<feOffset dy="2"/>
<feGaussianBlur stdDeviation="5"/>
<feColorMatrix type="matrix" values="0 0 0 0 0 0 0 0 0 0 0 0 0 0 0 0 0 0 0.1 0"/>
<feBlend mode="normal" in2="BackgroundImageFix" result="effect1_dropShadow"/>
<feBlend mode="normal" in="SourceGraphic" in2="effect1_dropShadow" result="shape"/>
</filter>
</defs>
</svg>
