<svg width="269" height="220" viewBox="0 0 269 220" fill="none" xmlns="http://www.w3.org/2000/svg">
<path d="M149.447 24.037C76.0157 10.6201 34.7842 51.8938 23.3473 74.2078C6.59101 106.9 13.095 140.186 50.6709 173.987C97.6408 216.238 224.67 157.207 248.083 126.349C271.496 95.4921 241.236 40.8081 149.447 24.037Z" fill="#DEE0E9"/>
<g filter="url(#filter0_d)">
<rect x="43" y="41" width="182" height="137" rx="8" fill="white"/>
<g filter="url(#filter1_d)">
<path d="M212 65H220.256V73.2561H212V65Z" fill="white"/>
</g>
<g filter="url(#filter2_d)">
<path d="M212 75.1325H220.256V83.7639H212V75.1325Z" fill="white"/>
</g>
<g filter="url(#filter3_d)">
<path d="M212 85.6403H220.256V93.8965H212V85.6403Z" fill="white"/>
</g>
<g filter="url(#filter4_d)">
<path d="M47 65H55.2561V73.2561H47V65Z" fill="#F8C62C"/>
</g>
<g filter="url(#filter5_d)">
<path d="M47 75.2561H55.2561V83.8876H47V75.2561Z" fill="white"/>
</g>
<g opacity="0.9">
<path d="M120.616 97.5071L141.557 109.436V140.45L120.616 128.389V97.5071Z" fill="#E9EDF2"/>
<path d="M101 95.0551L112.929 102.146V133.16L101 125.937V95.0551Z" fill="white"/>
<path d="M112.928 133.16L120.615 128.521V97.5071L112.928 102.146V133.16Z" fill="#B6BFCF"/>
<path d="M144.87 120.171L167.799 107.05V138.064L144.87 151.185V120.171Z" fill="#B6BFCF"/>
<path d="M130.689 134.203L133.87 136.076V127.726L130.689 125.738L130.689 134.203Z" fill="#8EA4CD"/>
<path d="M131.748 133.69L130.576 134.242L133.869 136.154V134.817L131.748 133.69Z" fill="#94979A"/>
<path d="M131.749 133.69V126.401L133.869 127.726L133.869 134.817L131.749 133.69Z" fill="#BFCCE1"/>
<path d="M123.399 117.255V123.191L127.773 125.691V119.783L123.399 117.255Z" fill="#8EA4CD"/>
<path d="M124.648 117.984V122.358L127.772 124.211V119.788L124.648 117.984Z" fill="#BFCCE1"/>
<path d="M123.399 104.134V110.07L127.773 112.569V106.661L123.399 104.134Z" fill="#8EA4CD"/>
<path d="M124.648 104.863V109.237L127.772 111.09V106.667L124.648 104.863Z" fill="#BFCCE1"/>
<path d="M119.423 103.339V109.275L115.049 111.774V105.866L119.423 103.339Z" fill="#475E8C"/>
<path d="M118.174 104.068V108.442L115.05 110.295V105.872L118.174 104.068Z" fill="#7790BB"/>
<path d="M119.423 115.665V121.601L115.049 124.1V118.192L119.423 115.665Z" fill="#475E8C"/>
<path d="M118.174 116.394V120.768L115.05 122.621V118.198L118.174 116.394Z" fill="#7790BB"/>
<path d="M154.148 122.159V128.095L149.775 130.594V124.686L154.148 122.159Z" fill="#334D80"/>
<path d="M152.899 122.888V127.262L149.775 129.115V124.692L152.899 122.888Z" fill="#6984B4"/>
<path d="M154.148 134.485V140.421L149.775 142.921V137.013L154.148 134.485Z" fill="#334D80"/>
<path d="M152.899 135.214V139.588L149.775 141.441V137.018L152.899 135.214Z" fill="#6984B4"/>
<path d="M163.426 117.255V123.191L159.052 125.691V119.783L163.426 117.255Z" fill="#334D80"/>
<path d="M162.177 117.984V122.358L159.053 124.211V119.788L162.177 117.984Z" fill="#6984B4"/>
<path d="M163.426 129.582V135.517L159.052 138.017V132.109L163.426 129.582Z" fill="#334D80"/>
<path d="M162.177 130.31V134.684L159.053 136.538V132.114L162.177 130.31Z" fill="#6984B4"/>
<path d="M104.181 115.665V121.601L108.555 124.1V118.192L104.181 115.665Z" fill="#8EA4CD"/>
<path d="M105.43 116.394V120.768L108.554 122.621V118.198L105.43 116.394Z" fill="#BFCCE1"/>
<path d="M104.181 103.074V109.01L108.555 111.509V105.601L104.181 103.074Z" fill="#8EA4CD"/>
<path d="M105.43 103.803V108.176L108.554 110.03V105.607L105.43 103.803Z" fill="#BFCCE1"/>
<path d="M131.086 108.773V114.709L135.46 117.208V111.3L131.086 108.773Z" fill="#8EA4CD"/>
<path d="M132.335 109.502V113.875L135.46 115.729V111.306L132.335 109.502Z" fill="#BFCCE1"/>
<path d="M133.87 113.876L144.871 120.171V151.185L133.87 144.757V113.876Z" fill="white"/>
<path d="M136.255 134.22V140.156L140.629 142.656V136.748L136.255 134.22Z" fill="#8EA4CD"/>
<path d="M137.505 134.949V139.323L140.629 141.176V136.753L137.505 134.949Z" fill="#BFCCE1"/>
<path d="M136.255 121.099V127.035L140.629 129.534V123.626L136.255 121.099Z" fill="#8EA4CD"/>
<path d="M137.505 121.828V126.202L140.629 128.055V123.632L137.505 121.828Z" fill="#BFCCE1"/>
<path d="M123.664 82L101 95.0551L112.929 102.146L120.616 97.5071L141.557 109.436L133.87 113.876L144.87 120.171L167.8 107.05L123.664 82Z" fill="#D3D9E2"/>
<path d="M112.399 100.025L104.181 95.2539L124.592 83.5905L164.751 106.52L144.804 118.382L136.786 113.942L144.473 109.303L120.749 95.2539L112.399 100.025Z" fill="#E6EAEF"/>
<path d="M138.243 114.737L136.785 113.942L144.472 109.303V111.026L138.243 114.737Z" fill="#C4C4C4"/>
<path d="M124.592 83.5905L104.181 95.2539L105.772 96.1817L124.592 85.3798V83.5905Z" fill="#9DA8BB"/>
<path d="M135.46 96.4519L139.304 98.6388V101.555L135.46 99.3678V96.4519Z" fill="#C4C4C4"/>
<path d="M139.304 101.555L142.22 99.8265V96.9107L139.304 98.6389V101.555Z" fill="#A0A0A0"/>
<path d="M135.46 96.4519L138.376 94.7237L142.22 96.9106L139.304 98.6388L135.46 96.4519Z" fill="white"/>
<path d="M125.652 90.3552L129.496 92.5421V95.4579L125.652 93.2711V90.3552Z" fill="#C4C4C4"/>
<path d="M129.496 95.4579L132.412 93.7297V90.8139L129.496 92.5421V95.4579Z" fill="#A0A0A0"/>
<path d="M125.652 90.3552L128.568 88.627L132.412 90.8139L129.496 92.5421L125.652 90.3552Z" fill="white"/>
<path d="M145.269 102.681L149.112 104.868V107.784L145.269 105.597V102.681Z" fill="#C4C4C4"/>
<path d="M149.112 107.784L152.028 106.056V103.14L149.112 104.868V107.784Z" fill="#A0A0A0"/>
<path d="M145.269 102.681L148.185 100.953L152.028 103.14L149.112 104.868L145.269 102.681Z" fill="white"/>
<path d="M163.161 107.448L124.592 85.3798V83.5905L164.751 106.52L163.161 107.448Z" fill="#9DA8BB"/>
</g>
<path fill-rule="evenodd" clip-rule="evenodd" d="M51 41C46.5817 41 43 44.5817 43 49V60H225V49C225 44.5817 221.418 41 217 41H51Z" fill="#F7F7F7"/>
<circle cx="63.5" cy="50.5" r="2.5" fill="#D8D8D8"/>
<circle cx="71.5" cy="50.5" r="2.5" fill="#D8D8D8"/>
<circle cx="79.5" cy="50.5" r="2.5" fill="#D8D8D8"/>
</g>
<defs>
<filter id="filter0_d" x="33" y="33" width="202" height="157" filterUnits="userSpaceOnUse" color-interpolation-filters="sRGB">
<feFlood flood-opacity="0" result="BackgroundImageFix"/>
<feColorMatrix in="SourceAlpha" type="matrix" values="0 0 0 0 0 0 0 0 0 0 0 0 0 0 0 0 0 0 127 0"/>
<feOffset dy="2"/>
<feGaussianBlur stdDeviation="5"/>
<feColorMatrix type="matrix" values="0 0 0 0 0 0 0 0 0 0 0 0 0 0 0 0 0 0 0.1 0"/>
<feBlend mode="normal" in2="BackgroundImageFix" result="effect1_dropShadow"/>
<feBlend mode="normal" in="SourceGraphic" in2="effect1_dropShadow" result="shape"/>
</filter>
<filter id="filter1_d" x="204" y="57" width="28.2561" height="28.2561" filterUnits="userSpaceOnUse" color-interpolation-filters="sRGB">
<feFlood flood-opacity="0" result="BackgroundImageFix"/>
<feColorMatrix in="SourceAlpha" type="matrix" values="0 0 0 0 0 0 0 0 0 0 0 0 0 0 0 0 0 0 127 0"/>
<feOffset dx="2" dy="2"/>
<feGaussianBlur stdDeviation="5"/>
<feColorMatrix type="matrix" values="0 0 0 0 0 0 0 0 0 0 0 0 0 0 0 0 0 0 0.15 0"/>
<feBlend mode="normal" in2="BackgroundImageFix" result="effect1_dropShadow"/>
<feBlend mode="normal" in="SourceGraphic" in2="effect1_dropShadow" result="shape"/>
</filter>
<filter id="filter2_d" x="204" y="67.1325" width="28.2561" height="28.6314" filterUnits="userSpaceOnUse" color-interpolation-filters="sRGB">
<feFlood flood-opacity="0" result="BackgroundImageFix"/>
<feColorMatrix in="SourceAlpha" type="matrix" values="0 0 0 0 0 0 0 0 0 0 0 0 0 0 0 0 0 0 127 0"/>
<feOffset dx="2" dy="2"/>
<feGaussianBlur stdDeviation="5"/>
<feColorMatrix type="matrix" values="0 0 0 0 0 0 0 0 0 0 0 0 0 0 0 0 0 0 0.15 0"/>
<feBlend mode="normal" in2="BackgroundImageFix" result="effect1_dropShadow"/>
<feBlend mode="normal" in="SourceGraphic" in2="effect1_dropShadow" result="shape"/>
</filter>
<filter id="filter3_d" x="204" y="77.6403" width="28.2561" height="28.2561" filterUnits="userSpaceOnUse" color-interpolation-filters="sRGB">
<feFlood flood-opacity="0" result="BackgroundImageFix"/>
<feColorMatrix in="SourceAlpha" type="matrix" values="0 0 0 0 0 0 0 0 0 0 0 0 0 0 0 0 0 0 127 0"/>
<feOffset dx="2" dy="2"/>
<feGaussianBlur stdDeviation="5"/>
<feColorMatrix type="matrix" values="0 0 0 0 0 0 0 0 0 0 0 0 0 0 0 0 0 0 0.15 0"/>
<feBlend mode="normal" in2="BackgroundImageFix" result="effect1_dropShadow"/>
<feBlend mode="normal" in="SourceGraphic" in2="effect1_dropShadow" result="shape"/>
</filter>
<filter id="filter4_d" x="39" y="57" width="28.2561" height="28.2561" filterUnits="userSpaceOnUse" color-interpolation-filters="sRGB">
<feFlood flood-opacity="0" result="BackgroundImageFix"/>
<feColorMatrix in="SourceAlpha" type="matrix" values="0 0 0 0 0 0 0 0 0 0 0 0 0 0 0 0 0 0 127 0"/>
<feOffset dx="2" dy="2"/>
<feGaussianBlur stdDeviation="5"/>
<feColorMatrix type="matrix" values="0 0 0 0 0 0 0 0 0 0 0 0 0 0 0 0 0 0 0.15 0"/>
<feBlend mode="normal" in2="BackgroundImageFix" result="effect1_dropShadow"/>
<feBlend mode="normal" in="SourceGraphic" in2="effect1_dropShadow" result="shape"/>
</filter>
<filter id="filter5_d" x="39" y="67.2561" width="28.2561" height="28.6314" filterUnits="userSpaceOnUse" color-interpolation-filters="sRGB">
<feFlood flood-opacity="0" result="BackgroundImageFix"/>
<feColorMatrix in="SourceAlpha" type="matrix" values="0 0 0 0 0 0 0 0 0 0 0 0 0 0 0 0 0 0 127 0"/>
<feOffset dx="2" dy="2"/>
<feGaussianBlur stdDeviation="5"/>
<feColorMatrix type="matrix" values="0 0 0 0 0 0 0 0 0 0 0 0 0 0 0 0 0 0 0.15 0"/>
<feBlend mode="normal" in2="BackgroundImageFix" result="effect1_dropShadow"/>
<feBlend mode="normal" in="SourceGraphic" in2="effect1_dropShadow" result="shape"/>
</filter>
</defs>
</svg>
