<svg width="73" height="73" viewBox="0 0 73 73" fill="none" xmlns="http://www.w3.org/2000/svg">
<path d="M57.1591 41.7875C55.5487 44.8295 51.6419 47.4219 49.8898 48.3379C52.6058 37.394 47.9221 25.8932 47.1738 24.6288C46.2472 23.0631 42.2981 9.7799 27.0754 11.7518C14.7415 13.3494 10.9178 24.7034 11.003 30.2845C7.71184 34.1189 6.13549 39.0609 5.63489 41.6757C0.266787 34.1827 -2.67288 23.4146 6.27395 10.6334C15.2208 -2.14779 36.5015 -2.1478 46.0874 8.78012C53.7561 17.5225 56.6638 34.465 57.1591 41.7875Z" fill="#F8C62C"/>
<path d="M30.3973 12.5109C33.8369 12.3846 38.0355 14.4717 39.7048 15.5311C28.8691 18.6509 21.3478 28.4016 20.627 29.6818C19.7343 31.2672 10.2053 41.3288 19.5243 53.5261C27.0749 63.4087 38.8045 60.9479 43.5953 58.0836C49.251 58.9783 54.0694 57.6474 56.5842 56.7735C52.7791 65.1689 44.4988 73.4574 28.9565 72.0998C13.4142 70.7423 2.77387 52.3126 7.44478 38.547C11.1815 27.5346 24.3035 16.6011 30.3973 12.5109Z" fill="#2F374A"/>
<path d="M18.1286 50.1912C16.0277 46.1652 16.2216 42.6273 16.3043 40.652C24.424 48.476 36.6291 50.1143 38.0982 50.0985C39.9174 50.0788 53.3956 53.3005 59.2993 39.1313C64.0826 27.651 56.2517 18.5266 51.3757 15.8098C48.7396 9.7068 45.4821 7.15016 43.7868 5.64879C52.96 4.74638 64.0731 7.5371 70.6685 21.6759C77.2639 35.8147 66.6236 54.2443 52.3668 57.082C40.9613 59.3521 24.7178 53.4236 18.1286 50.1912Z" fill="#2F374A"/>
</svg>
