<?xml version="1.0" encoding="utf-8"?>
<!-- Generator: Adobe Illustrator 23.0.1, SVG Export Plug-In . SVG Version: 6.00 Build 0)  -->
<svg version="1.1" id="Calque_1" xmlns="http://www.w3.org/2000/svg" xmlns:xlink="http://www.w3.org/1999/xlink" x="0px" y="0px"
	 viewBox="0 0 50 90.5" style="enable-background:new 0 0 50 90.5;" xml:space="preserve">
<style type="text/css">
	.st0{fill:#30374B;}
	.st1{fill:#F9C72C;}
</style>
<g>
	<g>
		<polygon class="st1" points="31.31,18.19 31.31,21.89 43.2,14.31 43.2,79.23 19.3,79.23 19.3,73.88 16.18,73.88 16.18,82.35 
			46.32,82.35 46.32,8.62 		"/>
		<polygon class="st1" points="6.76,16.82 6.76,33.85 9.88,31.86 9.88,31.86 9.88,18.97 9.88,18.53 28.19,6.85 28.19,18.97 
			28.19,20.18 28.19,20.18 31.31,18.19 31.31,1.16 		"/>
		<path class="st0" d="M1.68,37.09v36.78h29.64V18.19L1.68,37.09z M28.19,70.76H4.79V38.81l23.4-14.93V70.76z"/>
	</g>
</g>
</svg>
