<svg width="984" height="283" viewBox="0 0 984 283" fill="none" xmlns="http://www.w3.org/2000/svg">
<path fill-rule="evenodd" clip-rule="evenodd" d="M827.477 147.503C841.18 174.216 868.997 192.494 901.083 192.494C946.743 192.494 983.757 155.48 983.757 109.82C983.757 64.1609 946.743 27.1466 901.083 27.1466C865.283 27.1466 834.798 49.9009 823.302 81.7357C816.423 76.8852 808.031 74.0363 798.975 74.0363C784.303 74.0363 771.377 81.5127 763.8 92.8635C758.993 87.3743 751.934 83.9078 744.064 83.9078C735.597 83.9078 728.067 87.9212 723.273 94.1495C721.736 75.2895 705.943 60.4629 686.686 60.4629C675.477 60.4629 665.441 65.4872 658.707 73.4066C655.649 71.4613 652.019 70.3345 648.126 70.3345C639.471 70.3345 632.118 75.9029 629.452 83.6523C625.727 81.0893 621.215 79.589 616.352 79.589C605.567 79.589 596.505 86.9686 593.941 96.954C591.639 95.342 588.836 94.3962 585.812 94.3962C580.141 94.3962 575.246 97.7233 572.974 102.532C568.51 89.198 555.918 79.589 541.082 79.589C522.511 79.589 507.457 94.6433 507.457 113.214C507.457 131.784 522.511 146.839 541.082 146.839C558.327 146.839 572.541 133.855 574.481 117.13C577.071 120.56 581.183 122.777 585.812 122.777C590.771 122.777 595.135 120.233 597.673 116.38C601.882 122.128 608.681 125.862 616.352 125.862C627.465 125.862 636.748 118.026 638.978 107.578C641.713 109.01 644.825 109.82 648.126 109.82C649.477 109.82 650.797 109.685 652.072 109.426C657.116 123.675 670.709 133.882 686.686 133.882C700.23 133.882 712.06 126.548 718.422 115.635C720.952 127.473 731.472 136.35 744.064 136.35C749.822 136.35 755.146 134.495 759.471 131.349C765.536 147.259 780.935 158.561 798.975 158.561C809.958 158.561 819.962 154.372 827.477 147.503Z" fill="white"/>
<path fill-rule="evenodd" clip-rule="evenodd" d="M355.255 45.3231C357.261 66.2826 374.917 82.6738 396.403 82.6738C397.235 82.6738 398.062 82.6492 398.883 82.6006C398.875 82.9325 398.871 83.2654 398.871 83.5993C398.871 105.236 416.411 122.777 438.048 122.777C459.685 122.777 477.226 105.236 477.226 83.5993C477.226 61.9621 459.685 44.4218 438.048 44.4218C437.907 44.4218 437.766 44.4225 437.626 44.424C437.701 43.4048 437.739 42.3753 437.739 41.3369C437.739 18.5072 419.232 0 396.403 0C379.71 0 365.329 9.89398 358.803 24.1374C356.573 22.1704 353.645 20.977 350.438 20.977C346.216 20.977 342.478 23.0456 340.18 26.2245C337.331 18.8244 330.153 13.5733 321.749 13.5733C310.846 13.5733 302.006 22.4126 302.006 33.3163C302.006 44.2201 310.846 53.0593 321.749 53.0593C330.003 53.0593 337.074 47.9943 340.023 40.803C342.305 44.1074 346.119 46.2727 350.438 46.2727C352.144 46.2727 353.771 45.9351 355.255 45.3231ZM240.738 62.6557C245.532 69.5348 253.5 74.0363 262.52 74.0363C277.172 74.0363 289.05 62.1585 289.05 47.5066C289.05 32.8547 277.172 20.977 262.52 20.977C250.115 20.977 239.699 29.4914 236.796 40.9951C232.002 34.116 224.034 29.6145 215.014 29.6145C208.846 29.6145 203.17 31.7192 198.665 35.2495C191.134 22.2881 177.099 13.5733 161.029 13.5733C137.007 13.5733 117.533 33.0473 117.533 57.0696C117.533 60.9047 118.029 64.6239 118.961 68.1664C112.737 70.3717 108.278 76.3106 108.278 83.2908C108.278 84.5836 108.431 85.8408 108.72 87.045C105.931 84.702 102.334 83.2908 98.4066 83.2908C89.5473 83.2908 82.3654 90.4727 82.3654 99.332C82.3654 108.191 89.5473 115.373 98.4066 115.373C107.266 115.373 114.448 108.191 114.448 99.332C114.448 98.0391 114.295 96.782 114.006 95.5777C116.795 97.9208 120.392 99.332 124.319 99.332C129.412 99.332 133.951 96.9588 136.889 93.2579C143.796 97.8743 152.098 100.566 161.029 100.566C177.631 100.566 192.061 91.2644 199.391 77.5884C203.773 80.7865 209.173 82.6739 215.014 82.6739C227.419 82.6739 237.836 74.1594 240.738 62.6557Z" fill="white"/>
<path d="M917.741 97.1725L980.981 132.648L937.484 216.556L912.497 176.762L892.137 171.517L810.697 193.42L798.666 225.811L781.391 227.044L727.715 206.376L680.208 197.43L655.838 188.792L672.805 184.165L727.407 154.859L718.769 165.965L711.365 169.049L708.589 179.846L770.286 153.934L763.191 166.89L741.905 176.762L737.586 194.654H774.605L846.173 145.605L761.031 116.299L803.911 97.1725L798.666 115.065L810.697 127.404L917.741 97.1725Z" fill="#F8F9FF"/>
<path opacity="0.7" d="M912.497 176.762L937.484 216.865L839.695 252.957L798.666 225.811L810.697 193.42L891.828 171.517L912.497 176.762Z" fill="#CFD3DF"/>
<path opacity="0.7" d="M311.569 22.8278L574.398 131.414L532.753 153.008L496.968 194.654L12.6478 192.803L38.869 142.828L82.9823 129.872L199.281 117.533L186.942 81.1314L275.168 67.2496L268.998 46.8896L294.603 45.3472L311.569 22.8278Z" fill="#CFD3DF"/>
<path opacity="0.7" d="M840.62 118.766L803.91 97.1725L798.358 115.065L810.697 127.404L840.62 118.766Z" fill="#CFD3DF"/>
<path opacity="0.7" d="M665.401 82.9823L846.481 145.296L774.604 194.654H737.586L741.596 175.219L761.34 166.273L768.743 154.859L708.589 180.155L711.057 168.432L718.46 166.273L727.406 154.859L673.73 184.782L657.997 188.792L541.082 154.859L665.401 82.9823Z" fill="#CFD3DF"/>
<path d="M294.294 45.3472L311.261 22.8278L180.155 72.4938L31.4654 109.82L38.869 142.828L82.6738 129.872L199.281 117.533L186.942 81.1314L275.168 67.2496L268.998 46.8896L294.294 45.3472Z" fill="#F8F9FF"/>
<path d="M553.113 123.085L665.709 83.5992L615.427 120.926L636.712 125.862L541.082 155.476C538.922 154.756 534.233 153.255 532.753 153.008C531.272 152.761 560.105 138.509 574.707 131.414L553.113 123.085Z" fill="#F8F9FF"/>
<path opacity="0.7" d="M918.05 97.1725L980.981 132.34L937.176 216.556L878.564 121.851L891.212 128.021L897.073 112.597H905.094L918.05 97.1725Z" fill="#CFD3DF"/>
<path d="M791.262 175.219L768.743 154.869L766.439 158.407L791.262 175.219Z" fill="white"/>
<path d="M740.363 166.582L727.401 154.864L724.473 158.564L738.203 167.816L740.363 166.582Z" fill="white"/>
<path d="M665.709 153.934L636.635 125.862L629.906 127.925L639.18 132.648L636.095 139.743L665.709 153.934Z" fill="white"/>
<path d="M942.42 202.674L983.757 124.628V276.285H0V165.348C32.0824 155.476 80.8229 166.17 101.183 172.751C113.769 170.777 133.985 173.574 142.52 175.219C155.106 175.219 198.972 173.574 219.332 172.751C256.104 163.867 305.811 170.695 326.068 175.219C355.682 170.037 418.613 173.06 446.377 175.219C419.724 169.543 369.461 146.736 347.662 136.042C375.837 140.463 441.688 149.245 479.693 148.998C517.699 148.751 559.282 157.944 575.323 162.571C632.331 163.558 672.085 173.882 684.527 178.921C684.033 179.415 680.414 182.314 678.666 183.24C672.249 186.942 661.596 188.175 657.38 188.792C664.537 192.741 688.126 197.019 699.026 198.664C737.031 201.379 769.977 218.098 781.7 226.119C824.887 222.664 848.024 233.728 854.193 239.692C905.278 201.44 934.296 199.075 942.42 202.674Z" fill="white"/>
<path d="M319.898 157.944L316.692 176.916H323.104L319.898 157.944Z" fill="white"/>
<path d="M345.194 157.327L341.988 176.299H348.4L345.194 157.327Z" fill="white"/>
<path d="M339.024 163.497L335.818 182.468H342.23L339.024 163.497Z" fill="white"/>
<path d="M334.089 162.263L330.883 181.235H337.295L334.089 162.263Z" fill="white"/>
<path d="M356.917 158.561L353.711 177.533H360.122L356.917 158.561Z" fill="white"/>
<path d="M362.469 155.476L359.263 174.448H365.675L362.469 155.476Z" fill="white"/>
<path d="M367.405 158.561L364.199 177.533H370.611L367.405 158.561Z" fill="white"/>
<path d="M380.978 162.263L377.772 181.235H384.184L380.978 162.263Z" fill="white"/>
<path d="M405.657 164.114L402.451 183.086H408.863L405.657 164.114Z" fill="white"/>
<path d="M410.593 165.348L407.387 184.319H413.798L410.593 165.348Z" fill="white"/>
<path d="M419.847 167.815L416.641 186.787H423.053L419.847 167.815Z" fill="white"/>
<path d="M427.251 166.582L424.045 185.553H430.457L427.251 166.582Z" fill="white"/>
<path d="M392.701 162.88L389.495 181.852H395.907L392.701 162.88Z" fill="white"/>
<path d="M312.495 165.348L309.289 184.319H315.701L312.495 165.348Z" fill="white"/>
<path d="M307.559 162.263L304.353 181.235H310.765L307.559 162.263Z" fill="white"/>
<path d="M292.752 158.561L289.546 177.533H295.958L292.752 158.561Z" fill="white"/>
<path d="M280.412 156.093L277.206 175.065H283.618L280.412 156.093Z" fill="white"/>
<path d="M261.903 154.242L258.697 173.214H265.109L261.903 154.242Z" fill="white"/>
<path d="M771.52 202.983L768.314 221.955H774.725L771.52 202.983Z" fill="white"/>
<path d="M764.116 201.749L760.91 220.721H767.322L764.116 201.749Z" fill="white"/>
<path d="M777.689 211.62L774.483 230.592H780.895L777.689 211.62Z" fill="white"/>
<path d="M747.458 201.749L744.252 220.721H750.664L747.458 201.749Z" fill="white"/>
<path d="M736.352 197.43L733.147 216.402H739.558L736.352 197.43Z" fill="white"/>
<path d="M730.8 195.579L727.594 214.551H734.006L730.8 195.579Z" fill="white"/>
<path d="M702.419 190.026L699.213 208.998H705.625L702.419 190.026Z" fill="white"/>
<path d="M687.612 190.026L684.406 208.998H690.818L687.612 190.026Z" fill="white"/>
<path d="M696.249 193.111L693.043 212.083H699.455L696.249 193.111Z" fill="white"/>
<path d="M685.761 193.111L682.555 212.083H688.967L685.761 193.111Z" fill="white"/>
<path d="M681.442 192.494L678.236 211.466H684.648L681.442 192.494Z" fill="white"/>
<path d="M867.767 217.173L864.561 236.145H870.973L867.767 217.173Z" fill="white"/>
<path d="M835.067 216.556L831.861 235.528H838.273L835.067 216.556Z" fill="white"/>
<path d="M804.702 218.407L801.496 237.379H807.908L804.702 218.407Z" fill="white"/>
<path d="M820.877 217.173L817.671 236.145H824.083L820.877 217.173Z" fill="white"/>
<path d="M583.861 267.095H598.39H619.973C626.508 267.095 627.91 261.487 627.794 258.683V228.237V188.406H574.755V201.613C574.778 219.2 574.755 254.644 574.755 260.039C574.755 266.382 579.708 267.095 583.861 267.095Z" fill="white" stroke="#C4C5CC" stroke-width="2"/>
<mask id="path-49-inside-1" fill="white">
<path d="M566 170C566 168.343 567.343 167 569 167H581.914C582.467 167 582.914 167.448 582.914 168V181.986C582.914 182.538 582.467 182.986 581.914 182.986H569C567.343 182.986 566 181.643 566 179.986V170Z"/>
</mask>
<path d="M566 170C566 168.343 567.343 167 569 167H581.914C582.467 167 582.914 167.448 582.914 168V181.986C582.914 182.538 582.467 182.986 581.914 182.986H569C567.343 182.986 566 181.643 566 179.986V170Z" fill="white" stroke="#C4C5CC" stroke-width="4" mask="url(#path-49-inside-1)"/>
<mask id="path-50-inside-2" fill="white">
<path d="M636.748 179.986C636.748 181.643 635.405 182.986 633.748 182.986L620.834 182.986C620.282 182.986 619.834 182.538 619.834 181.986L619.834 168C619.834 167.448 620.282 167 620.834 167L633.748 167C635.405 167 636.748 168.343 636.748 170L636.748 179.986Z"/>
</mask>
<path d="M636.748 179.986C636.748 181.643 635.405 182.986 633.748 182.986L620.834 182.986C620.282 182.986 619.834 182.538 619.834 181.986L619.834 168C619.834 167.448 620.282 167 620.834 167L633.748 167C635.405 167 636.748 168.343 636.748 170L636.748 179.986Z" fill="white" stroke="#C4C5CC" stroke-width="4" mask="url(#path-50-inside-2)"/>
<rect x="589.389" y="168" width="23.9702" height="17.212" rx="1" fill="white" stroke="#C4C5CC" stroke-width="2"/>
<path d="M631.408 215.592C631.408 212.541 629.122 211.828 627.827 211.852V217.987C630.408 218.339 631.367 217.254 631.408 216.667V215.592Z" fill="white" stroke="#C4C5CC" stroke-width="2"/>
<path d="M630.651 224.635V217.645C629.81 218.153 628.447 218.083 627.803 218.042V229.97C630.306 230.165 630.7 226.485 630.651 224.635Z" fill="white" stroke="#C4C5CC" stroke-width="2"/>
<path d="M631.408 238.936C631.408 235.885 629.122 235.171 627.827 235.196V241.331C630.408 241.683 631.367 240.598 631.408 240.011V238.936Z" fill="white" stroke="#C4C5CC" stroke-width="2"/>
<path d="M630.651 247.979V240.989C629.81 241.497 628.447 241.427 627.803 241.386V253.314C630.306 253.509 630.7 249.829 630.651 247.979Z" fill="white" stroke="#C4C5CC" stroke-width="2"/>
<path d="M570.852 215.592C570.852 212.541 573.138 211.828 574.433 211.852V217.987C571.852 218.339 570.893 217.254 570.852 216.667V215.592Z" fill="white" stroke="#C4C5CC" stroke-width="2"/>
<path d="M571.609 224.635V217.645C572.45 218.153 573.813 218.083 574.457 218.042V229.97C571.954 230.165 571.56 226.485 571.609 224.635Z" fill="white" stroke="#C4C5CC" stroke-width="2"/>
<path d="M570.852 238.936C570.852 235.885 573.138 235.171 574.433 235.196V241.331C571.852 241.683 570.893 240.598 570.852 240.011V238.936Z" fill="white" stroke="#C4C5CC" stroke-width="2"/>
<path d="M571.609 247.979V240.989C572.45 241.497 573.813 241.427 574.457 241.386V253.314C571.954 253.509 571.56 249.829 571.609 247.979Z" fill="white" stroke="#C4C5CC" stroke-width="2"/>
<path d="M573.19 182.705C573.19 178.34 576.55 177.573 578.23 177.735C583.287 177.77 593.919 177.84 595.991 177.84C598.062 177.84 598.789 178.372 598.893 178.639H604.506C604.548 177.93 605.948 177.811 606.644 177.84C611.706 177.834 622.614 177.826 625.742 177.84C628.87 177.853 629.548 180.811 629.496 182.288V183.644V197.025C629.496 199.361 626.901 200.802 625.603 201.231C619.509 203.026 606.758 206.84 604.506 207.73C602.254 208.62 599.559 208.101 598.493 207.73C591.507 205.61 577.111 201.196 575.415 200.501C573.719 199.806 573.225 197.801 573.19 196.886V195.148V182.705Z" fill="white" stroke="#C4C5CC" stroke-width="2"/>
<path d="M582.192 169.317C582.192 168.765 582.64 168.317 583.192 168.317H587.389C587.941 168.317 588.389 168.765 588.389 169.317V218.643C588.389 218.869 588.312 219.088 588.171 219.265L586.073 221.902C585.672 222.405 584.908 222.405 584.508 221.902L582.41 219.265C582.269 219.088 582.192 218.869 582.192 218.643V169.317Z" fill="#F8C62C" stroke="#C4C5CC" stroke-width="2"/>
<path d="M598.525 178.364C598.525 177.812 598.973 177.364 599.525 177.364H603.594C604.146 177.364 604.594 177.812 604.594 178.364V190.939C604.594 191.117 604.546 191.291 604.456 191.445L602.422 194.911C602.036 195.569 601.084 195.569 600.697 194.911L598.663 191.445C598.573 191.291 598.525 191.117 598.525 190.939V178.364Z" fill="white" stroke="#C4C5CC" stroke-width="2"/>
<path d="M614.36 169.317C614.36 168.765 614.807 168.317 615.36 168.317H619.556C620.108 168.317 620.556 168.765 620.556 169.317V218.643C620.556 218.869 620.479 219.088 620.338 219.265L618.24 221.902C617.84 222.405 617.076 222.405 616.675 221.902L614.577 219.265C614.436 219.088 614.36 218.869 614.36 218.643V169.317Z" fill="#F8C62C" stroke="#C4C5CC" stroke-width="2"/>
<mask id="path-64-inside-3" fill="white">
<rect x="601.373" y="211.183" width="10.3148" height="10.3148" rx="1" transform="rotate(45 601.373 211.183)"/>
</mask>
<rect x="601.373" y="211.183" width="10.3148" height="10.3148" rx="1" transform="rotate(45 601.373 211.183)" stroke="#C4C5CC" stroke-width="4" mask="url(#path-64-inside-3)"/>
<rect x="588.389" y="231.138" width="25.9702" height="29.2824" rx="2" fill="white" stroke="#C4C5CC" stroke-width="2"/>
<rect x="587.412" y="229.426" width="28.1092" height="5.76849" rx="1" fill="#F8C62C" stroke="#C4C5CC" stroke-width="2"/>
<path d="M492.997 228.111V193.587C493.62 186.49 497.599 171.75 508.532 169.563C522.198 166.83 534.857 171.433 537.015 174.598C539.172 177.763 546.365 181.359 545.214 235.16V259.039C545.694 261.149 545.358 265.57 540.179 266.376C536.956 266.877 535.757 262.313 535.474 257.292L531.98 259.039H528.24L525.507 257.169V247.387L521.91 251.559L520.184 252.566H517.882L513.423 249.833V260.765L509.827 265.225L505.943 263.93L504.36 260.765L502.203 255.443L498.319 257.169L494.147 254.724L491.845 248.682L492.997 228.111Z" fill="white"/>
<path fill-rule="evenodd" clip-rule="evenodd" d="M500.489 204.469C500.489 200.543 503.722 197.272 507.601 197.272C511.481 197.272 514.714 200.543 514.714 204.469C514.714 208.395 511.481 211.667 507.601 211.667C503.722 211.667 500.489 208.395 500.489 204.469ZM504.154 204.469C504.154 206.432 505.663 207.958 507.603 207.958C509.543 207.958 511.052 206.432 511.052 204.469C511.052 202.506 509.543 200.979 507.603 200.979C505.663 200.979 504.154 202.506 504.154 204.469Z" fill="#C4C5CC"/>
<path fill-rule="evenodd" clip-rule="evenodd" d="M517.735 207.086C517.735 202.942 520.968 199.67 525.063 199.67C528.943 199.67 532.392 202.942 532.392 207.086C532.392 211.23 529.159 214.502 525.063 214.502C520.968 214.502 517.735 211.23 517.735 207.086ZM521.615 207.086C521.615 209.049 523.124 210.576 525.064 210.576C527.004 210.576 528.513 209.049 528.513 207.086C528.513 205.123 527.004 203.596 525.064 203.596C523.124 203.596 521.615 205.123 521.615 207.086Z" fill="#C4C5CC"/>
<path fill-rule="evenodd" clip-rule="evenodd" d="M490.144 192.909C490.144 176.769 503.076 163.683 519.026 163.683C534.976 163.683 547.909 176.769 547.909 192.909V260.087C547.909 264.885 544.029 268.593 539.503 268.593C535.407 268.593 532.174 265.758 531.312 261.832C530.666 262.05 530.019 262.05 529.372 262.05C525.061 262.05 521.613 258.778 521.182 254.416C520.535 254.634 519.888 254.634 519.242 254.634C518.595 254.634 517.949 254.634 517.302 254.416V258.56C517.302 263.359 513.422 267.067 508.896 267.067C504.369 267.067 500.705 263.359 500.49 258.778C499.843 258.997 499.196 258.997 498.55 258.997C493.808 258.997 490.144 255.071 490.144 250.49V192.909ZM540.939 263.765C542.057 263.765 542.952 262.882 542.952 261.779H542.057V193.826C542.057 181.25 531.544 170.881 518.795 170.881C506.045 170.881 495.532 181.25 495.532 193.826V252.292C495.532 253.395 496.427 254.278 497.545 254.278C498.664 254.278 499.559 253.395 499.559 252.292V246.776H506.269V260.235C506.269 261.338 507.164 262.22 508.282 262.22C509.4 262.22 510.295 261.338 510.295 260.235V232.436H517.005V247.879C517.005 248.983 517.9 249.865 519.018 249.865H519.466C520.584 249.865 521.479 248.983 521.479 247.879V243.688H528.189V255.381C528.189 256.484 529.084 257.366 530.202 257.366C531.321 257.366 532.215 256.484 532.215 255.381V245.232H538.926V261.779C538.926 262.882 539.82 263.765 540.939 263.765Z" fill="#C4C5CC"/>
<path d="M539.93 263.5C541.353 263.969 542.069 262.6 542.069 261.796L543.079 260.774L544.62 261.583L544.527 265.119L539.383 265.579L539.93 263.5Z" fill="#C4C5CC"/>
<path d="M499.113 161.747C505.778 153.883 514.615 152.486 518.607 152.486H519.448C523.453 152.438 532.277 153.883 538.941 161.747C545.606 169.611 547.124 177.094 547.05 179.853L564.378 190.183C564.859 190.535 565.611 191.505 564.767 192.571H519.448H518.607H473.288C472.444 191.505 473.196 190.535 473.677 190.183L491.005 179.853C490.931 177.094 492.449 169.611 499.113 161.747Z" fill="white" stroke="#C4C5CC" stroke-width="2"/>
<path d="M479.418 186.756L558.276 186.757" stroke="#C4C5CC" stroke-width="2"/>
<path d="M490.839 180.019H547.154" stroke="#C4C5CC" stroke-width="2"/>
<path d="M511.244 153.332C513.521 148.248 520.239 141.188 527.179 153.392C520.56 151.752 517.874 151.554 511.244 153.332Z" fill="white" stroke="#C4C5CC" stroke-width="2"/>
<path d="M527.182 173.233C527.182 162.342 523.614 152.485 519.212 152.485C514.811 152.485 511.242 162.342 511.242 173.233" stroke="#C4C5CC" stroke-width="2"/>
<path d="M492.468 173.233H545.326" stroke="#C4C5CC" stroke-width="2"/>
<path d="M485.77 217.846L507.732 211.829L507.732 259.847L485.77 265.864L485.77 217.846Z" fill="white" stroke="#C4C5CC" stroke-width="2" stroke-linecap="round" stroke-linejoin="round"/>
<path d="M528.411 217.855L551.449 211.814V259.838L528.411 265.879L528.411 217.855Z" fill="white" stroke="#C4C5CC" stroke-width="2" stroke-linecap="round" stroke-linejoin="round"/>
<path d="M529.293 217.855L506.255 211.814V259.838L529.293 265.879L529.293 217.855Z" fill="white" stroke="#C4C5CC" stroke-width="2" stroke-linecap="round" stroke-linejoin="round"/>
<path d="M513.396 116.343C513.396 112.956 513.824 110.258 514.679 108.25C515.535 106.242 517.094 104.27 519.358 102.335C521.648 100.375 523.17 98.7903 523.925 97.5806C524.679 96.3468 525.057 95.0524 525.057 93.6976C525.057 89.6089 523.094 87.5645 519.17 87.5645C517.308 87.5645 515.811 88.121 514.679 89.2339C513.572 90.3226 512.994 91.8347 512.943 93.7702H502C502.05 89.1492 503.597 85.5323 506.642 82.9194C509.711 80.3065 513.887 79 519.17 79C524.503 79 528.642 80.246 531.585 82.7379C534.528 85.2056 536 88.7016 536 93.2258C536 95.2823 535.522 97.2298 534.566 99.0685C533.61 100.883 531.937 102.903 529.547 105.129L526.491 107.923C524.579 109.69 523.484 111.758 523.208 114.129L523.057 116.343H513.396ZM512.302 127.484C512.302 125.863 512.868 124.532 514 123.492C515.157 122.427 516.629 121.895 518.415 121.895C520.201 121.895 521.66 122.427 522.792 123.492C523.95 124.532 524.528 125.863 524.528 127.484C524.528 129.081 523.962 130.399 522.83 131.44C521.723 132.48 520.252 133 518.415 133C516.579 133 515.094 132.48 513.962 131.44C512.855 130.399 512.302 129.081 512.302 127.484Z" fill="#F8C62C"/>
</svg>
