<svg width="99" height="32" viewBox="0 0 99 32" fill="none" xmlns="http://www.w3.org/2000/svg">
<path fill-rule="evenodd" clip-rule="evenodd" d="M25.1469 15.3328V18.8015H27.2892C27.894 18.8015 28.3665 18.6513 28.7071 18.3515C29.0477 18.0517 29.2177 17.635 29.2177 17.1014C29.2177 15.9477 28.6284 15.3582 27.4493 15.3328H25.1469ZM25.1469 13.915H27.0375C27.6372 13.915 28.1062 13.7788 28.4442 13.507C28.7821 13.2352 28.9509 12.8501 28.9509 12.3521C28.9509 11.8033 28.7947 11.4067 28.4821 11.1628C28.1695 10.919 27.683 10.7971 27.0223 10.7971H25.1469V13.915ZM23.2183 20.3412V9.24188H27.0223C28.2776 9.24188 29.2331 9.49344 29.8886 9.99655C30.5443 10.4997 30.8721 11.2493 30.8721 12.2454C30.8721 12.7535 30.735 13.211 30.4603 13.6176C30.186 14.0241 29.7845 14.3394 29.256 14.5629C29.8557 14.7254 30.3193 15.0318 30.6471 15.4815C30.9752 15.9313 31.1389 16.4711 31.1389 17.1014C31.1389 18.1434 30.8047 18.9437 30.1365 19.5028C29.4682 20.0619 28.5115 20.3412 27.2663 20.3412H23.2183Z" fill="#30374B"/>
<mask id="mask0" mask-type="alpha" maskUnits="userSpaceOnUse" x="0" y="0" width="99" height="32">
<path fill-rule="evenodd" clip-rule="evenodd" d="M0 31.9904H98.9172V0H0V31.9904Z" fill="white"/>
</mask>
<g mask="url(#mask0)">
<path fill-rule="evenodd" clip-rule="evenodd" d="M33.1819 20.3412H35.1031V9.24188H33.1819V20.3412Z" fill="#30374B"/>
<path fill-rule="evenodd" clip-rule="evenodd" d="M39.9742 9.24176L43.1761 17.7495L46.3701 9.24176H48.8629V20.3411H46.942V16.682L47.1325 11.788L43.8545 20.3411H42.4746L39.2043 11.7955L39.395 16.682V20.3411H37.4739V9.24176H39.9742Z" fill="#30374B"/>
<path fill-rule="evenodd" clip-rule="evenodd" d="M53.071 10.797V18.8013H54.3288C55.3403 18.8013 56.1167 18.4849 56.6579 17.8523C57.1992 17.2196 57.4747 16.3111 57.485 15.127V14.5095C57.485 13.305 57.2233 12.3852 56.6997 11.7498C56.1763 11.1144 55.4166 10.797 54.4203 10.797H53.071ZM51.1423 20.3411V9.24176H54.4203C55.4012 9.24176 56.2715 9.46025 57.0312 9.89743C57.7912 10.3344 58.3795 10.9544 58.7962 11.7573C59.2129 12.5605 59.4212 13.4803 59.4212 14.517V15.0736C59.4212 16.1257 59.2116 17.0506 58.7923 17.8485C58.3732 18.6464 57.7757 19.2612 57.0008 19.6934C56.2258 20.1253 55.3379 20.3411 54.3365 20.3411H51.1423Z" fill="#30374B"/>
<path fill-rule="evenodd" clip-rule="evenodd" d="M64.0561 19.0072C64.4221 19.0072 64.7664 18.9184 65.0891 18.7405C65.4119 18.5625 65.6545 18.3236 65.817 18.0237V16.4687H64.8185C64.1324 16.4687 63.6165 16.588 63.2708 16.827C62.9253 17.0658 62.7525 17.4037 62.7525 17.8407C62.7525 18.1966 62.8706 18.48 63.1069 18.6907C63.3433 18.9017 63.6597 19.0072 64.0561 19.0072ZM66.0915 20.3413C66.0102 20.1837 65.939 19.927 65.8779 19.5714C65.2886 20.1863 64.567 20.4938 63.7131 20.4938C62.8848 20.4938 62.2088 20.2575 61.6852 19.7848C61.1618 19.3121 60.8999 18.7277 60.8999 18.0314C60.8999 17.1522 61.2267 16.4774 61.8796 16.0074C62.5326 15.5374 63.4666 15.3022 64.6812 15.3022H65.817V14.761C65.817 14.3341 65.6978 13.9923 65.4588 13.7357C65.2198 13.479 64.8565 13.3508 64.3686 13.3508C63.9468 13.3508 63.6013 13.4561 63.3319 13.6671C63.0627 13.8781 62.9278 14.1461 62.9278 14.4715H61.0754C61.0754 14.0191 61.2253 13.5959 61.5251 13.2021C61.825 12.8082 62.233 12.4994 62.7488 12.2758C63.2645 12.0523 63.8403 11.9405 64.4753 11.9405C65.4409 11.9405 66.211 12.1831 66.7851 12.6684C67.3594 13.1538 67.6542 13.8361 67.6696 14.7153V18.4355C67.6696 19.1774 67.7737 19.7696 67.9823 20.2117V20.3413H66.0915Z" fill="#30374B"/>
<path fill-rule="evenodd" clip-rule="evenodd" d="M71.9311 10.088V12.093H73.3871V13.465H71.9311V18.0695C71.9311 18.3845 71.9933 18.6122 72.1177 18.7519C72.2423 18.8917 72.4646 18.9615 72.7847 18.9615C72.9984 18.9615 73.2142 18.9359 73.4327 18.8852V20.3185C73.0109 20.4353 72.6044 20.4938 72.2131 20.4938C70.7901 20.4938 70.0785 19.7085 70.0785 18.1383V13.465H68.7217V12.093H70.0785V10.088H71.9311Z" fill="#30374B"/>
<path fill-rule="evenodd" clip-rule="evenodd" d="M77.6941 19.0072C78.0601 19.0072 78.4044 18.9184 78.7271 18.7405C79.0499 18.5625 79.2925 18.3236 79.4552 18.0237V16.4687H78.4565C77.7704 16.4687 77.2545 16.588 76.909 16.827C76.5633 17.0658 76.3905 17.4037 76.3905 17.8407C76.3905 18.1966 76.5086 18.48 76.7449 18.6907C76.9812 18.9017 77.2977 19.0072 77.6941 19.0072ZM79.7295 20.3413C79.6481 20.1837 79.5769 19.927 79.5159 19.5714C78.9265 20.1863 78.2049 20.4938 77.3511 20.4938C76.5228 20.4938 75.8468 20.2575 75.3232 19.7848C74.7998 19.3121 74.5381 18.7277 74.5381 18.0314C74.5381 17.1522 74.8647 16.4774 75.5175 16.0074C76.1708 15.5374 77.1046 15.3022 78.3192 15.3022H79.4552V14.761C79.4552 14.3341 79.3357 13.9923 79.0968 13.7357C78.8578 13.479 78.4944 13.3508 78.0067 13.3508C77.5848 13.3508 77.2393 13.4561 76.9699 13.6671C76.7007 13.8781 76.5658 14.1461 76.5658 14.4715H74.7136C74.7136 14.0191 74.8633 13.5959 75.1631 13.2021C75.463 12.8082 75.8709 12.4994 76.3868 12.2758C76.9027 12.0523 77.4783 11.9405 78.1132 11.9405C79.0789 11.9405 79.849 12.1831 80.4231 12.6684C80.9974 13.1538 81.2922 13.8361 81.3076 14.7153V18.4355C81.3076 19.1774 81.4117 19.7696 81.6202 20.2117V20.3413H79.7295Z" fill="#30374B"/>
<path fill-rule="evenodd" clip-rule="evenodd" d="M84.4026 18.3896C84.7481 18.3896 85.0151 18.4874 85.203 18.6832C85.391 18.8788 85.4851 19.124 85.4851 19.4188C85.4851 19.7085 85.391 19.9487 85.203 20.1392C85.0151 20.3297 84.7481 20.425 84.4026 20.425C84.0722 20.425 83.8105 20.3311 83.6173 20.143C83.4242 19.955 83.3276 19.7136 83.3276 19.4188C83.3276 19.124 83.4218 18.8788 83.6098 18.6832C83.7979 18.4874 84.062 18.3896 84.4026 18.3896Z" fill="#30374B"/>
<path fill-rule="evenodd" clip-rule="evenodd" d="M87.7263 20.3413H89.5789V12.093H87.7263V20.3413ZM87.6121 9.95073C87.6121 9.66611 87.7023 9.42997 87.8827 9.2417C88.0632 9.05385 88.3211 8.95972 88.6564 8.95972C88.992 8.95972 89.251 9.05385 89.434 9.2417C89.617 9.42997 89.7085 9.66611 89.7085 9.95073C89.7085 10.2303 89.617 10.4628 89.434 10.6482C89.251 10.8338 88.992 10.9265 88.6564 10.9265C88.3211 10.9265 88.0632 10.8338 87.8827 10.6482C87.7023 10.4628 87.6121 10.2303 87.6121 9.95073Z" fill="#30374B"/>
<path fill-rule="evenodd" clip-rule="evenodd" d="M93.1007 16.301C93.1007 17.1498 93.276 17.8142 93.6267 18.2944C93.9773 18.7748 94.4654 19.0148 95.0904 19.0148C95.7157 19.0148 96.2021 18.7709 96.5503 18.283C96.8984 17.7951 97.0725 17.081 97.0725 16.1407C97.0725 15.3073 96.8933 14.6468 96.5351 14.1587C96.1768 13.671 95.6901 13.4269 95.075 13.4269C94.4705 13.4269 93.9901 13.6671 93.6344 14.1473C93.2786 14.6275 93.1007 15.3455 93.1007 16.301ZM91.2483 16.1407C91.2483 15.3329 91.4084 14.6048 91.7285 13.9568C92.0486 13.3087 92.4984 12.8108 93.078 12.4627C93.6572 12.1146 94.323 11.9403 95.075 11.9403C96.1881 11.9403 97.0915 12.2988 97.7853 13.0153C98.4789 13.7318 98.8536 14.6823 98.9096 15.8664L98.9173 16.301C98.9173 17.1141 98.7609 17.8407 98.4483 18.4812C98.1359 19.1215 97.6886 19.6171 97.1067 19.9676C96.5249 20.3184 95.8526 20.4937 95.0904 20.4937C93.9266 20.4937 92.9952 20.1062 92.2965 19.3312C91.5976 18.5561 91.2483 17.5233 91.2483 16.2324V16.1407Z" fill="#30374B"/>
<path fill-rule="evenodd" clip-rule="evenodd" d="M10.7505 6.17917V7.52155L15.0633 4.77025V28.3223H6.39454V26.3792H5.26294V29.4539H16.1949V2.70605L10.7505 6.17917Z" fill="#F9C72C"/>
<path fill-rule="evenodd" clip-rule="evenodd" d="M1.84546 5.68256V11.8595L2.97686 11.1377V6.46198V6.30293L9.61899 2.06419V6.46198V6.90058L10.7506 6.17878V0L1.84546 5.68256Z" fill="#F9C72C"/>
<path fill-rule="evenodd" clip-rule="evenodd" d="M9.61903 25.2472H1.1316V13.6571L9.61903 8.2429V25.2472ZM0 13.0367V26.3788H10.7506V6.17871L0 13.0367Z" fill="#30374B"/>
</g>
<path d="M30.7227 30V22.8906H32.8223C33.4505 22.8906 34.0072 23.0306 34.4922 23.3105C34.9805 23.5905 35.3581 23.9876 35.625 24.502C35.8919 25.0163 36.0254 25.6055 36.0254 26.2695V26.626C36.0254 27.2998 35.8903 27.8923 35.6201 28.4033C35.3532 28.9144 34.9707 29.3083 34.4727 29.585C33.9779 29.8617 33.4098 30 32.7686 30H30.7227ZM31.958 23.8867V29.0137H32.7637C33.4115 29.0137 33.9079 28.8118 34.2529 28.4082C34.6012 28.0013 34.7786 27.4186 34.7852 26.6602V26.2646C34.7852 25.4932 34.6175 24.904 34.2822 24.4971C33.9469 24.0902 33.4603 23.8867 32.8223 23.8867H31.958ZM36.9189 27.3096C36.9189 26.792 37.0215 26.3265 37.2266 25.9131C37.4316 25.4964 37.7197 25.1774 38.0908 24.9561C38.4619 24.7314 38.8883 24.6191 39.3701 24.6191C40.083 24.6191 40.6608 24.8486 41.1035 25.3076C41.5495 25.7666 41.7904 26.3753 41.8262 27.1338L41.8311 27.4121C41.8311 27.9329 41.7301 28.3984 41.5283 28.8086C41.3298 29.2188 41.0433 29.5361 40.6689 29.7607C40.2979 29.9854 39.8682 30.0977 39.3799 30.0977C38.6344 30.0977 38.0371 29.8503 37.5879 29.3555C37.1419 28.8574 36.9189 28.195 36.9189 27.3682V27.3096ZM38.1055 27.4121C38.1055 27.9557 38.2178 28.3822 38.4424 28.6914C38.667 28.9974 38.9795 29.1504 39.3799 29.1504C39.7803 29.1504 40.0911 28.9941 40.3125 28.6816C40.5371 28.3691 40.6494 27.9118 40.6494 27.3096C40.6494 26.7757 40.5339 26.3525 40.3027 26.04C40.0749 25.7275 39.764 25.5713 39.3701 25.5713C38.9827 25.5713 38.6751 25.7259 38.4473 26.0352C38.2194 26.3411 38.1055 26.8001 38.1055 27.4121ZM45.0049 29.1504C45.3011 29.1504 45.5469 29.0641 45.7422 28.8916C45.9375 28.7191 46.0417 28.5059 46.0547 28.252H47.1729C47.1598 28.5807 47.0573 28.8883 46.8652 29.1748C46.6732 29.458 46.4128 29.6826 46.084 29.8486C45.7552 30.0146 45.4004 30.0977 45.0195 30.0977C44.2806 30.0977 43.6947 29.8584 43.2617 29.3799C42.8288 28.9014 42.6123 28.2406 42.6123 27.3975V27.2754C42.6123 26.4714 42.8271 25.8285 43.2568 25.3467C43.6865 24.8617 44.2725 24.6191 45.0146 24.6191C45.6429 24.6191 46.154 24.8031 46.5479 25.1709C46.945 25.5355 47.1533 26.0156 47.1729 26.6113H46.0547C46.0417 26.3086 45.9375 26.0596 45.7422 25.8643C45.5501 25.6689 45.3044 25.5713 45.0049 25.5713C44.6208 25.5713 44.3245 25.7113 44.1162 25.9912C43.9079 26.2679 43.8021 26.6895 43.7988 27.2559V27.4463C43.7988 28.0192 43.9014 28.4473 44.1064 28.7305C44.3148 29.0104 44.6143 29.1504 45.0049 29.1504ZM51.2695 29.4824C50.9212 29.8926 50.4264 30.0977 49.7852 30.0977C49.2122 30.0977 48.7777 29.93 48.4814 29.5947C48.1885 29.2594 48.042 28.7744 48.042 28.1396V24.7168H49.2285V28.125C49.2285 28.7956 49.5068 29.1309 50.0635 29.1309C50.6396 29.1309 51.0286 28.9242 51.2305 28.5107V24.7168H52.417V30H51.2988L51.2695 29.4824ZM54.7412 24.7168L54.7754 25.2686C55.1465 24.8356 55.6543 24.6191 56.2988 24.6191C57.0052 24.6191 57.4886 24.8893 57.749 25.4297C58.1331 24.8893 58.6735 24.6191 59.3701 24.6191C59.9528 24.6191 60.3857 24.7803 60.6689 25.1025C60.9554 25.4248 61.1019 25.9001 61.1084 26.5283V30H59.9219V26.5625C59.9219 26.2272 59.8486 25.9814 59.7021 25.8252C59.5557 25.6689 59.3132 25.5908 58.9746 25.5908C58.7044 25.5908 58.4831 25.6641 58.3105 25.8105C58.1413 25.9538 58.0225 26.1426 57.9541 26.377L57.959 30H56.7725V26.5234C56.7562 25.9017 56.4388 25.5908 55.8203 25.5908C55.3451 25.5908 55.0081 25.7845 54.8096 26.1719V30H53.623V24.7168H54.7412ZM64.6533 30.0977C63.9014 30.0977 63.291 29.8617 62.8223 29.3896C62.3568 28.9144 62.124 28.2829 62.124 27.4951V27.3486C62.124 26.8213 62.2249 26.3509 62.4268 25.9375C62.6318 25.5208 62.9183 25.1969 63.2861 24.9658C63.654 24.7347 64.0641 24.6191 64.5166 24.6191C65.236 24.6191 65.791 24.8486 66.1816 25.3076C66.5755 25.7666 66.7725 26.416 66.7725 27.2559V27.7344H63.3203C63.3561 28.1706 63.501 28.5156 63.7549 28.7695C64.012 29.0234 64.3343 29.1504 64.7217 29.1504C65.2653 29.1504 65.708 28.9307 66.0498 28.4912L66.6895 29.1016C66.4779 29.4173 66.1947 29.6631 65.8398 29.8389C65.4883 30.0114 65.0928 30.0977 64.6533 30.0977ZM64.5117 25.5713C64.1862 25.5713 63.9225 25.6852 63.7207 25.9131C63.5221 26.141 63.3952 26.4583 63.3398 26.8652H65.6006V26.7773C65.5745 26.3802 65.4688 26.0807 65.2832 25.8789C65.0977 25.6738 64.8405 25.5713 64.5117 25.5713ZM68.7988 24.7168L68.833 25.3271C69.2236 24.8551 69.7363 24.6191 70.3711 24.6191C71.4714 24.6191 72.0312 25.249 72.0508 26.5088V30H70.8643V26.5771C70.8643 26.2419 70.791 25.9945 70.6445 25.835C70.5013 25.6722 70.2653 25.5908 69.9365 25.5908C69.458 25.5908 69.1016 25.8073 68.8672 26.2402V30H67.6807V24.7168H68.7988ZM74.751 23.4326V24.7168H75.6836V25.5957H74.751V28.5449C74.751 28.7467 74.79 28.8932 74.8682 28.9844C74.9495 29.0723 75.0928 29.1162 75.2979 29.1162C75.4346 29.1162 75.5729 29.0999 75.7129 29.0674V29.9854C75.4427 30.0602 75.1823 30.0977 74.9316 30.0977C74.0202 30.0977 73.5645 29.5947 73.5645 28.5889V25.5957H72.6953V24.7168H73.5645V23.4326H74.751ZM79.751 30C79.6989 29.8991 79.6533 29.7347 79.6143 29.5068C79.2367 29.9007 78.7744 30.0977 78.2275 30.0977C77.6969 30.0977 77.264 29.9463 76.9287 29.6436C76.5934 29.3408 76.4258 28.9665 76.4258 28.5205C76.4258 27.9574 76.6341 27.526 77.0508 27.2266C77.4707 26.9238 78.0697 26.7725 78.8477 26.7725H79.5752V26.4258C79.5752 26.1523 79.4987 25.9342 79.3457 25.7715C79.1927 25.6055 78.96 25.5225 78.6475 25.5225C78.3773 25.5225 78.1559 25.5908 77.9834 25.7275C77.8109 25.861 77.7246 26.0319 77.7246 26.2402H76.5381C76.5381 25.9505 76.6341 25.6803 76.8262 25.4297C77.0182 25.1758 77.2786 24.9772 77.6074 24.834C77.9395 24.6908 78.3089 24.6191 78.7158 24.6191C79.3343 24.6191 79.8275 24.7754 80.1953 25.0879C80.5632 25.3971 80.752 25.8333 80.7617 26.3965V28.7793C80.7617 29.2546 80.8285 29.6338 80.9619 29.917V30H79.751ZM78.4473 29.1455C78.6816 29.1455 78.9014 29.0885 79.1064 28.9746C79.3148 28.8607 79.471 28.7077 79.5752 28.5156V27.5195H78.9355C78.4961 27.5195 78.1657 27.596 77.9443 27.749C77.723 27.902 77.6123 28.1185 77.6123 28.3984C77.6123 28.6263 77.6872 28.8086 77.8369 28.9453C77.9899 29.0788 78.1934 29.1455 78.4473 29.1455ZM83.4912 23.4326V24.7168H84.4238V25.5957H83.4912V28.5449C83.4912 28.7467 83.5303 28.8932 83.6084 28.9844C83.6898 29.0723 83.833 29.1162 84.0381 29.1162C84.1748 29.1162 84.3132 29.0999 84.4531 29.0674V29.9854C84.1829 30.0602 83.9225 30.0977 83.6719 30.0977C82.7604 30.0977 82.3047 29.5947 82.3047 28.5889V25.5957H81.4355V24.7168H82.3047V23.4326H83.4912ZM86.5967 30H85.4102V24.7168H86.5967V30ZM85.3369 23.3447C85.3369 23.1624 85.3939 23.0111 85.5078 22.8906C85.625 22.7702 85.791 22.71 86.0059 22.71C86.2207 22.71 86.3867 22.7702 86.5039 22.8906C86.6211 23.0111 86.6797 23.1624 86.6797 23.3447C86.6797 23.5238 86.6211 23.6735 86.5039 23.7939C86.3867 23.9111 86.2207 23.9697 86.0059 23.9697C85.791 23.9697 85.625 23.9111 85.5078 23.7939C85.3939 23.6735 85.3369 23.5238 85.3369 23.3447ZM87.6709 27.3096C87.6709 26.792 87.7734 26.3265 87.9785 25.9131C88.1836 25.4964 88.4717 25.1774 88.8428 24.9561C89.2139 24.7314 89.6403 24.6191 90.1221 24.6191C90.835 24.6191 91.4128 24.8486 91.8555 25.3076C92.3014 25.7666 92.5423 26.3753 92.5781 27.1338L92.583 27.4121C92.583 27.9329 92.4821 28.3984 92.2803 28.8086C92.0817 29.2188 91.7952 29.5361 91.4209 29.7607C91.0498 29.9854 90.6201 30.0977 90.1318 30.0977C89.3864 30.0977 88.7891 29.8503 88.3398 29.3555C87.8939 28.8574 87.6709 28.195 87.6709 27.3682V27.3096ZM88.8574 27.4121C88.8574 27.9557 88.9697 28.3822 89.1943 28.6914C89.4189 28.9974 89.7314 29.1504 90.1318 29.1504C90.5322 29.1504 90.8431 28.9941 91.0645 28.6816C91.2891 28.3691 91.4014 27.9118 91.4014 27.3096C91.4014 26.7757 91.2858 26.3525 91.0547 26.04C90.8268 25.7275 90.516 25.5713 90.1221 25.5713C89.7347 25.5713 89.4271 25.7259 89.1992 26.0352C88.9714 26.3411 88.8574 26.8001 88.8574 27.4121ZM94.6875 24.7168L94.7217 25.3271C95.1123 24.8551 95.625 24.6191 96.2598 24.6191C97.36 24.6191 97.9199 25.249 97.9395 26.5088V30H96.7529V26.5771C96.7529 26.2419 96.6797 25.9945 96.5332 25.835C96.39 25.6722 96.154 25.5908 95.8252 25.5908C95.3467 25.5908 94.9902 25.8073 94.7559 26.2402V30H93.5693V24.7168H94.6875Z" fill="#F8C62C"/>
</svg>
